%TF.GenerationSoftware,KiCad,Pcbnew,(6.0.10)*%
%TF.CreationDate,2023-01-28T16:26:22+05:30*%
%TF.ProjectId,protectionCkt,70726f74-6563-4746-996f-6e436b742e6b,rev?*%
%TF.SameCoordinates,Original*%
%TF.FileFunction,Copper,L1,Top*%
%TF.FilePolarity,Positive*%
%FSLAX46Y46*%
G04 Gerber Fmt 4.6, Leading zero omitted, Abs format (unit mm)*
G04 Created by KiCad (PCBNEW (6.0.10)) date 2023-01-28 16:26:22*
%MOMM*%
%LPD*%
G01*
G04 APERTURE LIST*
%TA.AperFunction,ComponentPad*%
%ADD10C,3.800000*%
%TD*%
%TA.AperFunction,SMDPad,CuDef*%
%ADD11R,0.355600X0.876300*%
%TD*%
%TA.AperFunction,ComponentPad*%
%ADD12C,2.032000*%
%TD*%
%TA.AperFunction,SMDPad,CuDef*%
%ADD13R,0.838200X1.016000*%
%TD*%
%TA.AperFunction,SMDPad,CuDef*%
%ADD14R,0.655600X0.800000*%
%TD*%
%TA.AperFunction,SMDPad,CuDef*%
%ADD15R,0.698500X1.701800*%
%TD*%
%TA.AperFunction,SMDPad,CuDef*%
%ADD16R,0.755599X0.799998*%
%TD*%
%TA.AperFunction,SMDPad,CuDef*%
%ADD17R,0.406400X0.876300*%
%TD*%
%TA.AperFunction,ViaPad*%
%ADD18C,0.800000*%
%TD*%
%TA.AperFunction,Conductor*%
%ADD19C,0.250000*%
%TD*%
G04 APERTURE END LIST*
D10*
%TO.P,REF\u002A\u002A,1*%
%TO.N,N/C*%
X112395000Y-84455000D03*
%TD*%
%TO.P,REF\u002A\u002A,1*%
%TO.N,N/C*%
X142240000Y-103505000D03*
%TD*%
D11*
%TO.P,U3,1,D*%
%TO.N,Net-(R1-Pad2)*%
X126985001Y-93821250D03*
%TO.P,U3,2,D*%
X127635000Y-93821250D03*
%TO.P,U3,3,G*%
%TO.N,Net-(U3-Pad3)*%
X128284999Y-93821250D03*
%TO.P,U3,4,S*%
%TO.N,Net-(C1-Pad2)*%
X128284999Y-91598750D03*
%TO.P,U3,5,D*%
%TO.N,Net-(R1-Pad2)*%
X127635000Y-91598750D03*
%TO.P,U3,6,D*%
X126985001Y-91598750D03*
%TD*%
D12*
%TO.P,U5,1,1*%
%TO.N,Net-(C1-Pad2)*%
X139700000Y-95885000D03*
%TO.P,U5,2,2*%
%TO.N,GND*%
X139700000Y-90805000D03*
%TD*%
D13*
%TO.P,R1,1*%
%TO.N,VCC*%
X123151900Y-92710000D03*
%TO.P,R1,2*%
%TO.N,Net-(R1-Pad2)*%
X124498100Y-92710000D03*
%TD*%
D14*
%TO.P,C1,1,1*%
%TO.N,GND*%
X130367800Y-88265000D03*
%TO.P,C1,2,2*%
%TO.N,Net-(C1-Pad2)*%
X128712200Y-88265000D03*
%TD*%
D12*
%TO.P,U1,1,1*%
%TO.N,VCC*%
X114935000Y-95885000D03*
%TO.P,U1,2,2*%
%TO.N,GND*%
X114935000Y-90805000D03*
%TD*%
D15*
%TO.P,LED1,1,1*%
%TO.N,GND*%
X127120650Y-84455000D03*
%TO.P,LED1,2,2*%
%TO.N,Net-(LED1-Pad2)*%
X129419350Y-84455000D03*
%TD*%
D10*
%TO.P,REF\u002A\u002A,1*%
%TO.N,N/C*%
X112395000Y-103505000D03*
%TD*%
D16*
%TO.P,R2,1,1*%
%TO.N,Net-(C1-Pad2)*%
X131302201Y-92075000D03*
%TO.P,R2,2,2*%
%TO.N,Net-(LED1-Pad2)*%
X132857799Y-92075000D03*
%TD*%
D12*
%TO.P,U2,1,1*%
%TO.N,Net-(U2-Pad1)*%
X125095000Y-100965000D03*
%TO.P,U2,2,2*%
%TO.N,unconnected-(U2-Pad2)*%
X130175000Y-100965000D03*
%TD*%
D17*
%TO.P,U4,1,\u002AON*%
%TO.N,unconnected-(U4-Pad1)*%
X125434999Y-87585550D03*
%TO.P,U4,2,OUT*%
%TO.N,Net-(C1-Pad2)*%
X124785001Y-87585550D03*
%TO.P,U4,3,GATEP*%
%TO.N,unconnected-(U4-Pad3)*%
X124134999Y-87585550D03*
%TO.P,U4,4,GND*%
%TO.N,GND*%
X123485001Y-87585550D03*
%TO.P,U4,5,IN*%
%TO.N,VCC*%
X123485001Y-90214450D03*
%TO.P,U4,6,SENSE*%
%TO.N,Net-(R1-Pad2)*%
X124134999Y-90214450D03*
%TO.P,U4,7,GATE*%
%TO.N,Net-(U3-Pad3)*%
X124785001Y-90214450D03*
%TO.P,U4,8,\u002APWRGD*%
%TO.N,Net-(U2-Pad1)*%
X125434999Y-90214450D03*
%TD*%
D10*
%TO.P,REF\u002A\u002A,1*%
%TO.N,N/C*%
X142240000Y-84455000D03*
%TD*%
D18*
%TO.N,Net-(U2-Pad1)*%
X127000000Y-90170000D03*
X131445000Y-95885000D03*
%TO.N,Net-(U3-Pad3)*%
X125730000Y-95250000D03*
X125095000Y-91440000D03*
%TD*%
D19*
%TO.N,Net-(C1-Pad2)*%
X124785001Y-86897400D02*
X125322401Y-86360000D01*
X127635000Y-86360000D02*
X128712200Y-87437200D01*
X130825951Y-91598750D02*
X131302201Y-92075000D01*
X128712200Y-87437200D02*
X128712200Y-88265000D01*
X125322401Y-86360000D02*
X127635000Y-86360000D01*
X124785001Y-87585550D02*
X124785001Y-86897400D01*
X128284999Y-91598750D02*
X128284999Y-88692201D01*
X128284999Y-88692201D02*
X128712200Y-88265000D01*
X128284999Y-91598750D02*
X130825951Y-91598750D01*
X135112201Y-95885000D02*
X139700000Y-95885000D01*
X131302201Y-92075000D02*
X135112201Y-95885000D01*
%TO.N,Net-(LED1-Pad2)*%
X132080000Y-84455000D02*
X132857799Y-85232799D01*
X132857799Y-85232799D02*
X132857799Y-92075000D01*
X129419350Y-84455000D02*
X132080000Y-84455000D01*
%TO.N,VCC*%
X114935000Y-95885000D02*
X120015000Y-95885000D01*
X123485001Y-92376899D02*
X123151900Y-92710000D01*
X123485001Y-90214450D02*
X123485001Y-92376899D01*
X123151900Y-92748100D02*
X123151900Y-92710000D01*
X120015000Y-95885000D02*
X123151900Y-92748100D01*
%TO.N,Net-(R1-Pad2)*%
X127000000Y-93836249D02*
X126985001Y-93821250D01*
X124498100Y-92710000D02*
X125095000Y-92710000D01*
X127000000Y-91583751D02*
X126985001Y-91598750D01*
X127000000Y-93980000D02*
X127000000Y-93836249D01*
X125095000Y-92710000D02*
X126365000Y-91440000D01*
X127635000Y-93821250D02*
X126985001Y-93821250D01*
X126985001Y-91598750D02*
X127635000Y-91598750D01*
X124134999Y-90214450D02*
X124134999Y-92346899D01*
X127000000Y-91440000D02*
X127000000Y-91583751D01*
X126365000Y-93980000D02*
X127000000Y-93980000D01*
X126365000Y-91440000D02*
X127000000Y-91440000D01*
X125095000Y-92710000D02*
X126365000Y-93980000D01*
X124134999Y-92346899D02*
X124498100Y-92710000D01*
%TO.N,Net-(U2-Pad1)*%
X125434999Y-90214450D02*
X126955550Y-90214450D01*
X130175000Y-95885000D02*
X125095000Y-100965000D01*
X131445000Y-95885000D02*
X130175000Y-95885000D01*
X126955550Y-90214450D02*
X127000000Y-90170000D01*
%TO.N,Net-(U3-Pad3)*%
X127635000Y-95885000D02*
X128284999Y-95235001D01*
X124785001Y-90214450D02*
X124785001Y-91130001D01*
X125730000Y-95250000D02*
X126365000Y-95885000D01*
X126365000Y-95885000D02*
X127635000Y-95885000D01*
X128284999Y-95235001D02*
X128284999Y-93821250D01*
X124785001Y-91130001D02*
X125095000Y-91440000D01*
%TD*%
%TA.AperFunction,Conductor*%
%TO.N,GND*%
G36*
X140634825Y-82443502D02*
G01*
X140681318Y-82497158D01*
X140691422Y-82567432D01*
X140661928Y-82632012D01*
X140652959Y-82641348D01*
X140480808Y-82803008D01*
X140287630Y-83036520D01*
X140125242Y-83292402D01*
X140090588Y-83366046D01*
X140026783Y-83501640D01*
X139996206Y-83566619D01*
X139902555Y-83854846D01*
X139845767Y-84152538D01*
X139826738Y-84455000D01*
X139845767Y-84757462D01*
X139902555Y-85055154D01*
X139996206Y-85343381D01*
X139997893Y-85346967D01*
X139997895Y-85346971D01*
X140030479Y-85416216D01*
X140125242Y-85617598D01*
X140287630Y-85873480D01*
X140290149Y-85876525D01*
X140290152Y-85876529D01*
X140296221Y-85883865D01*
X140480808Y-86106992D01*
X140701729Y-86314450D01*
X140946910Y-86492584D01*
X140950379Y-86494491D01*
X140950382Y-86494493D01*
X141080627Y-86566096D01*
X141212483Y-86638585D01*
X141216152Y-86640038D01*
X141216157Y-86640040D01*
X141445146Y-86730703D01*
X141494261Y-86750149D01*
X141787800Y-86825516D01*
X142088470Y-86863500D01*
X142391530Y-86863500D01*
X142692200Y-86825516D01*
X142985739Y-86750149D01*
X143034854Y-86730703D01*
X143263843Y-86640040D01*
X143263848Y-86640038D01*
X143267517Y-86638585D01*
X143399373Y-86566096D01*
X143529618Y-86494493D01*
X143529621Y-86494491D01*
X143533090Y-86492584D01*
X143778271Y-86314450D01*
X143999192Y-86106992D01*
X144048416Y-86047491D01*
X144107249Y-86007753D01*
X144178227Y-86006132D01*
X144238815Y-86043141D01*
X144269775Y-86107031D01*
X144271500Y-86127807D01*
X144271500Y-101832193D01*
X144251498Y-101900314D01*
X144197842Y-101946807D01*
X144127568Y-101956911D01*
X144062988Y-101927417D01*
X144048416Y-101912509D01*
X144001718Y-101856061D01*
X144001715Y-101856058D01*
X143999192Y-101853008D01*
X143778271Y-101645550D01*
X143533090Y-101467416D01*
X143267517Y-101321415D01*
X143263848Y-101319962D01*
X143263843Y-101319960D01*
X142989409Y-101211304D01*
X142989408Y-101211304D01*
X142985739Y-101209851D01*
X142692200Y-101134484D01*
X142391530Y-101096500D01*
X142088470Y-101096500D01*
X141787800Y-101134484D01*
X141494261Y-101209851D01*
X141490592Y-101211304D01*
X141490591Y-101211304D01*
X141216157Y-101319960D01*
X141216152Y-101319962D01*
X141212483Y-101321415D01*
X140946910Y-101467416D01*
X140701729Y-101645550D01*
X140480808Y-101853008D01*
X140287630Y-102086520D01*
X140125242Y-102342402D01*
X139996206Y-102616619D01*
X139902555Y-102904846D01*
X139845767Y-103202538D01*
X139826738Y-103505000D01*
X139845767Y-103807462D01*
X139902555Y-104105154D01*
X139996206Y-104393381D01*
X140125242Y-104667598D01*
X140287630Y-104923480D01*
X140480808Y-105156992D01*
X140483695Y-105159703D01*
X140652957Y-105318650D01*
X140688922Y-105379862D01*
X140686085Y-105450802D01*
X140645344Y-105508946D01*
X140579636Y-105535835D01*
X140566704Y-105536500D01*
X114068296Y-105536500D01*
X114000175Y-105516498D01*
X113953682Y-105462842D01*
X113943578Y-105392568D01*
X113973072Y-105327988D01*
X113982043Y-105318650D01*
X114151305Y-105159703D01*
X114154192Y-105156992D01*
X114347370Y-104923480D01*
X114509758Y-104667598D01*
X114638794Y-104393381D01*
X114732445Y-104105154D01*
X114789233Y-103807462D01*
X114808262Y-103505000D01*
X114789233Y-103202538D01*
X114732445Y-102904846D01*
X114638794Y-102616619D01*
X114509758Y-102342402D01*
X114347370Y-102086520D01*
X114154192Y-101853008D01*
X113933271Y-101645550D01*
X113688090Y-101467416D01*
X113422517Y-101321415D01*
X113418848Y-101319962D01*
X113418843Y-101319960D01*
X113144409Y-101211304D01*
X113144408Y-101211304D01*
X113140739Y-101209851D01*
X112847200Y-101134484D01*
X112546530Y-101096500D01*
X112243470Y-101096500D01*
X111942800Y-101134484D01*
X111649261Y-101209851D01*
X111645592Y-101211304D01*
X111645591Y-101211304D01*
X111371157Y-101319960D01*
X111371152Y-101319962D01*
X111367483Y-101321415D01*
X111101910Y-101467416D01*
X110856729Y-101645550D01*
X110635808Y-101853008D01*
X110633285Y-101856058D01*
X110633282Y-101856061D01*
X110586584Y-101912509D01*
X110527751Y-101952247D01*
X110456773Y-101953868D01*
X110396185Y-101916859D01*
X110365225Y-101852969D01*
X110363500Y-101832193D01*
X110363500Y-100965000D01*
X123565786Y-100965000D01*
X123584613Y-101204222D01*
X123585767Y-101209029D01*
X123585768Y-101209035D01*
X123585964Y-101209851D01*
X123640631Y-101437553D01*
X123642524Y-101442124D01*
X123642525Y-101442126D01*
X123727909Y-101648261D01*
X123732460Y-101659249D01*
X123857840Y-101863849D01*
X124013682Y-102046318D01*
X124196151Y-102202160D01*
X124400751Y-102327540D01*
X124405321Y-102329433D01*
X124405323Y-102329434D01*
X124617874Y-102417475D01*
X124622447Y-102419369D01*
X124704037Y-102438957D01*
X124850965Y-102474232D01*
X124850971Y-102474233D01*
X124855778Y-102475387D01*
X125095000Y-102494214D01*
X125334222Y-102475387D01*
X125339029Y-102474233D01*
X125339035Y-102474232D01*
X125485963Y-102438957D01*
X125567553Y-102419369D01*
X125572126Y-102417475D01*
X125784677Y-102329434D01*
X125784679Y-102329433D01*
X125789249Y-102327540D01*
X125993849Y-102202160D01*
X126176318Y-102046318D01*
X126332160Y-101863849D01*
X126457540Y-101659249D01*
X126462092Y-101648261D01*
X126547475Y-101442126D01*
X126547476Y-101442124D01*
X126549369Y-101437553D01*
X126604036Y-101209851D01*
X126604232Y-101209035D01*
X126604233Y-101209029D01*
X126605387Y-101204222D01*
X126624214Y-100965000D01*
X128645786Y-100965000D01*
X128664613Y-101204222D01*
X128665767Y-101209029D01*
X128665768Y-101209035D01*
X128665964Y-101209851D01*
X128720631Y-101437553D01*
X128722524Y-101442124D01*
X128722525Y-101442126D01*
X128807909Y-101648261D01*
X128812460Y-101659249D01*
X128937840Y-101863849D01*
X129093682Y-102046318D01*
X129276151Y-102202160D01*
X129480751Y-102327540D01*
X129485321Y-102329433D01*
X129485323Y-102329434D01*
X129697874Y-102417475D01*
X129702447Y-102419369D01*
X129784037Y-102438957D01*
X129930965Y-102474232D01*
X129930971Y-102474233D01*
X129935778Y-102475387D01*
X130175000Y-102494214D01*
X130414222Y-102475387D01*
X130419029Y-102474233D01*
X130419035Y-102474232D01*
X130565963Y-102438957D01*
X130647553Y-102419369D01*
X130652126Y-102417475D01*
X130864677Y-102329434D01*
X130864679Y-102329433D01*
X130869249Y-102327540D01*
X131073849Y-102202160D01*
X131256318Y-102046318D01*
X131412160Y-101863849D01*
X131537540Y-101659249D01*
X131542092Y-101648261D01*
X131627475Y-101442126D01*
X131627476Y-101442124D01*
X131629369Y-101437553D01*
X131684036Y-101209851D01*
X131684232Y-101209035D01*
X131684233Y-101209029D01*
X131685387Y-101204222D01*
X131704214Y-100965000D01*
X131685387Y-100725778D01*
X131684233Y-100720971D01*
X131684232Y-100720965D01*
X131630524Y-100497259D01*
X131629369Y-100492447D01*
X131537540Y-100270751D01*
X131412160Y-100066151D01*
X131256318Y-99883682D01*
X131073849Y-99727840D01*
X130869249Y-99602460D01*
X130864679Y-99600567D01*
X130864677Y-99600566D01*
X130652126Y-99512525D01*
X130652124Y-99512524D01*
X130647553Y-99510631D01*
X130565963Y-99491043D01*
X130419035Y-99455768D01*
X130419029Y-99455767D01*
X130414222Y-99454613D01*
X130175000Y-99435786D01*
X129935778Y-99454613D01*
X129930971Y-99455767D01*
X129930965Y-99455768D01*
X129784037Y-99491043D01*
X129702447Y-99510631D01*
X129697876Y-99512524D01*
X129697874Y-99512525D01*
X129485323Y-99600566D01*
X129485321Y-99600567D01*
X129480751Y-99602460D01*
X129276151Y-99727840D01*
X129093682Y-99883682D01*
X128937840Y-100066151D01*
X128812460Y-100270751D01*
X128720631Y-100492447D01*
X128719476Y-100497259D01*
X128665768Y-100720965D01*
X128665767Y-100720971D01*
X128664613Y-100725778D01*
X128645786Y-100965000D01*
X126624214Y-100965000D01*
X126605387Y-100725778D01*
X126604233Y-100720971D01*
X126604232Y-100720965D01*
X126549369Y-100492447D01*
X126551592Y-100491913D01*
X126549813Y-100430422D01*
X126582590Y-100373314D01*
X130400500Y-96555405D01*
X130462812Y-96521379D01*
X130489595Y-96518500D01*
X130736800Y-96518500D01*
X130804921Y-96538502D01*
X130824147Y-96554843D01*
X130824420Y-96554540D01*
X130829332Y-96558963D01*
X130833747Y-96563866D01*
X130988248Y-96676118D01*
X130994276Y-96678802D01*
X130994278Y-96678803D01*
X131156681Y-96751109D01*
X131162712Y-96753794D01*
X131256112Y-96773647D01*
X131343056Y-96792128D01*
X131343061Y-96792128D01*
X131349513Y-96793500D01*
X131540487Y-96793500D01*
X131546939Y-96792128D01*
X131546944Y-96792128D01*
X131633888Y-96773647D01*
X131727288Y-96753794D01*
X131733319Y-96751109D01*
X131895722Y-96678803D01*
X131895724Y-96678802D01*
X131901752Y-96676118D01*
X132056253Y-96563866D01*
X132092851Y-96523220D01*
X132179621Y-96426852D01*
X132179622Y-96426851D01*
X132184040Y-96421944D01*
X132259053Y-96292018D01*
X132276223Y-96262279D01*
X132276224Y-96262278D01*
X132279527Y-96256556D01*
X132338542Y-96074928D01*
X132341814Y-96043803D01*
X132357814Y-95891565D01*
X132358504Y-95885000D01*
X132343123Y-95738658D01*
X132339232Y-95701635D01*
X132339232Y-95701633D01*
X132338542Y-95695072D01*
X132279527Y-95513444D01*
X132258490Y-95477006D01*
X132240707Y-95446206D01*
X132184040Y-95348056D01*
X132167882Y-95330110D01*
X132060675Y-95211045D01*
X132060674Y-95211044D01*
X132056253Y-95206134D01*
X131901752Y-95093882D01*
X131895724Y-95091198D01*
X131895722Y-95091197D01*
X131733319Y-95018891D01*
X131733318Y-95018891D01*
X131727288Y-95016206D01*
X131633887Y-94996353D01*
X131546944Y-94977872D01*
X131546939Y-94977872D01*
X131540487Y-94976500D01*
X131349513Y-94976500D01*
X131343061Y-94977872D01*
X131343056Y-94977872D01*
X131256113Y-94996353D01*
X131162712Y-95016206D01*
X131156682Y-95018891D01*
X131156681Y-95018891D01*
X130994278Y-95091197D01*
X130994276Y-95091198D01*
X130988248Y-95093882D01*
X130833747Y-95206134D01*
X130829332Y-95211037D01*
X130824420Y-95215460D01*
X130823295Y-95214211D01*
X130769986Y-95247051D01*
X130736800Y-95251500D01*
X130253767Y-95251500D01*
X130242584Y-95250973D01*
X130235091Y-95249298D01*
X130227165Y-95249547D01*
X130227164Y-95249547D01*
X130167001Y-95251438D01*
X130163043Y-95251500D01*
X130135144Y-95251500D01*
X130131154Y-95252004D01*
X130119320Y-95252936D01*
X130075111Y-95254326D01*
X130067497Y-95256538D01*
X130067492Y-95256539D01*
X130055659Y-95259977D01*
X130036296Y-95263988D01*
X130016203Y-95266526D01*
X130008836Y-95269443D01*
X130008831Y-95269444D01*
X129975092Y-95282802D01*
X129963865Y-95286646D01*
X129921407Y-95298982D01*
X129914581Y-95303019D01*
X129903972Y-95309293D01*
X129886224Y-95317988D01*
X129867383Y-95325448D01*
X129860967Y-95330110D01*
X129860966Y-95330110D01*
X129831613Y-95351436D01*
X129821693Y-95357952D01*
X129790465Y-95376420D01*
X129790462Y-95376422D01*
X129783638Y-95380458D01*
X129769317Y-95394779D01*
X129754284Y-95407619D01*
X129737893Y-95419528D01*
X129732842Y-95425634D01*
X129709702Y-95453605D01*
X129701712Y-95462384D01*
X125686685Y-99477410D01*
X125624373Y-99511436D01*
X125568042Y-99508595D01*
X125567553Y-99510631D01*
X125339035Y-99455768D01*
X125339029Y-99455767D01*
X125334222Y-99454613D01*
X125095000Y-99435786D01*
X124855778Y-99454613D01*
X124850971Y-99455767D01*
X124850965Y-99455768D01*
X124704037Y-99491043D01*
X124622447Y-99510631D01*
X124617876Y-99512524D01*
X124617874Y-99512525D01*
X124405323Y-99600566D01*
X124405321Y-99600567D01*
X124400751Y-99602460D01*
X124196151Y-99727840D01*
X124013682Y-99883682D01*
X123857840Y-100066151D01*
X123732460Y-100270751D01*
X123640631Y-100492447D01*
X123639476Y-100497259D01*
X123585768Y-100720965D01*
X123585767Y-100720971D01*
X123584613Y-100725778D01*
X123565786Y-100965000D01*
X110363500Y-100965000D01*
X110363500Y-95885000D01*
X113405786Y-95885000D01*
X113424613Y-96124222D01*
X113425767Y-96129029D01*
X113425768Y-96129035D01*
X113454875Y-96250271D01*
X113480631Y-96357553D01*
X113482524Y-96362124D01*
X113482525Y-96362126D01*
X113567697Y-96567749D01*
X113572460Y-96579249D01*
X113697840Y-96783849D01*
X113853682Y-96966318D01*
X114036151Y-97122160D01*
X114240751Y-97247540D01*
X114245321Y-97249433D01*
X114245323Y-97249434D01*
X114457874Y-97337475D01*
X114462447Y-97339369D01*
X114544037Y-97358957D01*
X114690965Y-97394232D01*
X114690971Y-97394233D01*
X114695778Y-97395387D01*
X114935000Y-97414214D01*
X115174222Y-97395387D01*
X115179029Y-97394233D01*
X115179035Y-97394232D01*
X115325963Y-97358957D01*
X115407553Y-97339369D01*
X115412126Y-97337475D01*
X115624677Y-97249434D01*
X115624679Y-97249433D01*
X115629249Y-97247540D01*
X115833849Y-97122160D01*
X116016318Y-96966318D01*
X116172160Y-96783849D01*
X116297540Y-96579249D01*
X116299468Y-96580430D01*
X116341816Y-96535644D01*
X116405270Y-96518500D01*
X119936233Y-96518500D01*
X119947416Y-96519027D01*
X119954909Y-96520702D01*
X119962835Y-96520453D01*
X119962836Y-96520453D01*
X120022986Y-96518562D01*
X120026945Y-96518500D01*
X120054856Y-96518500D01*
X120058791Y-96518003D01*
X120058856Y-96517995D01*
X120070693Y-96517062D01*
X120102951Y-96516048D01*
X120106970Y-96515922D01*
X120114889Y-96515673D01*
X120134343Y-96510021D01*
X120153700Y-96506013D01*
X120165930Y-96504468D01*
X120165931Y-96504468D01*
X120173797Y-96503474D01*
X120181168Y-96500555D01*
X120181170Y-96500555D01*
X120214912Y-96487196D01*
X120226142Y-96483351D01*
X120260983Y-96473229D01*
X120260984Y-96473229D01*
X120268593Y-96471018D01*
X120275412Y-96466985D01*
X120275417Y-96466983D01*
X120286028Y-96460707D01*
X120303776Y-96452012D01*
X120322617Y-96444552D01*
X120358387Y-96418564D01*
X120368307Y-96412048D01*
X120399535Y-96393580D01*
X120399538Y-96393578D01*
X120406362Y-96389542D01*
X120420683Y-96375221D01*
X120435717Y-96362380D01*
X120437431Y-96361135D01*
X120452107Y-96350472D01*
X120480298Y-96316395D01*
X120488288Y-96307616D01*
X123032499Y-93763405D01*
X123094811Y-93729379D01*
X123121594Y-93726500D01*
X123619134Y-93726500D01*
X123681316Y-93719745D01*
X123780771Y-93682461D01*
X123851577Y-93677278D01*
X123869226Y-93682460D01*
X123968684Y-93719745D01*
X124030866Y-93726500D01*
X124965334Y-93726500D01*
X124968731Y-93726131D01*
X125019666Y-93720598D01*
X125019668Y-93720598D01*
X125027516Y-93719745D01*
X125083441Y-93698780D01*
X125154245Y-93693597D01*
X125216763Y-93727667D01*
X125632130Y-94143034D01*
X125666156Y-94205346D01*
X125661091Y-94276161D01*
X125618544Y-94332997D01*
X125569232Y-94355376D01*
X125447712Y-94381206D01*
X125441682Y-94383891D01*
X125441681Y-94383891D01*
X125279278Y-94456197D01*
X125279276Y-94456198D01*
X125273248Y-94458882D01*
X125267907Y-94462762D01*
X125267906Y-94462763D01*
X125217843Y-94499136D01*
X125118747Y-94571134D01*
X125114326Y-94576044D01*
X125114325Y-94576045D01*
X125080601Y-94613500D01*
X124990960Y-94713056D01*
X124895473Y-94878444D01*
X124836458Y-95060072D01*
X124835768Y-95066633D01*
X124835768Y-95066635D01*
X124820217Y-95214595D01*
X124816496Y-95250000D01*
X124817186Y-95256565D01*
X124834956Y-95425634D01*
X124836458Y-95439928D01*
X124895473Y-95621556D01*
X124898776Y-95627278D01*
X124898777Y-95627279D01*
X124932686Y-95686010D01*
X124990960Y-95786944D01*
X125118747Y-95928866D01*
X125273248Y-96041118D01*
X125279276Y-96043802D01*
X125279278Y-96043803D01*
X125441681Y-96116109D01*
X125447712Y-96118794D01*
X125541112Y-96138647D01*
X125628056Y-96157128D01*
X125628061Y-96157128D01*
X125634513Y-96158500D01*
X125690406Y-96158500D01*
X125758527Y-96178502D01*
X125779501Y-96195405D01*
X125861343Y-96277247D01*
X125868887Y-96285537D01*
X125873000Y-96292018D01*
X125878777Y-96297443D01*
X125922667Y-96338658D01*
X125925509Y-96341413D01*
X125945231Y-96361135D01*
X125948355Y-96363558D01*
X125948359Y-96363562D01*
X125948424Y-96363612D01*
X125957445Y-96371317D01*
X125989679Y-96401586D01*
X125996627Y-96405405D01*
X125996629Y-96405407D01*
X126007432Y-96411346D01*
X126023959Y-96422202D01*
X126033698Y-96429757D01*
X126033700Y-96429758D01*
X126039960Y-96434614D01*
X126080540Y-96452174D01*
X126091188Y-96457391D01*
X126115976Y-96471018D01*
X126129940Y-96478695D01*
X126137616Y-96480666D01*
X126137619Y-96480667D01*
X126149562Y-96483733D01*
X126168267Y-96490137D01*
X126186855Y-96498181D01*
X126194678Y-96499420D01*
X126194688Y-96499423D01*
X126230524Y-96505099D01*
X126242144Y-96507505D01*
X126273959Y-96515673D01*
X126284970Y-96518500D01*
X126305224Y-96518500D01*
X126324934Y-96520051D01*
X126344943Y-96523220D01*
X126352835Y-96522474D01*
X126371580Y-96520702D01*
X126388962Y-96519059D01*
X126400819Y-96518500D01*
X127556233Y-96518500D01*
X127567416Y-96519027D01*
X127574909Y-96520702D01*
X127582835Y-96520453D01*
X127582836Y-96520453D01*
X127642986Y-96518562D01*
X127646945Y-96518500D01*
X127674856Y-96518500D01*
X127678791Y-96518003D01*
X127678856Y-96517995D01*
X127690693Y-96517062D01*
X127722951Y-96516048D01*
X127726970Y-96515922D01*
X127734889Y-96515673D01*
X127754343Y-96510021D01*
X127773700Y-96506013D01*
X127785930Y-96504468D01*
X127785931Y-96504468D01*
X127793797Y-96503474D01*
X127801168Y-96500555D01*
X127801170Y-96500555D01*
X127834912Y-96487196D01*
X127846142Y-96483351D01*
X127880983Y-96473229D01*
X127880984Y-96473229D01*
X127888593Y-96471018D01*
X127895412Y-96466985D01*
X127895417Y-96466983D01*
X127906028Y-96460707D01*
X127923776Y-96452012D01*
X127942617Y-96444552D01*
X127978387Y-96418564D01*
X127988307Y-96412048D01*
X128019535Y-96393580D01*
X128019538Y-96393578D01*
X128026362Y-96389542D01*
X128040683Y-96375221D01*
X128055717Y-96362380D01*
X128057431Y-96361135D01*
X128072107Y-96350472D01*
X128100298Y-96316395D01*
X128108288Y-96307616D01*
X128677246Y-95738658D01*
X128685536Y-95731114D01*
X128692017Y-95727001D01*
X128738658Y-95677333D01*
X128741412Y-95674492D01*
X128761133Y-95654771D01*
X128763611Y-95651576D01*
X128771317Y-95642554D01*
X128785661Y-95627279D01*
X128801585Y-95610322D01*
X128811345Y-95592569D01*
X128822198Y-95576046D01*
X128829752Y-95566307D01*
X128834612Y-95560042D01*
X128852175Y-95519458D01*
X128857382Y-95508828D01*
X128878694Y-95470061D01*
X128880665Y-95462384D01*
X128880667Y-95462379D01*
X128883731Y-95450443D01*
X128890137Y-95431731D01*
X128895033Y-95420418D01*
X128898180Y-95413146D01*
X128903358Y-95380458D01*
X128905096Y-95369482D01*
X128907503Y-95357861D01*
X128916527Y-95322712D01*
X128916527Y-95322711D01*
X128918499Y-95315031D01*
X128918499Y-95294770D01*
X128920050Y-95275059D01*
X128920940Y-95269444D01*
X128923218Y-95255058D01*
X128919058Y-95211045D01*
X128918499Y-95199190D01*
X128918499Y-94515382D01*
X128926517Y-94471153D01*
X128961772Y-94377111D01*
X128961772Y-94377109D01*
X128964544Y-94369716D01*
X128967460Y-94342879D01*
X128970930Y-94310931D01*
X128971299Y-94307534D01*
X128971299Y-93334966D01*
X128964544Y-93272784D01*
X128913414Y-93136395D01*
X128826060Y-93019839D01*
X128709504Y-92932485D01*
X128573115Y-92881355D01*
X128510933Y-92874600D01*
X128059065Y-92874600D01*
X127996883Y-92881355D01*
X127989489Y-92884127D01*
X127989144Y-92884209D01*
X127930853Y-92884209D01*
X127930514Y-92884129D01*
X127923116Y-92881355D01*
X127860934Y-92874600D01*
X127409066Y-92874600D01*
X127346884Y-92881355D01*
X127339490Y-92884127D01*
X127339145Y-92884209D01*
X127280854Y-92884209D01*
X127280515Y-92884129D01*
X127273117Y-92881355D01*
X127210935Y-92874600D01*
X126759067Y-92874600D01*
X126696885Y-92881355D01*
X126560496Y-92932485D01*
X126553311Y-92937870D01*
X126553309Y-92937871D01*
X126449503Y-93015669D01*
X126382996Y-93040517D01*
X126313614Y-93025464D01*
X126284843Y-93003938D01*
X126080000Y-92799095D01*
X126045974Y-92736783D01*
X126051039Y-92665968D01*
X126079999Y-92620906D01*
X126183908Y-92516996D01*
X126284844Y-92416061D01*
X126347156Y-92382036D01*
X126417972Y-92387101D01*
X126449504Y-92404331D01*
X126560496Y-92487515D01*
X126696885Y-92538645D01*
X126759067Y-92545400D01*
X127210935Y-92545400D01*
X127273117Y-92538645D01*
X127280515Y-92535871D01*
X127280854Y-92535791D01*
X127339145Y-92535791D01*
X127339490Y-92535873D01*
X127346884Y-92538645D01*
X127409066Y-92545400D01*
X127860934Y-92545400D01*
X127923116Y-92538645D01*
X127930514Y-92535871D01*
X127930853Y-92535791D01*
X127989144Y-92535791D01*
X127989489Y-92535873D01*
X127996883Y-92538645D01*
X128059065Y-92545400D01*
X128510933Y-92545400D01*
X128573115Y-92538645D01*
X128709504Y-92487515D01*
X128826060Y-92400161D01*
X128913414Y-92283605D01*
X128916253Y-92285733D01*
X128954511Y-92247580D01*
X129014744Y-92232250D01*
X130289902Y-92232250D01*
X130358023Y-92252252D01*
X130404516Y-92305908D01*
X130415902Y-92358250D01*
X130415902Y-92523133D01*
X130422657Y-92585315D01*
X130473787Y-92721704D01*
X130561141Y-92838260D01*
X130677697Y-92925614D01*
X130814086Y-92976744D01*
X130876268Y-92983499D01*
X131262606Y-92983499D01*
X131330727Y-93003501D01*
X131351701Y-93020404D01*
X134608544Y-96277247D01*
X134616088Y-96285537D01*
X134620201Y-96292018D01*
X134625978Y-96297443D01*
X134669868Y-96338658D01*
X134672710Y-96341413D01*
X134692432Y-96361135D01*
X134695556Y-96363558D01*
X134695560Y-96363562D01*
X134695625Y-96363612D01*
X134704646Y-96371317D01*
X134736880Y-96401586D01*
X134743828Y-96405405D01*
X134743830Y-96405407D01*
X134754633Y-96411346D01*
X134771160Y-96422202D01*
X134780899Y-96429757D01*
X134780901Y-96429758D01*
X134787161Y-96434614D01*
X134827741Y-96452174D01*
X134838389Y-96457391D01*
X134863177Y-96471018D01*
X134877141Y-96478695D01*
X134884817Y-96480666D01*
X134884820Y-96480667D01*
X134896763Y-96483733D01*
X134915468Y-96490137D01*
X134934056Y-96498181D01*
X134941879Y-96499420D01*
X134941889Y-96499423D01*
X134977725Y-96505099D01*
X134989345Y-96507505D01*
X135021160Y-96515673D01*
X135032171Y-96518500D01*
X135052425Y-96518500D01*
X135072135Y-96520051D01*
X135092144Y-96523220D01*
X135100036Y-96522474D01*
X135118781Y-96520702D01*
X135136163Y-96519059D01*
X135148020Y-96518500D01*
X138229730Y-96518500D01*
X138297851Y-96538502D01*
X138335709Y-96580322D01*
X138337460Y-96579249D01*
X138462840Y-96783849D01*
X138618682Y-96966318D01*
X138801151Y-97122160D01*
X139005751Y-97247540D01*
X139010321Y-97249433D01*
X139010323Y-97249434D01*
X139222874Y-97337475D01*
X139227447Y-97339369D01*
X139309037Y-97358957D01*
X139455965Y-97394232D01*
X139455971Y-97394233D01*
X139460778Y-97395387D01*
X139700000Y-97414214D01*
X139939222Y-97395387D01*
X139944029Y-97394233D01*
X139944035Y-97394232D01*
X140090963Y-97358957D01*
X140172553Y-97339369D01*
X140177126Y-97337475D01*
X140389677Y-97249434D01*
X140389679Y-97249433D01*
X140394249Y-97247540D01*
X140598849Y-97122160D01*
X140781318Y-96966318D01*
X140937160Y-96783849D01*
X141062540Y-96579249D01*
X141067304Y-96567749D01*
X141152475Y-96362126D01*
X141152476Y-96362124D01*
X141154369Y-96357553D01*
X141180125Y-96250271D01*
X141209232Y-96129035D01*
X141209233Y-96129029D01*
X141210387Y-96124222D01*
X141229214Y-95885000D01*
X141210387Y-95645778D01*
X141209233Y-95640971D01*
X141209232Y-95640965D01*
X141161184Y-95440834D01*
X141154369Y-95412447D01*
X141139446Y-95376420D01*
X141064434Y-95195323D01*
X141064433Y-95195321D01*
X141062540Y-95190751D01*
X140937160Y-94986151D01*
X140781318Y-94803682D01*
X140598849Y-94647840D01*
X140394249Y-94522460D01*
X140389679Y-94520567D01*
X140389677Y-94520566D01*
X140177126Y-94432525D01*
X140177124Y-94432524D01*
X140172553Y-94430631D01*
X140090963Y-94411043D01*
X139944035Y-94375768D01*
X139944029Y-94375767D01*
X139939222Y-94374613D01*
X139700000Y-94355786D01*
X139460778Y-94374613D01*
X139455971Y-94375767D01*
X139455965Y-94375768D01*
X139309037Y-94411043D01*
X139227447Y-94430631D01*
X139222876Y-94432524D01*
X139222874Y-94432525D01*
X139010323Y-94520566D01*
X139010321Y-94520567D01*
X139005751Y-94522460D01*
X138801151Y-94647840D01*
X138618682Y-94803682D01*
X138462840Y-94986151D01*
X138337460Y-95190751D01*
X138335532Y-95189570D01*
X138293184Y-95234356D01*
X138229730Y-95251500D01*
X135426795Y-95251500D01*
X135358674Y-95231498D01*
X135337700Y-95214595D01*
X133305324Y-93182218D01*
X133271298Y-93119906D01*
X133276363Y-93049090D01*
X133318910Y-92992255D01*
X133350190Y-92975141D01*
X133473893Y-92928767D01*
X133473894Y-92928766D01*
X133482303Y-92925614D01*
X133598859Y-92838260D01*
X133686213Y-92721704D01*
X133737343Y-92585315D01*
X133744098Y-92523133D01*
X133744098Y-92049306D01*
X138820524Y-92049306D01*
X138826251Y-92056956D01*
X139001759Y-92164507D01*
X139010553Y-92168988D01*
X139223029Y-92256998D01*
X139232414Y-92260047D01*
X139456044Y-92313737D01*
X139465791Y-92315280D01*
X139695070Y-92333325D01*
X139704930Y-92333325D01*
X139934209Y-92315280D01*
X139943956Y-92313737D01*
X140167586Y-92260047D01*
X140176971Y-92256998D01*
X140389447Y-92168988D01*
X140398241Y-92164507D01*
X140570083Y-92059203D01*
X140579543Y-92048747D01*
X140575759Y-92039969D01*
X139712812Y-91177022D01*
X139698868Y-91169408D01*
X139697035Y-91169539D01*
X139690420Y-91173790D01*
X138827284Y-92036926D01*
X138820524Y-92049306D01*
X133744098Y-92049306D01*
X133744098Y-91626867D01*
X133737343Y-91564685D01*
X133686213Y-91428296D01*
X133598859Y-91311740D01*
X133573101Y-91292435D01*
X133541734Y-91268927D01*
X133499219Y-91212068D01*
X133491299Y-91168101D01*
X133491299Y-90809930D01*
X138171675Y-90809930D01*
X138189720Y-91039209D01*
X138191263Y-91048956D01*
X138244953Y-91272586D01*
X138248002Y-91281971D01*
X138336012Y-91494447D01*
X138340493Y-91503241D01*
X138445797Y-91675083D01*
X138456253Y-91684543D01*
X138465031Y-91680759D01*
X139327978Y-90817812D01*
X139334356Y-90806132D01*
X140064408Y-90806132D01*
X140064539Y-90807965D01*
X140068790Y-90814580D01*
X140931926Y-91677716D01*
X140944306Y-91684476D01*
X140951956Y-91678749D01*
X141059507Y-91503241D01*
X141063988Y-91494447D01*
X141151998Y-91281971D01*
X141155047Y-91272586D01*
X141208737Y-91048956D01*
X141210280Y-91039209D01*
X141228325Y-90809930D01*
X141228325Y-90800070D01*
X141210280Y-90570791D01*
X141208737Y-90561044D01*
X141155047Y-90337414D01*
X141151998Y-90328029D01*
X141063988Y-90115553D01*
X141059507Y-90106759D01*
X140954203Y-89934917D01*
X140943747Y-89925457D01*
X140934969Y-89929241D01*
X140072022Y-90792188D01*
X140064408Y-90806132D01*
X139334356Y-90806132D01*
X139335592Y-90803868D01*
X139335461Y-90802035D01*
X139331210Y-90795420D01*
X138468074Y-89932284D01*
X138455694Y-89925524D01*
X138448044Y-89931251D01*
X138340493Y-90106759D01*
X138336012Y-90115553D01*
X138248002Y-90328029D01*
X138244953Y-90337414D01*
X138191263Y-90561044D01*
X138189720Y-90570791D01*
X138171675Y-90800070D01*
X138171675Y-90809930D01*
X133491299Y-90809930D01*
X133491299Y-89561253D01*
X138820457Y-89561253D01*
X138824241Y-89570031D01*
X139687188Y-90432978D01*
X139701132Y-90440592D01*
X139702965Y-90440461D01*
X139709580Y-90436210D01*
X140572716Y-89573074D01*
X140579476Y-89560694D01*
X140573749Y-89553044D01*
X140398241Y-89445493D01*
X140389447Y-89441012D01*
X140176971Y-89353002D01*
X140167586Y-89349953D01*
X139943956Y-89296263D01*
X139934209Y-89294720D01*
X139704930Y-89276675D01*
X139695070Y-89276675D01*
X139465791Y-89294720D01*
X139456044Y-89296263D01*
X139232414Y-89349953D01*
X139223029Y-89353002D01*
X139010553Y-89441012D01*
X139001759Y-89445493D01*
X138829917Y-89550797D01*
X138820457Y-89561253D01*
X133491299Y-89561253D01*
X133491299Y-85311566D01*
X133491826Y-85300383D01*
X133493501Y-85292890D01*
X133491361Y-85224799D01*
X133491299Y-85220842D01*
X133491299Y-85192943D01*
X133490795Y-85188952D01*
X133489862Y-85177110D01*
X133488722Y-85140835D01*
X133488473Y-85132910D01*
X133486261Y-85125296D01*
X133486260Y-85125291D01*
X133482822Y-85113458D01*
X133478811Y-85094094D01*
X133477266Y-85081863D01*
X133476273Y-85074002D01*
X133473356Y-85066635D01*
X133473355Y-85066630D01*
X133459997Y-85032891D01*
X133456153Y-85021664D01*
X133446029Y-84986821D01*
X133443817Y-84979206D01*
X133433506Y-84961771D01*
X133424811Y-84944023D01*
X133417351Y-84925182D01*
X133391363Y-84889412D01*
X133384847Y-84879492D01*
X133366379Y-84848264D01*
X133366377Y-84848261D01*
X133362341Y-84841437D01*
X133348020Y-84827116D01*
X133335179Y-84812082D01*
X133327930Y-84802105D01*
X133323271Y-84795692D01*
X133317166Y-84790641D01*
X133317161Y-84790636D01*
X133289195Y-84767500D01*
X133280417Y-84759512D01*
X132583652Y-84062747D01*
X132576112Y-84054461D01*
X132572000Y-84047982D01*
X132522348Y-84001356D01*
X132519507Y-83998602D01*
X132499770Y-83978865D01*
X132496573Y-83976385D01*
X132487551Y-83968680D01*
X132461100Y-83943841D01*
X132455321Y-83938414D01*
X132448375Y-83934595D01*
X132448372Y-83934593D01*
X132437566Y-83928652D01*
X132421047Y-83917801D01*
X132420583Y-83917441D01*
X132405041Y-83905386D01*
X132397772Y-83902241D01*
X132397768Y-83902238D01*
X132364463Y-83887826D01*
X132353813Y-83882609D01*
X132315060Y-83861305D01*
X132305098Y-83858747D01*
X132295438Y-83856267D01*
X132276734Y-83849863D01*
X132265420Y-83844967D01*
X132265419Y-83844967D01*
X132258145Y-83841819D01*
X132250322Y-83840580D01*
X132250312Y-83840577D01*
X132214476Y-83834901D01*
X132202856Y-83832495D01*
X132167711Y-83823472D01*
X132167710Y-83823472D01*
X132160030Y-83821500D01*
X132139776Y-83821500D01*
X132120065Y-83819949D01*
X132107886Y-83818020D01*
X132100057Y-83816780D01*
X132092165Y-83817526D01*
X132056039Y-83820941D01*
X132044181Y-83821500D01*
X130403100Y-83821500D01*
X130334979Y-83801498D01*
X130288486Y-83747842D01*
X130277100Y-83695500D01*
X130277100Y-83555966D01*
X130270345Y-83493784D01*
X130219215Y-83357395D01*
X130131861Y-83240839D01*
X130015305Y-83153485D01*
X129878916Y-83102355D01*
X129816734Y-83095600D01*
X129021966Y-83095600D01*
X128959784Y-83102355D01*
X128823395Y-83153485D01*
X128706839Y-83240839D01*
X128619485Y-83357395D01*
X128568355Y-83493784D01*
X128561600Y-83555966D01*
X128561600Y-85354034D01*
X128568355Y-85416216D01*
X128619485Y-85552605D01*
X128706839Y-85669161D01*
X128823395Y-85756515D01*
X128959784Y-85807645D01*
X129021966Y-85814400D01*
X129816734Y-85814400D01*
X129878916Y-85807645D01*
X130015305Y-85756515D01*
X130131861Y-85669161D01*
X130219215Y-85552605D01*
X130270345Y-85416216D01*
X130277100Y-85354034D01*
X130277100Y-85214500D01*
X130297102Y-85146379D01*
X130350758Y-85099886D01*
X130403100Y-85088500D01*
X131765405Y-85088500D01*
X131833526Y-85108502D01*
X131854501Y-85125405D01*
X132187395Y-85458300D01*
X132221420Y-85520612D01*
X132224299Y-85547395D01*
X132224299Y-91168101D01*
X132204297Y-91236222D01*
X132173863Y-91268928D01*
X132155564Y-91282642D01*
X132089057Y-91307489D01*
X132019675Y-91292435D01*
X132004435Y-91282641D01*
X131933892Y-91229772D01*
X131933890Y-91229771D01*
X131926705Y-91224386D01*
X131790316Y-91173256D01*
X131728134Y-91166501D01*
X131341797Y-91166501D01*
X131273676Y-91146499D01*
X131252702Y-91129596D01*
X131245721Y-91122615D01*
X131242524Y-91120135D01*
X131233502Y-91112430D01*
X131207051Y-91087591D01*
X131201272Y-91082164D01*
X131194326Y-91078345D01*
X131194323Y-91078343D01*
X131183517Y-91072402D01*
X131166998Y-91061551D01*
X131166534Y-91061191D01*
X131150992Y-91049136D01*
X131143723Y-91045991D01*
X131143719Y-91045988D01*
X131110414Y-91031576D01*
X131099764Y-91026359D01*
X131061011Y-91005055D01*
X131041388Y-91000017D01*
X131022685Y-90993613D01*
X131011371Y-90988717D01*
X131011370Y-90988717D01*
X131004096Y-90985569D01*
X130996273Y-90984330D01*
X130996263Y-90984327D01*
X130960427Y-90978651D01*
X130948807Y-90976245D01*
X130913662Y-90967222D01*
X130913661Y-90967222D01*
X130905981Y-90965250D01*
X130885727Y-90965250D01*
X130866016Y-90963699D01*
X130853837Y-90961770D01*
X130846008Y-90960530D01*
X130838116Y-90961276D01*
X130801990Y-90964691D01*
X130790132Y-90965250D01*
X129044499Y-90965250D01*
X128976378Y-90945248D01*
X128929885Y-90891592D01*
X128918499Y-90839250D01*
X128918499Y-89299500D01*
X128938501Y-89231379D01*
X128992157Y-89184886D01*
X129044499Y-89173500D01*
X129088134Y-89173500D01*
X129150316Y-89166745D01*
X129286705Y-89115615D01*
X129403261Y-89028261D01*
X129439487Y-88979925D01*
X129496345Y-88937411D01*
X129567164Y-88932385D01*
X129629457Y-88966445D01*
X129641138Y-88979925D01*
X129671717Y-89020726D01*
X129684276Y-89033285D01*
X129786351Y-89109786D01*
X129801946Y-89118324D01*
X129922394Y-89163478D01*
X129937649Y-89167105D01*
X129988514Y-89172631D01*
X129995328Y-89173000D01*
X130095685Y-89173000D01*
X130110924Y-89168525D01*
X130112129Y-89167135D01*
X130113800Y-89159452D01*
X130113800Y-89154884D01*
X130621800Y-89154884D01*
X130626275Y-89170123D01*
X130627665Y-89171328D01*
X130635348Y-89172999D01*
X130740269Y-89172999D01*
X130747090Y-89172629D01*
X130797952Y-89167105D01*
X130813204Y-89163479D01*
X130933654Y-89118324D01*
X130949249Y-89109786D01*
X131051324Y-89033285D01*
X131063885Y-89020724D01*
X131140386Y-88918649D01*
X131148924Y-88903054D01*
X131194078Y-88782606D01*
X131197705Y-88767351D01*
X131203231Y-88716486D01*
X131203600Y-88709672D01*
X131203600Y-88537115D01*
X131199125Y-88521876D01*
X131197735Y-88520671D01*
X131190052Y-88519000D01*
X130639915Y-88519000D01*
X130624676Y-88523475D01*
X130623471Y-88524865D01*
X130621800Y-88532548D01*
X130621800Y-89154884D01*
X130113800Y-89154884D01*
X130113800Y-87992885D01*
X130621800Y-87992885D01*
X130626275Y-88008124D01*
X130627665Y-88009329D01*
X130635348Y-88011000D01*
X131185484Y-88011000D01*
X131200723Y-88006525D01*
X131201928Y-88005135D01*
X131203599Y-87997452D01*
X131203599Y-87820331D01*
X131203229Y-87813510D01*
X131197705Y-87762648D01*
X131194079Y-87747396D01*
X131148924Y-87626946D01*
X131140386Y-87611351D01*
X131063885Y-87509276D01*
X131051324Y-87496715D01*
X130949249Y-87420214D01*
X130933654Y-87411676D01*
X130813206Y-87366522D01*
X130797951Y-87362895D01*
X130747086Y-87357369D01*
X130740272Y-87357000D01*
X130639915Y-87357000D01*
X130624676Y-87361475D01*
X130623471Y-87362865D01*
X130621800Y-87370548D01*
X130621800Y-87992885D01*
X130113800Y-87992885D01*
X130113800Y-87375116D01*
X130109325Y-87359877D01*
X130107935Y-87358672D01*
X130100252Y-87357001D01*
X129995331Y-87357001D01*
X129988510Y-87357371D01*
X129937648Y-87362895D01*
X129922396Y-87366521D01*
X129801946Y-87411676D01*
X129786351Y-87420214D01*
X129684276Y-87496715D01*
X129671717Y-87509274D01*
X129641138Y-87550075D01*
X129584278Y-87592589D01*
X129513460Y-87597614D01*
X129451166Y-87563554D01*
X129439486Y-87550074D01*
X129408642Y-87508919D01*
X129403261Y-87501739D01*
X129396021Y-87496313D01*
X129395977Y-87496254D01*
X129389731Y-87490008D01*
X129390632Y-87489107D01*
X129353504Y-87439455D01*
X129345831Y-87403394D01*
X129345700Y-87401311D01*
X129345700Y-87397344D01*
X129345196Y-87393353D01*
X129344263Y-87381511D01*
X129343919Y-87370548D01*
X129342874Y-87337311D01*
X129340662Y-87329697D01*
X129340661Y-87329692D01*
X129337223Y-87317859D01*
X129333212Y-87298495D01*
X129331667Y-87286264D01*
X129330674Y-87278403D01*
X129327757Y-87271036D01*
X129327756Y-87271031D01*
X129314398Y-87237292D01*
X129310554Y-87226065D01*
X129300430Y-87191222D01*
X129298218Y-87183607D01*
X129287907Y-87166172D01*
X129279212Y-87148424D01*
X129271752Y-87129583D01*
X129264427Y-87119500D01*
X129245764Y-87093813D01*
X129239248Y-87083893D01*
X129220780Y-87052665D01*
X129220778Y-87052662D01*
X129216742Y-87045838D01*
X129202421Y-87031517D01*
X129189580Y-87016483D01*
X129182331Y-87006506D01*
X129177672Y-87000093D01*
X129143595Y-86971902D01*
X129134816Y-86963912D01*
X128138652Y-85967747D01*
X128131112Y-85959461D01*
X128127000Y-85952982D01*
X128077348Y-85906356D01*
X128074507Y-85903602D01*
X128054770Y-85883865D01*
X128051573Y-85881385D01*
X128042551Y-85873680D01*
X128029116Y-85861064D01*
X128010321Y-85843414D01*
X128003375Y-85839595D01*
X128003372Y-85839593D01*
X127992566Y-85833652D01*
X127976047Y-85822801D01*
X127975583Y-85822441D01*
X127960041Y-85810386D01*
X127930393Y-85797556D01*
X127875819Y-85752145D01*
X127854459Y-85684437D01*
X127873096Y-85615930D01*
X127879607Y-85606355D01*
X127914686Y-85559548D01*
X127923224Y-85543954D01*
X127968378Y-85423506D01*
X127972005Y-85408251D01*
X127977531Y-85357386D01*
X127977900Y-85350572D01*
X127977900Y-84727115D01*
X127973425Y-84711876D01*
X127972035Y-84710671D01*
X127964352Y-84709000D01*
X126281516Y-84709000D01*
X126266277Y-84713475D01*
X126265072Y-84714865D01*
X126263401Y-84722548D01*
X126263401Y-85350569D01*
X126263771Y-85357390D01*
X126269295Y-85408252D01*
X126272921Y-85423504D01*
X126321228Y-85552362D01*
X126318808Y-85553269D01*
X126331076Y-85609338D01*
X126306344Y-85675888D01*
X126249560Y-85718503D01*
X126205386Y-85726500D01*
X125401164Y-85726500D01*
X125389980Y-85725973D01*
X125382492Y-85724299D01*
X125374569Y-85724548D01*
X125314434Y-85726438D01*
X125310476Y-85726500D01*
X125282545Y-85726500D01*
X125278630Y-85726995D01*
X125278626Y-85726995D01*
X125278568Y-85727003D01*
X125278539Y-85727006D01*
X125266697Y-85727939D01*
X125222511Y-85729327D01*
X125205145Y-85734372D01*
X125203059Y-85734978D01*
X125183707Y-85738986D01*
X125171469Y-85740532D01*
X125171467Y-85740533D01*
X125163604Y-85741526D01*
X125122487Y-85757806D01*
X125111286Y-85761641D01*
X125068807Y-85773982D01*
X125061988Y-85778015D01*
X125061983Y-85778017D01*
X125051372Y-85784293D01*
X125033622Y-85792990D01*
X125014784Y-85800448D01*
X125008368Y-85805109D01*
X125008367Y-85805110D01*
X124979026Y-85826428D01*
X124969102Y-85832947D01*
X124937861Y-85851422D01*
X124937856Y-85851426D01*
X124931038Y-85855458D01*
X124916714Y-85869782D01*
X124901682Y-85882621D01*
X124885294Y-85894528D01*
X124857113Y-85928593D01*
X124849123Y-85937373D01*
X124392748Y-86393748D01*
X124384462Y-86401288D01*
X124377983Y-86405400D01*
X124372558Y-86411177D01*
X124331358Y-86455051D01*
X124328603Y-86457893D01*
X124308866Y-86477630D01*
X124306386Y-86480827D01*
X124298683Y-86489847D01*
X124268415Y-86522079D01*
X124264596Y-86529025D01*
X124264594Y-86529028D01*
X124258653Y-86539834D01*
X124247802Y-86556353D01*
X124235387Y-86572359D01*
X124233083Y-86577683D01*
X124181882Y-86625491D01*
X124125320Y-86638900D01*
X123883665Y-86638900D01*
X123880268Y-86639269D01*
X123837868Y-86643875D01*
X123821483Y-86645655D01*
X123821298Y-86643954D01*
X123794142Y-86645685D01*
X123739687Y-86639769D01*
X123732873Y-86639400D01*
X123706316Y-86639400D01*
X123691077Y-86643875D01*
X123689872Y-86645265D01*
X123687394Y-86656658D01*
X123653370Y-86718971D01*
X123639842Y-86730700D01*
X123568538Y-86784139D01*
X123563157Y-86791319D01*
X123508627Y-86864078D01*
X123451768Y-86906593D01*
X123380949Y-86911619D01*
X123318656Y-86877559D01*
X123284666Y-86815228D01*
X123281801Y-86788513D01*
X123281801Y-86657516D01*
X123277326Y-86642277D01*
X123275936Y-86641072D01*
X123268253Y-86639401D01*
X123237132Y-86639401D01*
X123230311Y-86639771D01*
X123179449Y-86645295D01*
X123164197Y-86648921D01*
X123043747Y-86694076D01*
X123028152Y-86702614D01*
X122926077Y-86779115D01*
X122913516Y-86791676D01*
X122837015Y-86893751D01*
X122828477Y-86909346D01*
X122783323Y-87029794D01*
X122779696Y-87045049D01*
X122774170Y-87095914D01*
X122773801Y-87102728D01*
X122773801Y-87364235D01*
X122778276Y-87379474D01*
X122779666Y-87380679D01*
X122787349Y-87382350D01*
X123281801Y-87382350D01*
X123281801Y-87382903D01*
X123332795Y-87382902D01*
X123392522Y-87421284D01*
X123422016Y-87485865D01*
X123423299Y-87503799D01*
X123423299Y-87666121D01*
X123403297Y-87734242D01*
X123349641Y-87780735D01*
X123279367Y-87790839D01*
X123270519Y-87789242D01*
X123268257Y-87788750D01*
X122791917Y-87788750D01*
X122776678Y-87793225D01*
X122775473Y-87794615D01*
X122773802Y-87802298D01*
X122773802Y-88068369D01*
X122774172Y-88075190D01*
X122779696Y-88126052D01*
X122783322Y-88141304D01*
X122828477Y-88261754D01*
X122837015Y-88277349D01*
X122913516Y-88379424D01*
X122926077Y-88391985D01*
X123028152Y-88468486D01*
X123043747Y-88477024D01*
X123164195Y-88522178D01*
X123179450Y-88525805D01*
X123230315Y-88531331D01*
X123237129Y-88531700D01*
X123263686Y-88531700D01*
X123278925Y-88527225D01*
X123280130Y-88525835D01*
X123281801Y-88518152D01*
X123281801Y-88382587D01*
X123301803Y-88314466D01*
X123355459Y-88267973D01*
X123425733Y-88257869D01*
X123490313Y-88287363D01*
X123508627Y-88307022D01*
X123568538Y-88386961D01*
X123575718Y-88392342D01*
X123575719Y-88392343D01*
X123640767Y-88441094D01*
X123683282Y-88497954D01*
X123686098Y-88506422D01*
X123692675Y-88528823D01*
X123694066Y-88530028D01*
X123701749Y-88531699D01*
X123732870Y-88531699D01*
X123739689Y-88531330D01*
X123794143Y-88525415D01*
X123821301Y-88527122D01*
X123821483Y-88525445D01*
X123875666Y-88531331D01*
X123883665Y-88532200D01*
X124386333Y-88532200D01*
X124389728Y-88531831D01*
X124389732Y-88531831D01*
X124446393Y-88525676D01*
X124473607Y-88525676D01*
X124530268Y-88531831D01*
X124530272Y-88531831D01*
X124533667Y-88532200D01*
X125036335Y-88532200D01*
X125039730Y-88531831D01*
X125039734Y-88531831D01*
X125096393Y-88525676D01*
X125123607Y-88525676D01*
X125180266Y-88531831D01*
X125180270Y-88531831D01*
X125183665Y-88532200D01*
X125686333Y-88532200D01*
X125748515Y-88525445D01*
X125884904Y-88474315D01*
X126001460Y-88386961D01*
X126088814Y-88270405D01*
X126139944Y-88134016D01*
X126146699Y-88071834D01*
X126146699Y-87119500D01*
X126166701Y-87051379D01*
X126220357Y-87004886D01*
X126272699Y-86993500D01*
X127320405Y-86993500D01*
X127388526Y-87013502D01*
X127409501Y-87030405D01*
X127893765Y-87514670D01*
X127927790Y-87576982D01*
X127922651Y-87647995D01*
X127882655Y-87754684D01*
X127875900Y-87816866D01*
X127875900Y-88152530D01*
X127855898Y-88220651D01*
X127841752Y-88238781D01*
X127831357Y-88249851D01*
X127828600Y-88252695D01*
X127808864Y-88272431D01*
X127806384Y-88275628D01*
X127798681Y-88284648D01*
X127768413Y-88316880D01*
X127764594Y-88323826D01*
X127764592Y-88323829D01*
X127758651Y-88334635D01*
X127747800Y-88351154D01*
X127735385Y-88367160D01*
X127732240Y-88374429D01*
X127732237Y-88374433D01*
X127717825Y-88407738D01*
X127712608Y-88418388D01*
X127691304Y-88457141D01*
X127689333Y-88464816D01*
X127689333Y-88464817D01*
X127686266Y-88476763D01*
X127679862Y-88495467D01*
X127671818Y-88514056D01*
X127670579Y-88521879D01*
X127670576Y-88521889D01*
X127664900Y-88557725D01*
X127662494Y-88569345D01*
X127651499Y-88612171D01*
X127651499Y-88632425D01*
X127649948Y-88652135D01*
X127646779Y-88672144D01*
X127647525Y-88680036D01*
X127650940Y-88716162D01*
X127651499Y-88728020D01*
X127651499Y-89273878D01*
X127631497Y-89341999D01*
X127577841Y-89388492D01*
X127507567Y-89398596D01*
X127462497Y-89382996D01*
X127462095Y-89382764D01*
X127456752Y-89378882D01*
X127450724Y-89376198D01*
X127450722Y-89376197D01*
X127288319Y-89303891D01*
X127288318Y-89303891D01*
X127282288Y-89301206D01*
X127177159Y-89278860D01*
X127101944Y-89262872D01*
X127101939Y-89262872D01*
X127095487Y-89261500D01*
X126904513Y-89261500D01*
X126898061Y-89262872D01*
X126898056Y-89262872D01*
X126822841Y-89278860D01*
X126717712Y-89301206D01*
X126711682Y-89303891D01*
X126711681Y-89303891D01*
X126549278Y-89376197D01*
X126549276Y-89376198D01*
X126543248Y-89378882D01*
X126537907Y-89382762D01*
X126537906Y-89382763D01*
X126530021Y-89388492D01*
X126388747Y-89491134D01*
X126384334Y-89496036D01*
X126384332Y-89496037D01*
X126345413Y-89539261D01*
X126284967Y-89576500D01*
X126251777Y-89580950D01*
X126190144Y-89580950D01*
X126122023Y-89560948D01*
X126091156Y-89527840D01*
X126088814Y-89529595D01*
X126006841Y-89420219D01*
X126001460Y-89413039D01*
X125884904Y-89325685D01*
X125748515Y-89274555D01*
X125686333Y-89267800D01*
X125183665Y-89267800D01*
X125180270Y-89268169D01*
X125180266Y-89268169D01*
X125123607Y-89274324D01*
X125096393Y-89274324D01*
X125039734Y-89268169D01*
X125039730Y-89268169D01*
X125036335Y-89267800D01*
X124533667Y-89267800D01*
X124530272Y-89268169D01*
X124530268Y-89268169D01*
X124473607Y-89274324D01*
X124446393Y-89274324D01*
X124389732Y-89268169D01*
X124389728Y-89268169D01*
X124386333Y-89267800D01*
X123883665Y-89267800D01*
X123880270Y-89268169D01*
X123880266Y-89268169D01*
X123823607Y-89274324D01*
X123796393Y-89274324D01*
X123739734Y-89268169D01*
X123739730Y-89268169D01*
X123736335Y-89267800D01*
X123233667Y-89267800D01*
X123171485Y-89274555D01*
X123035096Y-89325685D01*
X122918540Y-89413039D01*
X122831186Y-89529595D01*
X122780056Y-89665984D01*
X122773301Y-89728166D01*
X122773301Y-90700734D01*
X122780056Y-90762916D01*
X122831186Y-90899305D01*
X122836125Y-90905895D01*
X122851501Y-90965995D01*
X122851501Y-91567500D01*
X122831499Y-91635621D01*
X122777843Y-91682114D01*
X122725501Y-91693500D01*
X122684666Y-91693500D01*
X122622484Y-91700255D01*
X122486095Y-91751385D01*
X122369539Y-91838739D01*
X122282185Y-91955295D01*
X122231055Y-92091684D01*
X122224300Y-92153866D01*
X122224300Y-92727606D01*
X122204298Y-92795727D01*
X122187395Y-92816701D01*
X119789500Y-95214595D01*
X119727188Y-95248621D01*
X119700405Y-95251500D01*
X116405270Y-95251500D01*
X116337149Y-95231498D01*
X116299291Y-95189678D01*
X116297540Y-95190751D01*
X116174749Y-94990376D01*
X116172160Y-94986151D01*
X116016318Y-94803682D01*
X115833849Y-94647840D01*
X115629249Y-94522460D01*
X115624679Y-94520567D01*
X115624677Y-94520566D01*
X115412126Y-94432525D01*
X115412124Y-94432524D01*
X115407553Y-94430631D01*
X115325963Y-94411043D01*
X115179035Y-94375768D01*
X115179029Y-94375767D01*
X115174222Y-94374613D01*
X114935000Y-94355786D01*
X114695778Y-94374613D01*
X114690971Y-94375767D01*
X114690965Y-94375768D01*
X114544037Y-94411043D01*
X114462447Y-94430631D01*
X114457876Y-94432524D01*
X114457874Y-94432525D01*
X114245323Y-94520566D01*
X114245321Y-94520567D01*
X114240751Y-94522460D01*
X114036151Y-94647840D01*
X113853682Y-94803682D01*
X113697840Y-94986151D01*
X113572460Y-95190751D01*
X113570567Y-95195321D01*
X113570566Y-95195323D01*
X113495554Y-95376420D01*
X113480631Y-95412447D01*
X113473816Y-95440834D01*
X113425768Y-95640965D01*
X113425767Y-95640971D01*
X113424613Y-95645778D01*
X113405786Y-95885000D01*
X110363500Y-95885000D01*
X110363500Y-92049306D01*
X114055524Y-92049306D01*
X114061251Y-92056956D01*
X114236759Y-92164507D01*
X114245553Y-92168988D01*
X114458029Y-92256998D01*
X114467414Y-92260047D01*
X114691044Y-92313737D01*
X114700791Y-92315280D01*
X114930070Y-92333325D01*
X114939930Y-92333325D01*
X115169209Y-92315280D01*
X115178956Y-92313737D01*
X115402586Y-92260047D01*
X115411971Y-92256998D01*
X115624447Y-92168988D01*
X115633241Y-92164507D01*
X115805083Y-92059203D01*
X115814543Y-92048747D01*
X115810759Y-92039969D01*
X114947812Y-91177022D01*
X114933868Y-91169408D01*
X114932035Y-91169539D01*
X114925420Y-91173790D01*
X114062284Y-92036926D01*
X114055524Y-92049306D01*
X110363500Y-92049306D01*
X110363500Y-90809930D01*
X113406675Y-90809930D01*
X113424720Y-91039209D01*
X113426263Y-91048956D01*
X113479953Y-91272586D01*
X113483002Y-91281971D01*
X113571012Y-91494447D01*
X113575493Y-91503241D01*
X113680797Y-91675083D01*
X113691253Y-91684543D01*
X113700031Y-91680759D01*
X114562978Y-90817812D01*
X114569356Y-90806132D01*
X115299408Y-90806132D01*
X115299539Y-90807965D01*
X115303790Y-90814580D01*
X116166926Y-91677716D01*
X116179306Y-91684476D01*
X116186956Y-91678749D01*
X116294507Y-91503241D01*
X116298988Y-91494447D01*
X116386998Y-91281971D01*
X116390047Y-91272586D01*
X116443737Y-91048956D01*
X116445280Y-91039209D01*
X116463325Y-90809930D01*
X116463325Y-90800070D01*
X116445280Y-90570791D01*
X116443737Y-90561044D01*
X116390047Y-90337414D01*
X116386998Y-90328029D01*
X116298988Y-90115553D01*
X116294507Y-90106759D01*
X116189203Y-89934917D01*
X116178747Y-89925457D01*
X116169969Y-89929241D01*
X115307022Y-90792188D01*
X115299408Y-90806132D01*
X114569356Y-90806132D01*
X114570592Y-90803868D01*
X114570461Y-90802035D01*
X114566210Y-90795420D01*
X113703074Y-89932284D01*
X113690694Y-89925524D01*
X113683044Y-89931251D01*
X113575493Y-90106759D01*
X113571012Y-90115553D01*
X113483002Y-90328029D01*
X113479953Y-90337414D01*
X113426263Y-90561044D01*
X113424720Y-90570791D01*
X113406675Y-90800070D01*
X113406675Y-90809930D01*
X110363500Y-90809930D01*
X110363500Y-89561253D01*
X114055457Y-89561253D01*
X114059241Y-89570031D01*
X114922188Y-90432978D01*
X114936132Y-90440592D01*
X114937965Y-90440461D01*
X114944580Y-90436210D01*
X115807716Y-89573074D01*
X115814476Y-89560694D01*
X115808749Y-89553044D01*
X115633241Y-89445493D01*
X115624447Y-89441012D01*
X115411971Y-89353002D01*
X115402586Y-89349953D01*
X115178956Y-89296263D01*
X115169209Y-89294720D01*
X114939930Y-89276675D01*
X114930070Y-89276675D01*
X114700791Y-89294720D01*
X114691044Y-89296263D01*
X114467414Y-89349953D01*
X114458029Y-89353002D01*
X114245553Y-89441012D01*
X114236759Y-89445493D01*
X114064917Y-89550797D01*
X114055457Y-89561253D01*
X110363500Y-89561253D01*
X110363500Y-86127807D01*
X110383502Y-86059686D01*
X110437158Y-86013193D01*
X110507432Y-86003089D01*
X110572012Y-86032583D01*
X110586584Y-86047491D01*
X110635808Y-86106992D01*
X110856729Y-86314450D01*
X111101910Y-86492584D01*
X111105379Y-86494491D01*
X111105382Y-86494493D01*
X111235627Y-86566096D01*
X111367483Y-86638585D01*
X111371152Y-86640038D01*
X111371157Y-86640040D01*
X111600146Y-86730703D01*
X111649261Y-86750149D01*
X111942800Y-86825516D01*
X112243470Y-86863500D01*
X112546530Y-86863500D01*
X112847200Y-86825516D01*
X113140739Y-86750149D01*
X113189854Y-86730703D01*
X113418843Y-86640040D01*
X113418848Y-86640038D01*
X113422517Y-86638585D01*
X113554373Y-86566096D01*
X113684618Y-86494493D01*
X113684621Y-86494491D01*
X113688090Y-86492584D01*
X113933271Y-86314450D01*
X114154192Y-86106992D01*
X114338779Y-85883865D01*
X114344848Y-85876529D01*
X114344851Y-85876525D01*
X114347370Y-85873480D01*
X114509758Y-85617598D01*
X114604521Y-85416216D01*
X114637105Y-85346971D01*
X114637107Y-85346967D01*
X114638794Y-85343381D01*
X114732445Y-85055154D01*
X114789233Y-84757462D01*
X114808262Y-84455000D01*
X114791142Y-84182885D01*
X126263400Y-84182885D01*
X126267875Y-84198124D01*
X126269265Y-84199329D01*
X126276948Y-84201000D01*
X126848535Y-84201000D01*
X126863774Y-84196525D01*
X126864979Y-84195135D01*
X126866650Y-84187452D01*
X126866650Y-84182885D01*
X127374650Y-84182885D01*
X127379125Y-84198124D01*
X127380515Y-84199329D01*
X127388198Y-84201000D01*
X127959784Y-84201000D01*
X127975023Y-84196525D01*
X127976228Y-84195135D01*
X127977899Y-84187452D01*
X127977899Y-83559431D01*
X127977529Y-83552610D01*
X127972005Y-83501748D01*
X127968379Y-83486496D01*
X127923224Y-83366046D01*
X127914686Y-83350451D01*
X127838185Y-83248376D01*
X127825624Y-83235815D01*
X127723549Y-83159314D01*
X127707954Y-83150776D01*
X127587506Y-83105622D01*
X127572251Y-83101995D01*
X127521386Y-83096469D01*
X127514572Y-83096100D01*
X127392765Y-83096100D01*
X127377526Y-83100575D01*
X127376321Y-83101965D01*
X127374650Y-83109648D01*
X127374650Y-84182885D01*
X126866650Y-84182885D01*
X126866650Y-83114216D01*
X126862175Y-83098977D01*
X126860785Y-83097772D01*
X126853102Y-83096101D01*
X126726731Y-83096101D01*
X126719910Y-83096471D01*
X126669048Y-83101995D01*
X126653796Y-83105621D01*
X126533346Y-83150776D01*
X126517751Y-83159314D01*
X126415676Y-83235815D01*
X126403115Y-83248376D01*
X126326614Y-83350451D01*
X126318076Y-83366046D01*
X126272922Y-83486494D01*
X126269295Y-83501749D01*
X126263769Y-83552614D01*
X126263400Y-83559428D01*
X126263400Y-84182885D01*
X114791142Y-84182885D01*
X114789233Y-84152538D01*
X114732445Y-83854846D01*
X114638794Y-83566619D01*
X114608218Y-83501640D01*
X114544412Y-83366046D01*
X114509758Y-83292402D01*
X114347370Y-83036520D01*
X114154192Y-82803008D01*
X113982043Y-82641350D01*
X113946078Y-82580138D01*
X113948915Y-82509198D01*
X113989656Y-82451054D01*
X114055364Y-82424165D01*
X114068296Y-82423500D01*
X140566704Y-82423500D01*
X140634825Y-82443502D01*
G37*
%TD.AperFunction*%
%TD*%
M02*
