%TF.GenerationSoftware,KiCad,Pcbnew,(6.0.10)*%
%TF.CreationDate,2023-01-28T16:26:22+05:30*%
%TF.ProjectId,protectionCkt,70726f74-6563-4746-996f-6e436b742e6b,rev?*%
%TF.SameCoordinates,Original*%
%TF.FileFunction,Legend,Top*%
%TF.FilePolarity,Positive*%
%FSLAX46Y46*%
G04 Gerber Fmt 4.6, Leading zero omitted, Abs format (unit mm)*
G04 Created by KiCad (PCBNEW (6.0.10)) date 2023-01-28 16:26:22*
%MOMM*%
%LPD*%
G01*
G04 APERTURE LIST*
%ADD10C,0.250000*%
%ADD11C,0.150000*%
%ADD12C,0.120000*%
G04 APERTURE END LIST*
D10*
X115760952Y-84213571D02*
X116094285Y-84213571D01*
X116237142Y-84737380D02*
X115760952Y-84737380D01*
X115760952Y-83737380D01*
X116237142Y-83737380D01*
X116665714Y-84737380D02*
X116665714Y-83737380D01*
X117046666Y-83737380D01*
X117141904Y-83785000D01*
X117189523Y-83832619D01*
X117237142Y-83927857D01*
X117237142Y-84070714D01*
X117189523Y-84165952D01*
X117141904Y-84213571D01*
X117046666Y-84261190D01*
X116665714Y-84261190D01*
X117618095Y-84689761D02*
X117760952Y-84737380D01*
X117999047Y-84737380D01*
X118094285Y-84689761D01*
X118141904Y-84642142D01*
X118189523Y-84546904D01*
X118189523Y-84451666D01*
X118141904Y-84356428D01*
X118094285Y-84308809D01*
X117999047Y-84261190D01*
X117808571Y-84213571D01*
X117713333Y-84165952D01*
X117665714Y-84118333D01*
X117618095Y-84023095D01*
X117618095Y-83927857D01*
X117665714Y-83832619D01*
X117713333Y-83785000D01*
X117808571Y-83737380D01*
X118046666Y-83737380D01*
X118189523Y-83785000D01*
X119380000Y-84737380D02*
X119380000Y-83737380D01*
X119618095Y-83737380D01*
X119760952Y-83785000D01*
X119856190Y-83880238D01*
X119903809Y-83975476D01*
X119951428Y-84165952D01*
X119951428Y-84308809D01*
X119903809Y-84499285D01*
X119856190Y-84594523D01*
X119760952Y-84689761D01*
X119618095Y-84737380D01*
X119380000Y-84737380D01*
X120380000Y-84213571D02*
X120713333Y-84213571D01*
X120856190Y-84737380D02*
X120380000Y-84737380D01*
X120380000Y-83737380D01*
X120856190Y-83737380D01*
X121284761Y-84737380D02*
X121284761Y-83737380D01*
X121618095Y-84451666D01*
X121951428Y-83737380D01*
X121951428Y-84737380D01*
X122618095Y-83737380D02*
X122808571Y-83737380D01*
X122903809Y-83785000D01*
X122999047Y-83880238D01*
X123046666Y-84070714D01*
X123046666Y-84404047D01*
X122999047Y-84594523D01*
X122903809Y-84689761D01*
X122808571Y-84737380D01*
X122618095Y-84737380D01*
X122522857Y-84689761D01*
X122427619Y-84594523D01*
X122380000Y-84404047D01*
X122380000Y-84070714D01*
X122427619Y-83880238D01*
X122522857Y-83785000D01*
X122618095Y-83737380D01*
X116903809Y-86347380D02*
X116427619Y-86347380D01*
X116427619Y-85347380D01*
X117094285Y-85347380D02*
X117665714Y-85347380D01*
X117380000Y-86347380D02*
X117380000Y-85347380D01*
X118570476Y-86252142D02*
X118522857Y-86299761D01*
X118380000Y-86347380D01*
X118284761Y-86347380D01*
X118141904Y-86299761D01*
X118046666Y-86204523D01*
X117999047Y-86109285D01*
X117951428Y-85918809D01*
X117951428Y-85775952D01*
X117999047Y-85585476D01*
X118046666Y-85490238D01*
X118141904Y-85395000D01*
X118284761Y-85347380D01*
X118380000Y-85347380D01*
X118522857Y-85395000D01*
X118570476Y-85442619D01*
X119427619Y-85680714D02*
X119427619Y-86347380D01*
X119189523Y-85299761D02*
X118951428Y-86014047D01*
X119570476Y-86014047D01*
X119856190Y-85347380D02*
X120475238Y-85347380D01*
X120141904Y-85728333D01*
X120284761Y-85728333D01*
X120380000Y-85775952D01*
X120427619Y-85823571D01*
X120475238Y-85918809D01*
X120475238Y-86156904D01*
X120427619Y-86252142D01*
X120380000Y-86299761D01*
X120284761Y-86347380D01*
X119999047Y-86347380D01*
X119903809Y-86299761D01*
X119856190Y-86252142D01*
X121332380Y-85347380D02*
X121141904Y-85347380D01*
X121046666Y-85395000D01*
X120999047Y-85442619D01*
X120903809Y-85585476D01*
X120856190Y-85775952D01*
X120856190Y-86156904D01*
X120903809Y-86252142D01*
X120951428Y-86299761D01*
X121046666Y-86347380D01*
X121237142Y-86347380D01*
X121332380Y-86299761D01*
X121380000Y-86252142D01*
X121427619Y-86156904D01*
X121427619Y-85918809D01*
X121380000Y-85823571D01*
X121332380Y-85775952D01*
X121237142Y-85728333D01*
X121046666Y-85728333D01*
X120951428Y-85775952D01*
X120903809Y-85823571D01*
X120856190Y-85918809D01*
X122380000Y-86347380D02*
X121808571Y-86347380D01*
X122094285Y-86347380D02*
X122094285Y-85347380D01*
X121999047Y-85490238D01*
X121903809Y-85585476D01*
X121808571Y-85633095D01*
D11*
%TO.C,U3*%
X128778095Y-94067380D02*
X128778095Y-94876904D01*
X128825714Y-94972142D01*
X128873333Y-95019761D01*
X128968571Y-95067380D01*
X129159047Y-95067380D01*
X129254285Y-95019761D01*
X129301904Y-94972142D01*
X129349523Y-94876904D01*
X129349523Y-94067380D01*
X129730476Y-94067380D02*
X130349523Y-94067380D01*
X130016190Y-94448333D01*
X130159047Y-94448333D01*
X130254285Y-94495952D01*
X130301904Y-94543571D01*
X130349523Y-94638809D01*
X130349523Y-94876904D01*
X130301904Y-94972142D01*
X130254285Y-95019761D01*
X130159047Y-95067380D01*
X129873333Y-95067380D01*
X129778095Y-95019761D01*
X129730476Y-94972142D01*
X124938780Y-94075250D02*
X125176876Y-94075250D01*
X125081638Y-94313345D02*
X125176876Y-94075250D01*
X125081638Y-93837154D01*
X125367352Y-94218107D02*
X125176876Y-94075250D01*
X125367352Y-93932392D01*
X124938780Y-94075250D02*
X125176876Y-94075250D01*
X125081638Y-94313345D02*
X125176876Y-94075250D01*
X125081638Y-93837154D01*
X125367352Y-94218107D02*
X125176876Y-94075250D01*
X125367352Y-93932392D01*
%TO.C,U5*%
X133223095Y-88352380D02*
X133223095Y-89161904D01*
X133270714Y-89257142D01*
X133318333Y-89304761D01*
X133413571Y-89352380D01*
X133604047Y-89352380D01*
X133699285Y-89304761D01*
X133746904Y-89257142D01*
X133794523Y-89161904D01*
X133794523Y-88352380D01*
X134746904Y-88352380D02*
X134270714Y-88352380D01*
X134223095Y-88828571D01*
X134270714Y-88780952D01*
X134365952Y-88733333D01*
X134604047Y-88733333D01*
X134699285Y-88780952D01*
X134746904Y-88828571D01*
X134794523Y-88923809D01*
X134794523Y-89161904D01*
X134746904Y-89257142D01*
X134699285Y-89304761D01*
X134604047Y-89352380D01*
X134365952Y-89352380D01*
X134270714Y-89304761D01*
X134223095Y-89257142D01*
X139152380Y-95885000D02*
X139390476Y-95885000D01*
X139295238Y-96123095D02*
X139390476Y-95885000D01*
X139295238Y-95646904D01*
X139580952Y-96027857D02*
X139390476Y-95885000D01*
X139580952Y-95742142D01*
%TO.C,R1*%
X121118333Y-93162380D02*
X120785000Y-92686190D01*
X120546904Y-93162380D02*
X120546904Y-92162380D01*
X120927857Y-92162380D01*
X121023095Y-92210000D01*
X121070714Y-92257619D01*
X121118333Y-92352857D01*
X121118333Y-92495714D01*
X121070714Y-92590952D01*
X121023095Y-92638571D01*
X120927857Y-92686190D01*
X120546904Y-92686190D01*
X122070714Y-93162380D02*
X121499285Y-93162380D01*
X121785000Y-93162380D02*
X121785000Y-92162380D01*
X121689761Y-92305238D01*
X121594523Y-92400476D01*
X121499285Y-92448095D01*
X123825000Y-92162380D02*
X123825000Y-92400476D01*
X123586904Y-92305238D02*
X123825000Y-92400476D01*
X124063095Y-92305238D01*
X123682142Y-92590952D02*
X123825000Y-92400476D01*
X123967857Y-92590952D01*
%TO.C,C1*%
X129180883Y-90146142D02*
X129133264Y-90193761D01*
X128990407Y-90241380D01*
X128895169Y-90241380D01*
X128752311Y-90193761D01*
X128657073Y-90098523D01*
X128609454Y-90003285D01*
X128561835Y-89812809D01*
X128561835Y-89669952D01*
X128609454Y-89479476D01*
X128657073Y-89384238D01*
X128752311Y-89289000D01*
X128895169Y-89241380D01*
X128990407Y-89241380D01*
X129133264Y-89289000D01*
X129180883Y-89336619D01*
X130133264Y-90241380D02*
X129561835Y-90241380D01*
X129847550Y-90241380D02*
X129847550Y-89241380D01*
X129752311Y-89384238D01*
X129657073Y-89479476D01*
X129561835Y-89527095D01*
X129540000Y-87717380D02*
X129540000Y-87955476D01*
X129301904Y-87860238D02*
X129540000Y-87955476D01*
X129778095Y-87860238D01*
X129397142Y-88145952D02*
X129540000Y-87955476D01*
X129682857Y-88145952D01*
%TO.C,U1*%
X110998095Y-99147380D02*
X110998095Y-99956904D01*
X111045714Y-100052142D01*
X111093333Y-100099761D01*
X111188571Y-100147380D01*
X111379047Y-100147380D01*
X111474285Y-100099761D01*
X111521904Y-100052142D01*
X111569523Y-99956904D01*
X111569523Y-99147380D01*
X112569523Y-100147380D02*
X111998095Y-100147380D01*
X112283809Y-100147380D02*
X112283809Y-99147380D01*
X112188571Y-99290238D01*
X112093333Y-99385476D01*
X111998095Y-99433095D01*
X114387380Y-95885000D02*
X114625476Y-95885000D01*
X114530238Y-96123095D02*
X114625476Y-95885000D01*
X114530238Y-95646904D01*
X114815952Y-96027857D02*
X114625476Y-95885000D01*
X114815952Y-95742142D01*
%TO.C,LED1*%
X130960952Y-83637380D02*
X130484761Y-83637380D01*
X130484761Y-82637380D01*
X131294285Y-83113571D02*
X131627619Y-83113571D01*
X131770476Y-83637380D02*
X131294285Y-83637380D01*
X131294285Y-82637380D01*
X131770476Y-82637380D01*
X132199047Y-83637380D02*
X132199047Y-82637380D01*
X132437142Y-82637380D01*
X132580000Y-82685000D01*
X132675238Y-82780238D01*
X132722857Y-82875476D01*
X132770476Y-83065952D01*
X132770476Y-83208809D01*
X132722857Y-83399285D01*
X132675238Y-83494523D01*
X132580000Y-83589761D01*
X132437142Y-83637380D01*
X132199047Y-83637380D01*
X133722857Y-83637380D02*
X133151428Y-83637380D01*
X133437142Y-83637380D02*
X133437142Y-82637380D01*
X133341904Y-82780238D01*
X133246666Y-82875476D01*
X133151428Y-82923095D01*
X128270000Y-83907380D02*
X128270000Y-84145476D01*
X128031904Y-84050238D02*
X128270000Y-84145476D01*
X128508095Y-84050238D01*
X128127142Y-84335952D02*
X128270000Y-84145476D01*
X128412857Y-84335952D01*
%TO.C,R2*%
X131278333Y-91257380D02*
X130945000Y-90781190D01*
X130706904Y-91257380D02*
X130706904Y-90257380D01*
X131087857Y-90257380D01*
X131183095Y-90305000D01*
X131230714Y-90352619D01*
X131278333Y-90447857D01*
X131278333Y-90590714D01*
X131230714Y-90685952D01*
X131183095Y-90733571D01*
X131087857Y-90781190D01*
X130706904Y-90781190D01*
X131659285Y-90352619D02*
X131706904Y-90305000D01*
X131802142Y-90257380D01*
X132040238Y-90257380D01*
X132135476Y-90305000D01*
X132183095Y-90352619D01*
X132230714Y-90447857D01*
X132230714Y-90543095D01*
X132183095Y-90685952D01*
X131611666Y-91257380D01*
X132230714Y-91257380D01*
%TO.C,U2*%
X131953095Y-95337380D02*
X131953095Y-96146904D01*
X132000714Y-96242142D01*
X132048333Y-96289761D01*
X132143571Y-96337380D01*
X132334047Y-96337380D01*
X132429285Y-96289761D01*
X132476904Y-96242142D01*
X132524523Y-96146904D01*
X132524523Y-95337380D01*
X132953095Y-95432619D02*
X133000714Y-95385000D01*
X133095952Y-95337380D01*
X133334047Y-95337380D01*
X133429285Y-95385000D01*
X133476904Y-95432619D01*
X133524523Y-95527857D01*
X133524523Y-95623095D01*
X133476904Y-95765952D01*
X132905476Y-96337380D01*
X133524523Y-96337380D01*
X125095000Y-100417380D02*
X125095000Y-100655476D01*
X124856904Y-100560238D02*
X125095000Y-100655476D01*
X125333095Y-100560238D01*
X124952142Y-100845952D02*
X125095000Y-100655476D01*
X125237857Y-100845952D01*
%TO.C,U4*%
X120523095Y-88352380D02*
X120523095Y-89161904D01*
X120570714Y-89257142D01*
X120618333Y-89304761D01*
X120713571Y-89352380D01*
X120904047Y-89352380D01*
X120999285Y-89304761D01*
X121046904Y-89257142D01*
X121094523Y-89161904D01*
X121094523Y-88352380D01*
X121999285Y-88685714D02*
X121999285Y-89352380D01*
X121761190Y-88304761D02*
X121523095Y-89019047D01*
X122142142Y-89019047D01*
X126436780Y-87331550D02*
X126674876Y-87331550D01*
X126579638Y-87569645D02*
X126674876Y-87331550D01*
X126579638Y-87093454D01*
X126865352Y-87474407D02*
X126674876Y-87331550D01*
X126865352Y-87188692D01*
X126436780Y-87331550D02*
X126674876Y-87331550D01*
X126579638Y-87569645D02*
X126674876Y-87331550D01*
X126579638Y-87093454D01*
X126865352Y-87474407D02*
X126674876Y-87331550D01*
X126865352Y-87188692D01*
D12*
%TO.C,U3*%
X126403100Y-91909900D02*
X126403100Y-93510100D01*
X128866900Y-93510100D02*
X128866900Y-91909900D01*
%TO.C,U5*%
X143916400Y-88138000D02*
X135483600Y-88138000D01*
X143916400Y-98552000D02*
X143916400Y-88138000D01*
X135483600Y-88138000D02*
X135483600Y-98552000D01*
X135483600Y-98552000D02*
X143916400Y-98552000D01*
X140081000Y-99187000D02*
G75*
G03*
X140081000Y-99187000I-381000J0D01*
G01*
%TO.C,C1*%
X129347550Y-88792000D02*
X129732450Y-88792000D01*
X129732450Y-87738000D02*
X129347550Y-87738000D01*
%TO.C,U1*%
X119151400Y-98552000D02*
X119151400Y-88138000D01*
X119151400Y-88138000D02*
X110718600Y-88138000D01*
X110718600Y-98552000D02*
X119151400Y-98552000D01*
X110718600Y-88138000D02*
X110718600Y-98552000D01*
X115316000Y-99187000D02*
G75*
G03*
X115316000Y-99187000I-381000J0D01*
G01*
%TO.C,LED1*%
X124739400Y-83820000D02*
X124739400Y-85090000D01*
X127650597Y-85585300D02*
X128889403Y-85585300D01*
X125501400Y-83820000D02*
X125501400Y-85090000D01*
X125755400Y-84455000D02*
X124485400Y-84455000D01*
X124739400Y-84455000D02*
X125501400Y-85090000D01*
X124739400Y-84455000D02*
X125501400Y-84836000D01*
X124739400Y-84455000D02*
X125501400Y-84074000D01*
X124739400Y-84455000D02*
X125501400Y-84963000D01*
X124739400Y-84455000D02*
X125501400Y-84582000D01*
X124739400Y-84455000D02*
X125501400Y-84328000D01*
X124739400Y-84455000D02*
X125501400Y-84201000D01*
X124739400Y-84455000D02*
X125501400Y-84709000D01*
X124739400Y-84455000D02*
X125501400Y-83947000D01*
X124739400Y-84455000D02*
X125501400Y-83820000D01*
X128889403Y-83324700D02*
X127650597Y-83324700D01*
%TO.C,U2*%
X122428000Y-105181400D02*
X132842000Y-105181400D01*
X132842000Y-96748600D02*
X122428000Y-96748600D01*
X132842000Y-105181400D02*
X132842000Y-96748600D01*
X122428000Y-96748600D02*
X122428000Y-105181400D01*
X122174000Y-100965000D02*
G75*
G03*
X122174000Y-100965000I-381000J0D01*
G01*
%TO.C,U4*%
X126034800Y-89903300D02*
X126034800Y-87896700D01*
X122885200Y-87896700D02*
X122885200Y-89903300D01*
%TD*%
M02*
