%TF.GenerationSoftware,KiCad,Pcbnew,(6.0.10)*%
%TF.CreationDate,2023-01-28T16:26:22+05:30*%
%TF.ProjectId,protectionCkt,70726f74-6563-4746-996f-6e436b742e6b,rev?*%
%TF.SameCoordinates,Original*%
%TF.FileFunction,Copper,L2,Bot*%
%TF.FilePolarity,Positive*%
%FSLAX46Y46*%
G04 Gerber Fmt 4.6, Leading zero omitted, Abs format (unit mm)*
G04 Created by KiCad (PCBNEW (6.0.10)) date 2023-01-28 16:26:22*
%MOMM*%
%LPD*%
G01*
G04 APERTURE LIST*
%TA.AperFunction,ComponentPad*%
%ADD10C,3.800000*%
%TD*%
%TA.AperFunction,ComponentPad*%
%ADD11C,2.032000*%
%TD*%
%TA.AperFunction,ViaPad*%
%ADD12C,0.800000*%
%TD*%
%TA.AperFunction,Conductor*%
%ADD13C,0.250000*%
%TD*%
G04 APERTURE END LIST*
D10*
%TO.P,REF\u002A\u002A,1*%
%TO.N,N/C*%
X112395000Y-84455000D03*
%TD*%
%TO.P,REF\u002A\u002A,1*%
%TO.N,N/C*%
X142240000Y-103505000D03*
%TD*%
D11*
%TO.P,U5,1,1*%
%TO.N,Net-(C1-Pad2)*%
X139700000Y-95885000D03*
%TO.P,U5,2,2*%
%TO.N,GND*%
X139700000Y-90805000D03*
%TD*%
%TO.P,U1,1,1*%
%TO.N,VCC*%
X114935000Y-95885000D03*
%TO.P,U1,2,2*%
%TO.N,GND*%
X114935000Y-90805000D03*
%TD*%
D10*
%TO.P,REF\u002A\u002A,1*%
%TO.N,N/C*%
X112395000Y-103505000D03*
%TD*%
D11*
%TO.P,U2,1,1*%
%TO.N,Net-(U2-Pad1)*%
X125095000Y-100965000D03*
%TO.P,U2,2,2*%
%TO.N,unconnected-(U2-Pad2)*%
X130175000Y-100965000D03*
%TD*%
D10*
%TO.P,REF\u002A\u002A,1*%
%TO.N,N/C*%
X142240000Y-84455000D03*
%TD*%
D12*
%TO.N,Net-(U2-Pad1)*%
X127000000Y-90170000D03*
X131445000Y-95885000D03*
%TO.N,Net-(U3-Pad3)*%
X125730000Y-95250000D03*
X125095000Y-91440000D03*
%TD*%
D13*
%TO.N,Net-(U2-Pad1)*%
X127000000Y-90170000D02*
X128905000Y-90170000D01*
X128905000Y-90170000D02*
X131445000Y-92710000D01*
X131445000Y-92710000D02*
X131445000Y-95885000D01*
%TO.N,Net-(U3-Pad3)*%
X125730000Y-92075000D02*
X125730000Y-95250000D01*
X125095000Y-91440000D02*
X125730000Y-92075000D01*
%TD*%
%TA.AperFunction,Conductor*%
%TO.N,GND*%
G36*
X140634825Y-82443502D02*
G01*
X140681318Y-82497158D01*
X140691422Y-82567432D01*
X140661928Y-82632012D01*
X140652959Y-82641348D01*
X140480808Y-82803008D01*
X140287630Y-83036520D01*
X140125242Y-83292402D01*
X139996206Y-83566619D01*
X139902555Y-83854846D01*
X139845767Y-84152538D01*
X139826738Y-84455000D01*
X139845767Y-84757462D01*
X139902555Y-85055154D01*
X139996206Y-85343381D01*
X140125242Y-85617598D01*
X140287630Y-85873480D01*
X140480808Y-86106992D01*
X140701729Y-86314450D01*
X140946910Y-86492584D01*
X141212483Y-86638585D01*
X141216152Y-86640038D01*
X141216157Y-86640040D01*
X141490591Y-86748696D01*
X141494261Y-86750149D01*
X141787800Y-86825516D01*
X142088470Y-86863500D01*
X142391530Y-86863500D01*
X142692200Y-86825516D01*
X142985739Y-86750149D01*
X142989409Y-86748696D01*
X143263843Y-86640040D01*
X143263848Y-86640038D01*
X143267517Y-86638585D01*
X143533090Y-86492584D01*
X143778271Y-86314450D01*
X143999192Y-86106992D01*
X144048416Y-86047491D01*
X144107249Y-86007753D01*
X144178227Y-86006132D01*
X144238815Y-86043141D01*
X144269775Y-86107031D01*
X144271500Y-86127807D01*
X144271500Y-101832193D01*
X144251498Y-101900314D01*
X144197842Y-101946807D01*
X144127568Y-101956911D01*
X144062988Y-101927417D01*
X144048416Y-101912509D01*
X144001718Y-101856061D01*
X144001715Y-101856058D01*
X143999192Y-101853008D01*
X143778271Y-101645550D01*
X143533090Y-101467416D01*
X143267517Y-101321415D01*
X143263848Y-101319962D01*
X143263843Y-101319960D01*
X142989409Y-101211304D01*
X142989408Y-101211304D01*
X142985739Y-101209851D01*
X142692200Y-101134484D01*
X142391530Y-101096500D01*
X142088470Y-101096500D01*
X141787800Y-101134484D01*
X141494261Y-101209851D01*
X141490592Y-101211304D01*
X141490591Y-101211304D01*
X141216157Y-101319960D01*
X141216152Y-101319962D01*
X141212483Y-101321415D01*
X140946910Y-101467416D01*
X140701729Y-101645550D01*
X140480808Y-101853008D01*
X140287630Y-102086520D01*
X140125242Y-102342402D01*
X139996206Y-102616619D01*
X139902555Y-102904846D01*
X139845767Y-103202538D01*
X139826738Y-103505000D01*
X139845767Y-103807462D01*
X139902555Y-104105154D01*
X139996206Y-104393381D01*
X140125242Y-104667598D01*
X140287630Y-104923480D01*
X140480808Y-105156992D01*
X140483695Y-105159703D01*
X140652957Y-105318650D01*
X140688922Y-105379862D01*
X140686085Y-105450802D01*
X140645344Y-105508946D01*
X140579636Y-105535835D01*
X140566704Y-105536500D01*
X114068296Y-105536500D01*
X114000175Y-105516498D01*
X113953682Y-105462842D01*
X113943578Y-105392568D01*
X113973072Y-105327988D01*
X113982043Y-105318650D01*
X114151305Y-105159703D01*
X114154192Y-105156992D01*
X114347370Y-104923480D01*
X114509758Y-104667598D01*
X114638794Y-104393381D01*
X114732445Y-104105154D01*
X114789233Y-103807462D01*
X114808262Y-103505000D01*
X114789233Y-103202538D01*
X114732445Y-102904846D01*
X114638794Y-102616619D01*
X114509758Y-102342402D01*
X114347370Y-102086520D01*
X114154192Y-101853008D01*
X113933271Y-101645550D01*
X113688090Y-101467416D01*
X113422517Y-101321415D01*
X113418848Y-101319962D01*
X113418843Y-101319960D01*
X113144409Y-101211304D01*
X113144408Y-101211304D01*
X113140739Y-101209851D01*
X112847200Y-101134484D01*
X112546530Y-101096500D01*
X112243470Y-101096500D01*
X111942800Y-101134484D01*
X111649261Y-101209851D01*
X111645592Y-101211304D01*
X111645591Y-101211304D01*
X111371157Y-101319960D01*
X111371152Y-101319962D01*
X111367483Y-101321415D01*
X111101910Y-101467416D01*
X110856729Y-101645550D01*
X110635808Y-101853008D01*
X110633285Y-101856058D01*
X110633282Y-101856061D01*
X110586584Y-101912509D01*
X110527751Y-101952247D01*
X110456773Y-101953868D01*
X110396185Y-101916859D01*
X110365225Y-101852969D01*
X110363500Y-101832193D01*
X110363500Y-100965000D01*
X123565786Y-100965000D01*
X123584613Y-101204222D01*
X123585767Y-101209029D01*
X123585768Y-101209035D01*
X123585964Y-101209851D01*
X123640631Y-101437553D01*
X123642524Y-101442124D01*
X123642525Y-101442126D01*
X123727909Y-101648261D01*
X123732460Y-101659249D01*
X123857840Y-101863849D01*
X124013682Y-102046318D01*
X124196151Y-102202160D01*
X124400751Y-102327540D01*
X124405321Y-102329433D01*
X124405323Y-102329434D01*
X124617874Y-102417475D01*
X124622447Y-102419369D01*
X124704037Y-102438957D01*
X124850965Y-102474232D01*
X124850971Y-102474233D01*
X124855778Y-102475387D01*
X125095000Y-102494214D01*
X125334222Y-102475387D01*
X125339029Y-102474233D01*
X125339035Y-102474232D01*
X125485963Y-102438957D01*
X125567553Y-102419369D01*
X125572126Y-102417475D01*
X125784677Y-102329434D01*
X125784679Y-102329433D01*
X125789249Y-102327540D01*
X125993849Y-102202160D01*
X126176318Y-102046318D01*
X126332160Y-101863849D01*
X126457540Y-101659249D01*
X126462092Y-101648261D01*
X126547475Y-101442126D01*
X126547476Y-101442124D01*
X126549369Y-101437553D01*
X126604036Y-101209851D01*
X126604232Y-101209035D01*
X126604233Y-101209029D01*
X126605387Y-101204222D01*
X126624214Y-100965000D01*
X128645786Y-100965000D01*
X128664613Y-101204222D01*
X128665767Y-101209029D01*
X128665768Y-101209035D01*
X128665964Y-101209851D01*
X128720631Y-101437553D01*
X128722524Y-101442124D01*
X128722525Y-101442126D01*
X128807909Y-101648261D01*
X128812460Y-101659249D01*
X128937840Y-101863849D01*
X129093682Y-102046318D01*
X129276151Y-102202160D01*
X129480751Y-102327540D01*
X129485321Y-102329433D01*
X129485323Y-102329434D01*
X129697874Y-102417475D01*
X129702447Y-102419369D01*
X129784037Y-102438957D01*
X129930965Y-102474232D01*
X129930971Y-102474233D01*
X129935778Y-102475387D01*
X130175000Y-102494214D01*
X130414222Y-102475387D01*
X130419029Y-102474233D01*
X130419035Y-102474232D01*
X130565963Y-102438957D01*
X130647553Y-102419369D01*
X130652126Y-102417475D01*
X130864677Y-102329434D01*
X130864679Y-102329433D01*
X130869249Y-102327540D01*
X131073849Y-102202160D01*
X131256318Y-102046318D01*
X131412160Y-101863849D01*
X131537540Y-101659249D01*
X131542092Y-101648261D01*
X131627475Y-101442126D01*
X131627476Y-101442124D01*
X131629369Y-101437553D01*
X131684036Y-101209851D01*
X131684232Y-101209035D01*
X131684233Y-101209029D01*
X131685387Y-101204222D01*
X131704214Y-100965000D01*
X131685387Y-100725778D01*
X131684233Y-100720971D01*
X131684232Y-100720965D01*
X131630524Y-100497259D01*
X131629369Y-100492447D01*
X131537540Y-100270751D01*
X131412160Y-100066151D01*
X131256318Y-99883682D01*
X131073849Y-99727840D01*
X130869249Y-99602460D01*
X130864679Y-99600567D01*
X130864677Y-99600566D01*
X130652126Y-99512525D01*
X130652124Y-99512524D01*
X130647553Y-99510631D01*
X130565963Y-99491043D01*
X130419035Y-99455768D01*
X130419029Y-99455767D01*
X130414222Y-99454613D01*
X130175000Y-99435786D01*
X129935778Y-99454613D01*
X129930971Y-99455767D01*
X129930965Y-99455768D01*
X129784037Y-99491043D01*
X129702447Y-99510631D01*
X129697876Y-99512524D01*
X129697874Y-99512525D01*
X129485323Y-99600566D01*
X129485321Y-99600567D01*
X129480751Y-99602460D01*
X129276151Y-99727840D01*
X129093682Y-99883682D01*
X128937840Y-100066151D01*
X128812460Y-100270751D01*
X128720631Y-100492447D01*
X128719476Y-100497259D01*
X128665768Y-100720965D01*
X128665767Y-100720971D01*
X128664613Y-100725778D01*
X128645786Y-100965000D01*
X126624214Y-100965000D01*
X126605387Y-100725778D01*
X126604233Y-100720971D01*
X126604232Y-100720965D01*
X126550524Y-100497259D01*
X126549369Y-100492447D01*
X126457540Y-100270751D01*
X126332160Y-100066151D01*
X126176318Y-99883682D01*
X125993849Y-99727840D01*
X125789249Y-99602460D01*
X125784679Y-99600567D01*
X125784677Y-99600566D01*
X125572126Y-99512525D01*
X125572124Y-99512524D01*
X125567553Y-99510631D01*
X125485963Y-99491043D01*
X125339035Y-99455768D01*
X125339029Y-99455767D01*
X125334222Y-99454613D01*
X125095000Y-99435786D01*
X124855778Y-99454613D01*
X124850971Y-99455767D01*
X124850965Y-99455768D01*
X124704037Y-99491043D01*
X124622447Y-99510631D01*
X124617876Y-99512524D01*
X124617874Y-99512525D01*
X124405323Y-99600566D01*
X124405321Y-99600567D01*
X124400751Y-99602460D01*
X124196151Y-99727840D01*
X124013682Y-99883682D01*
X123857840Y-100066151D01*
X123732460Y-100270751D01*
X123640631Y-100492447D01*
X123639476Y-100497259D01*
X123585768Y-100720965D01*
X123585767Y-100720971D01*
X123584613Y-100725778D01*
X123565786Y-100965000D01*
X110363500Y-100965000D01*
X110363500Y-95885000D01*
X113405786Y-95885000D01*
X113424613Y-96124222D01*
X113425767Y-96129029D01*
X113425768Y-96129035D01*
X113432513Y-96157128D01*
X113480631Y-96357553D01*
X113482524Y-96362124D01*
X113482525Y-96362126D01*
X113567697Y-96567749D01*
X113572460Y-96579249D01*
X113697840Y-96783849D01*
X113853682Y-96966318D01*
X114036151Y-97122160D01*
X114240751Y-97247540D01*
X114245321Y-97249433D01*
X114245323Y-97249434D01*
X114457874Y-97337475D01*
X114462447Y-97339369D01*
X114544037Y-97358957D01*
X114690965Y-97394232D01*
X114690971Y-97394233D01*
X114695778Y-97395387D01*
X114935000Y-97414214D01*
X115174222Y-97395387D01*
X115179029Y-97394233D01*
X115179035Y-97394232D01*
X115325963Y-97358957D01*
X115407553Y-97339369D01*
X115412126Y-97337475D01*
X115624677Y-97249434D01*
X115624679Y-97249433D01*
X115629249Y-97247540D01*
X115833849Y-97122160D01*
X116016318Y-96966318D01*
X116172160Y-96783849D01*
X116297540Y-96579249D01*
X116302304Y-96567749D01*
X116387475Y-96362126D01*
X116387476Y-96362124D01*
X116389369Y-96357553D01*
X116437487Y-96157128D01*
X116444232Y-96129035D01*
X116444233Y-96129029D01*
X116445387Y-96124222D01*
X116464214Y-95885000D01*
X116445387Y-95645778D01*
X116444233Y-95640971D01*
X116444232Y-95640965D01*
X116397474Y-95446206D01*
X116389369Y-95412447D01*
X116322082Y-95250000D01*
X116299434Y-95195323D01*
X116299433Y-95195321D01*
X116297540Y-95190751D01*
X116172160Y-94986151D01*
X116016318Y-94803682D01*
X115833849Y-94647840D01*
X115629249Y-94522460D01*
X115624679Y-94520567D01*
X115624677Y-94520566D01*
X115412126Y-94432525D01*
X115412124Y-94432524D01*
X115407553Y-94430631D01*
X115325963Y-94411043D01*
X115179035Y-94375768D01*
X115179029Y-94375767D01*
X115174222Y-94374613D01*
X114935000Y-94355786D01*
X114695778Y-94374613D01*
X114690971Y-94375767D01*
X114690965Y-94375768D01*
X114544037Y-94411043D01*
X114462447Y-94430631D01*
X114457876Y-94432524D01*
X114457874Y-94432525D01*
X114245323Y-94520566D01*
X114245321Y-94520567D01*
X114240751Y-94522460D01*
X114036151Y-94647840D01*
X113853682Y-94803682D01*
X113697840Y-94986151D01*
X113572460Y-95190751D01*
X113570567Y-95195321D01*
X113570566Y-95195323D01*
X113547918Y-95250000D01*
X113480631Y-95412447D01*
X113472526Y-95446206D01*
X113425768Y-95640965D01*
X113425767Y-95640971D01*
X113424613Y-95645778D01*
X113405786Y-95885000D01*
X110363500Y-95885000D01*
X110363500Y-92049306D01*
X114055524Y-92049306D01*
X114061251Y-92056956D01*
X114236759Y-92164507D01*
X114245553Y-92168988D01*
X114458029Y-92256998D01*
X114467414Y-92260047D01*
X114691044Y-92313737D01*
X114700791Y-92315280D01*
X114930070Y-92333325D01*
X114939930Y-92333325D01*
X115169209Y-92315280D01*
X115178956Y-92313737D01*
X115402586Y-92260047D01*
X115411971Y-92256998D01*
X115624447Y-92168988D01*
X115633241Y-92164507D01*
X115805083Y-92059203D01*
X115814543Y-92048747D01*
X115810759Y-92039969D01*
X114947812Y-91177022D01*
X114933868Y-91169408D01*
X114932035Y-91169539D01*
X114925420Y-91173790D01*
X114062284Y-92036926D01*
X114055524Y-92049306D01*
X110363500Y-92049306D01*
X110363500Y-90809930D01*
X113406675Y-90809930D01*
X113424720Y-91039209D01*
X113426263Y-91048956D01*
X113479953Y-91272586D01*
X113483002Y-91281971D01*
X113571012Y-91494447D01*
X113575493Y-91503241D01*
X113680797Y-91675083D01*
X113691253Y-91684543D01*
X113700031Y-91680759D01*
X114562978Y-90817812D01*
X114569356Y-90806132D01*
X115299408Y-90806132D01*
X115299539Y-90807965D01*
X115303790Y-90814580D01*
X116166926Y-91677716D01*
X116179306Y-91684476D01*
X116186956Y-91678749D01*
X116294507Y-91503241D01*
X116298988Y-91494447D01*
X116321541Y-91440000D01*
X124181496Y-91440000D01*
X124182186Y-91446565D01*
X124187219Y-91494447D01*
X124201458Y-91629928D01*
X124260473Y-91811556D01*
X124355960Y-91976944D01*
X124360378Y-91981851D01*
X124360379Y-91981852D01*
X124421115Y-92049306D01*
X124483747Y-92118866D01*
X124638248Y-92231118D01*
X124644276Y-92233802D01*
X124644278Y-92233803D01*
X124802647Y-92304313D01*
X124812712Y-92308794D01*
X124996698Y-92347902D01*
X125059170Y-92381629D01*
X125093492Y-92443779D01*
X125096500Y-92471148D01*
X125096500Y-94547476D01*
X125076498Y-94615597D01*
X125064142Y-94631779D01*
X124990960Y-94713056D01*
X124895473Y-94878444D01*
X124836458Y-95060072D01*
X124816496Y-95250000D01*
X124817186Y-95256565D01*
X124833570Y-95412447D01*
X124836458Y-95439928D01*
X124895473Y-95621556D01*
X124898776Y-95627278D01*
X124898777Y-95627279D01*
X124912306Y-95650712D01*
X124990960Y-95786944D01*
X125118747Y-95928866D01*
X125273248Y-96041118D01*
X125279276Y-96043802D01*
X125279278Y-96043803D01*
X125441681Y-96116109D01*
X125447712Y-96118794D01*
X125541112Y-96138647D01*
X125628056Y-96157128D01*
X125628061Y-96157128D01*
X125634513Y-96158500D01*
X125825487Y-96158500D01*
X125831939Y-96157128D01*
X125831944Y-96157128D01*
X125918887Y-96138647D01*
X126012288Y-96118794D01*
X126018319Y-96116109D01*
X126180722Y-96043803D01*
X126180724Y-96043802D01*
X126186752Y-96041118D01*
X126341253Y-95928866D01*
X126469040Y-95786944D01*
X126547694Y-95650712D01*
X126561223Y-95627279D01*
X126561224Y-95627278D01*
X126564527Y-95621556D01*
X126623542Y-95439928D01*
X126626431Y-95412447D01*
X126642814Y-95256565D01*
X126643504Y-95250000D01*
X126623542Y-95060072D01*
X126564527Y-94878444D01*
X126469040Y-94713056D01*
X126395863Y-94631785D01*
X126365147Y-94567779D01*
X126363500Y-94547476D01*
X126363500Y-92153768D01*
X126364027Y-92142585D01*
X126365702Y-92135092D01*
X126363562Y-92067001D01*
X126363500Y-92063044D01*
X126363500Y-92035144D01*
X126362996Y-92031153D01*
X126362063Y-92019311D01*
X126360923Y-91983036D01*
X126360674Y-91975111D01*
X126355021Y-91955652D01*
X126351012Y-91936293D01*
X126350846Y-91934983D01*
X126348474Y-91916203D01*
X126345558Y-91908837D01*
X126345556Y-91908831D01*
X126332200Y-91875098D01*
X126328355Y-91863868D01*
X126318230Y-91829017D01*
X126318230Y-91829016D01*
X126316019Y-91821407D01*
X126305705Y-91803966D01*
X126297008Y-91786213D01*
X126292472Y-91774758D01*
X126289552Y-91767383D01*
X126263563Y-91731612D01*
X126257047Y-91721692D01*
X126238578Y-91690463D01*
X126234542Y-91683638D01*
X126220221Y-91669317D01*
X126207380Y-91654283D01*
X126200132Y-91644307D01*
X126195472Y-91637893D01*
X126161401Y-91609707D01*
X126152622Y-91601718D01*
X126042122Y-91491218D01*
X126008096Y-91428906D01*
X126005907Y-91415293D01*
X125989232Y-91256635D01*
X125989232Y-91256633D01*
X125988542Y-91250072D01*
X125929527Y-91068444D01*
X125834040Y-90903056D01*
X125788744Y-90852749D01*
X125710675Y-90766045D01*
X125710674Y-90766044D01*
X125706253Y-90761134D01*
X125551752Y-90648882D01*
X125545724Y-90646198D01*
X125545722Y-90646197D01*
X125383319Y-90573891D01*
X125383318Y-90573891D01*
X125377288Y-90571206D01*
X125264721Y-90547279D01*
X125196944Y-90532872D01*
X125196939Y-90532872D01*
X125190487Y-90531500D01*
X124999513Y-90531500D01*
X124993061Y-90532872D01*
X124993056Y-90532872D01*
X124925279Y-90547279D01*
X124812712Y-90571206D01*
X124806682Y-90573891D01*
X124806681Y-90573891D01*
X124644278Y-90646197D01*
X124644276Y-90646198D01*
X124638248Y-90648882D01*
X124483747Y-90761134D01*
X124479326Y-90766044D01*
X124479325Y-90766045D01*
X124401257Y-90852749D01*
X124355960Y-90903056D01*
X124260473Y-91068444D01*
X124201458Y-91250072D01*
X124181496Y-91440000D01*
X116321541Y-91440000D01*
X116386998Y-91281971D01*
X116390047Y-91272586D01*
X116443737Y-91048956D01*
X116445280Y-91039209D01*
X116463325Y-90809930D01*
X116463325Y-90800070D01*
X116445280Y-90570791D01*
X116443737Y-90561044D01*
X116390047Y-90337414D01*
X116386998Y-90328029D01*
X116321541Y-90170000D01*
X126086496Y-90170000D01*
X126106458Y-90359928D01*
X126165473Y-90541556D01*
X126260960Y-90706944D01*
X126265378Y-90711851D01*
X126265379Y-90711852D01*
X126353689Y-90809930D01*
X126388747Y-90848866D01*
X126543248Y-90961118D01*
X126549276Y-90963802D01*
X126549278Y-90963803D01*
X126711681Y-91036109D01*
X126717712Y-91038794D01*
X126811113Y-91058647D01*
X126898056Y-91077128D01*
X126898061Y-91077128D01*
X126904513Y-91078500D01*
X127095487Y-91078500D01*
X127101939Y-91077128D01*
X127101944Y-91077128D01*
X127188888Y-91058647D01*
X127282288Y-91038794D01*
X127288319Y-91036109D01*
X127450722Y-90963803D01*
X127450724Y-90963802D01*
X127456752Y-90961118D01*
X127543423Y-90898148D01*
X127589671Y-90864546D01*
X127611253Y-90848866D01*
X127615668Y-90843963D01*
X127620580Y-90839540D01*
X127621705Y-90840789D01*
X127675014Y-90807949D01*
X127708200Y-90803500D01*
X128590406Y-90803500D01*
X128658527Y-90823502D01*
X128679501Y-90840405D01*
X130774595Y-92935499D01*
X130808621Y-92997811D01*
X130811500Y-93024594D01*
X130811500Y-95182476D01*
X130791498Y-95250597D01*
X130779142Y-95266779D01*
X130705960Y-95348056D01*
X130610473Y-95513444D01*
X130551458Y-95695072D01*
X130531496Y-95885000D01*
X130532186Y-95891565D01*
X130548187Y-96043803D01*
X130551458Y-96074928D01*
X130610473Y-96256556D01*
X130705960Y-96421944D01*
X130833747Y-96563866D01*
X130988248Y-96676118D01*
X130994276Y-96678802D01*
X130994278Y-96678803D01*
X131156681Y-96751109D01*
X131162712Y-96753794D01*
X131256112Y-96773647D01*
X131343056Y-96792128D01*
X131343061Y-96792128D01*
X131349513Y-96793500D01*
X131540487Y-96793500D01*
X131546939Y-96792128D01*
X131546944Y-96792128D01*
X131633888Y-96773647D01*
X131727288Y-96753794D01*
X131733319Y-96751109D01*
X131895722Y-96678803D01*
X131895724Y-96678802D01*
X131901752Y-96676118D01*
X132056253Y-96563866D01*
X132184040Y-96421944D01*
X132279527Y-96256556D01*
X132338542Y-96074928D01*
X132341814Y-96043803D01*
X132357814Y-95891565D01*
X132358504Y-95885000D01*
X138170786Y-95885000D01*
X138189613Y-96124222D01*
X138190767Y-96129029D01*
X138190768Y-96129035D01*
X138197513Y-96157128D01*
X138245631Y-96357553D01*
X138247524Y-96362124D01*
X138247525Y-96362126D01*
X138332697Y-96567749D01*
X138337460Y-96579249D01*
X138462840Y-96783849D01*
X138618682Y-96966318D01*
X138801151Y-97122160D01*
X139005751Y-97247540D01*
X139010321Y-97249433D01*
X139010323Y-97249434D01*
X139222874Y-97337475D01*
X139227447Y-97339369D01*
X139309037Y-97358957D01*
X139455965Y-97394232D01*
X139455971Y-97394233D01*
X139460778Y-97395387D01*
X139700000Y-97414214D01*
X139939222Y-97395387D01*
X139944029Y-97394233D01*
X139944035Y-97394232D01*
X140090963Y-97358957D01*
X140172553Y-97339369D01*
X140177126Y-97337475D01*
X140389677Y-97249434D01*
X140389679Y-97249433D01*
X140394249Y-97247540D01*
X140598849Y-97122160D01*
X140781318Y-96966318D01*
X140937160Y-96783849D01*
X141062540Y-96579249D01*
X141067304Y-96567749D01*
X141152475Y-96362126D01*
X141152476Y-96362124D01*
X141154369Y-96357553D01*
X141202487Y-96157128D01*
X141209232Y-96129035D01*
X141209233Y-96129029D01*
X141210387Y-96124222D01*
X141229214Y-95885000D01*
X141210387Y-95645778D01*
X141209233Y-95640971D01*
X141209232Y-95640965D01*
X141162474Y-95446206D01*
X141154369Y-95412447D01*
X141087082Y-95250000D01*
X141064434Y-95195323D01*
X141064433Y-95195321D01*
X141062540Y-95190751D01*
X140937160Y-94986151D01*
X140781318Y-94803682D01*
X140598849Y-94647840D01*
X140394249Y-94522460D01*
X140389679Y-94520567D01*
X140389677Y-94520566D01*
X140177126Y-94432525D01*
X140177124Y-94432524D01*
X140172553Y-94430631D01*
X140090963Y-94411043D01*
X139944035Y-94375768D01*
X139944029Y-94375767D01*
X139939222Y-94374613D01*
X139700000Y-94355786D01*
X139460778Y-94374613D01*
X139455971Y-94375767D01*
X139455965Y-94375768D01*
X139309037Y-94411043D01*
X139227447Y-94430631D01*
X139222876Y-94432524D01*
X139222874Y-94432525D01*
X139010323Y-94520566D01*
X139010321Y-94520567D01*
X139005751Y-94522460D01*
X138801151Y-94647840D01*
X138618682Y-94803682D01*
X138462840Y-94986151D01*
X138337460Y-95190751D01*
X138335567Y-95195321D01*
X138335566Y-95195323D01*
X138312918Y-95250000D01*
X138245631Y-95412447D01*
X138237526Y-95446206D01*
X138190768Y-95640965D01*
X138190767Y-95640971D01*
X138189613Y-95645778D01*
X138170786Y-95885000D01*
X132358504Y-95885000D01*
X132338542Y-95695072D01*
X132279527Y-95513444D01*
X132184040Y-95348056D01*
X132110863Y-95266785D01*
X132080147Y-95202779D01*
X132078500Y-95182476D01*
X132078500Y-92788763D01*
X132079027Y-92777579D01*
X132080701Y-92770091D01*
X132078562Y-92702032D01*
X132078500Y-92698075D01*
X132078500Y-92670144D01*
X132077994Y-92666138D01*
X132077061Y-92654292D01*
X132075922Y-92618037D01*
X132075673Y-92610110D01*
X132070022Y-92590658D01*
X132066014Y-92571306D01*
X132064468Y-92559068D01*
X132064467Y-92559066D01*
X132063474Y-92551203D01*
X132047194Y-92510086D01*
X132043359Y-92498885D01*
X132031018Y-92456406D01*
X132026985Y-92449587D01*
X132026983Y-92449582D01*
X132020707Y-92438971D01*
X132012010Y-92421221D01*
X132004552Y-92402383D01*
X131978571Y-92366623D01*
X131972053Y-92356701D01*
X131953578Y-92325460D01*
X131953574Y-92325455D01*
X131949542Y-92318637D01*
X131935218Y-92304313D01*
X131922376Y-92289278D01*
X131910472Y-92272893D01*
X131876406Y-92244711D01*
X131867627Y-92236722D01*
X131680211Y-92049306D01*
X138820524Y-92049306D01*
X138826251Y-92056956D01*
X139001759Y-92164507D01*
X139010553Y-92168988D01*
X139223029Y-92256998D01*
X139232414Y-92260047D01*
X139456044Y-92313737D01*
X139465791Y-92315280D01*
X139695070Y-92333325D01*
X139704930Y-92333325D01*
X139934209Y-92315280D01*
X139943956Y-92313737D01*
X140167586Y-92260047D01*
X140176971Y-92256998D01*
X140389447Y-92168988D01*
X140398241Y-92164507D01*
X140570083Y-92059203D01*
X140579543Y-92048747D01*
X140575759Y-92039969D01*
X139712812Y-91177022D01*
X139698868Y-91169408D01*
X139697035Y-91169539D01*
X139690420Y-91173790D01*
X138827284Y-92036926D01*
X138820524Y-92049306D01*
X131680211Y-92049306D01*
X130440835Y-90809930D01*
X138171675Y-90809930D01*
X138189720Y-91039209D01*
X138191263Y-91048956D01*
X138244953Y-91272586D01*
X138248002Y-91281971D01*
X138336012Y-91494447D01*
X138340493Y-91503241D01*
X138445797Y-91675083D01*
X138456253Y-91684543D01*
X138465031Y-91680759D01*
X139327978Y-90817812D01*
X139334356Y-90806132D01*
X140064408Y-90806132D01*
X140064539Y-90807965D01*
X140068790Y-90814580D01*
X140931926Y-91677716D01*
X140944306Y-91684476D01*
X140951956Y-91678749D01*
X141059507Y-91503241D01*
X141063988Y-91494447D01*
X141151998Y-91281971D01*
X141155047Y-91272586D01*
X141208737Y-91048956D01*
X141210280Y-91039209D01*
X141228325Y-90809930D01*
X141228325Y-90800070D01*
X141210280Y-90570791D01*
X141208737Y-90561044D01*
X141155047Y-90337414D01*
X141151998Y-90328029D01*
X141063988Y-90115553D01*
X141059507Y-90106759D01*
X140954203Y-89934917D01*
X140943747Y-89925457D01*
X140934969Y-89929241D01*
X140072022Y-90792188D01*
X140064408Y-90806132D01*
X139334356Y-90806132D01*
X139335592Y-90803868D01*
X139335461Y-90802035D01*
X139331210Y-90795420D01*
X138468074Y-89932284D01*
X138455694Y-89925524D01*
X138448044Y-89931251D01*
X138340493Y-90106759D01*
X138336012Y-90115553D01*
X138248002Y-90328029D01*
X138244953Y-90337414D01*
X138191263Y-90561044D01*
X138189720Y-90570791D01*
X138171675Y-90800070D01*
X138171675Y-90809930D01*
X130440835Y-90809930D01*
X129408652Y-89777747D01*
X129401112Y-89769461D01*
X129397000Y-89762982D01*
X129347348Y-89716356D01*
X129344507Y-89713602D01*
X129324770Y-89693865D01*
X129321573Y-89691385D01*
X129312551Y-89683680D01*
X129286100Y-89658841D01*
X129280321Y-89653414D01*
X129273375Y-89649595D01*
X129273372Y-89649593D01*
X129262566Y-89643652D01*
X129246047Y-89632801D01*
X129240048Y-89628148D01*
X129230041Y-89620386D01*
X129222772Y-89617241D01*
X129222768Y-89617238D01*
X129189463Y-89602826D01*
X129178813Y-89597609D01*
X129140060Y-89576305D01*
X129120437Y-89571267D01*
X129101734Y-89564863D01*
X129093392Y-89561253D01*
X138820457Y-89561253D01*
X138824241Y-89570031D01*
X139687188Y-90432978D01*
X139701132Y-90440592D01*
X139702965Y-90440461D01*
X139709580Y-90436210D01*
X140572716Y-89573074D01*
X140579476Y-89560694D01*
X140573749Y-89553044D01*
X140398241Y-89445493D01*
X140389447Y-89441012D01*
X140176971Y-89353002D01*
X140167586Y-89349953D01*
X139943956Y-89296263D01*
X139934209Y-89294720D01*
X139704930Y-89276675D01*
X139695070Y-89276675D01*
X139465791Y-89294720D01*
X139456044Y-89296263D01*
X139232414Y-89349953D01*
X139223029Y-89353002D01*
X139010553Y-89441012D01*
X139001759Y-89445493D01*
X138829917Y-89550797D01*
X138820457Y-89561253D01*
X129093392Y-89561253D01*
X129090420Y-89559967D01*
X129090419Y-89559967D01*
X129083145Y-89556819D01*
X129075322Y-89555580D01*
X129075312Y-89555577D01*
X129039476Y-89549901D01*
X129027856Y-89547495D01*
X128992711Y-89538472D01*
X128992710Y-89538472D01*
X128985030Y-89536500D01*
X128964776Y-89536500D01*
X128945065Y-89534949D01*
X128932886Y-89533020D01*
X128925057Y-89531780D01*
X128917165Y-89532526D01*
X128881039Y-89535941D01*
X128869181Y-89536500D01*
X127708200Y-89536500D01*
X127640079Y-89516498D01*
X127620853Y-89500157D01*
X127620580Y-89500460D01*
X127615668Y-89496037D01*
X127611253Y-89491134D01*
X127456752Y-89378882D01*
X127450724Y-89376198D01*
X127450722Y-89376197D01*
X127288319Y-89303891D01*
X127288318Y-89303891D01*
X127282288Y-89301206D01*
X127188887Y-89281353D01*
X127101944Y-89262872D01*
X127101939Y-89262872D01*
X127095487Y-89261500D01*
X126904513Y-89261500D01*
X126898061Y-89262872D01*
X126898056Y-89262872D01*
X126811113Y-89281353D01*
X126717712Y-89301206D01*
X126711682Y-89303891D01*
X126711681Y-89303891D01*
X126549278Y-89376197D01*
X126549276Y-89376198D01*
X126543248Y-89378882D01*
X126388747Y-89491134D01*
X126384326Y-89496044D01*
X126384325Y-89496045D01*
X126275203Y-89617238D01*
X126260960Y-89633056D01*
X126165473Y-89798444D01*
X126106458Y-89980072D01*
X126105768Y-89986633D01*
X126105768Y-89986635D01*
X126087186Y-90163435D01*
X126086496Y-90170000D01*
X116321541Y-90170000D01*
X116298988Y-90115553D01*
X116294507Y-90106759D01*
X116189203Y-89934917D01*
X116178747Y-89925457D01*
X116169969Y-89929241D01*
X115307022Y-90792188D01*
X115299408Y-90806132D01*
X114569356Y-90806132D01*
X114570592Y-90803868D01*
X114570461Y-90802035D01*
X114566210Y-90795420D01*
X113703074Y-89932284D01*
X113690694Y-89925524D01*
X113683044Y-89931251D01*
X113575493Y-90106759D01*
X113571012Y-90115553D01*
X113483002Y-90328029D01*
X113479953Y-90337414D01*
X113426263Y-90561044D01*
X113424720Y-90570791D01*
X113406675Y-90800070D01*
X113406675Y-90809930D01*
X110363500Y-90809930D01*
X110363500Y-89561253D01*
X114055457Y-89561253D01*
X114059241Y-89570031D01*
X114922188Y-90432978D01*
X114936132Y-90440592D01*
X114937965Y-90440461D01*
X114944580Y-90436210D01*
X115807716Y-89573074D01*
X115814476Y-89560694D01*
X115808749Y-89553044D01*
X115633241Y-89445493D01*
X115624447Y-89441012D01*
X115411971Y-89353002D01*
X115402586Y-89349953D01*
X115178956Y-89296263D01*
X115169209Y-89294720D01*
X114939930Y-89276675D01*
X114930070Y-89276675D01*
X114700791Y-89294720D01*
X114691044Y-89296263D01*
X114467414Y-89349953D01*
X114458029Y-89353002D01*
X114245553Y-89441012D01*
X114236759Y-89445493D01*
X114064917Y-89550797D01*
X114055457Y-89561253D01*
X110363500Y-89561253D01*
X110363500Y-86127807D01*
X110383502Y-86059686D01*
X110437158Y-86013193D01*
X110507432Y-86003089D01*
X110572012Y-86032583D01*
X110586584Y-86047491D01*
X110635808Y-86106992D01*
X110856729Y-86314450D01*
X111101910Y-86492584D01*
X111367483Y-86638585D01*
X111371152Y-86640038D01*
X111371157Y-86640040D01*
X111645591Y-86748696D01*
X111649261Y-86750149D01*
X111942800Y-86825516D01*
X112243470Y-86863500D01*
X112546530Y-86863500D01*
X112847200Y-86825516D01*
X113140739Y-86750149D01*
X113144409Y-86748696D01*
X113418843Y-86640040D01*
X113418848Y-86640038D01*
X113422517Y-86638585D01*
X113688090Y-86492584D01*
X113933271Y-86314450D01*
X114154192Y-86106992D01*
X114347370Y-85873480D01*
X114509758Y-85617598D01*
X114638794Y-85343381D01*
X114732445Y-85055154D01*
X114789233Y-84757462D01*
X114808262Y-84455000D01*
X114789233Y-84152538D01*
X114732445Y-83854846D01*
X114638794Y-83566619D01*
X114509758Y-83292402D01*
X114347370Y-83036520D01*
X114154192Y-82803008D01*
X113982043Y-82641350D01*
X113946078Y-82580138D01*
X113948915Y-82509198D01*
X113989656Y-82451054D01*
X114055364Y-82424165D01*
X114068296Y-82423500D01*
X140566704Y-82423500D01*
X140634825Y-82443502D01*
G37*
%TD.AperFunction*%
%TD*%
M02*
