%TF.GenerationSoftware,KiCad,Pcbnew,(6.0.10)*%
%TF.CreationDate,2023-02-03T17:52:03+05:30*%
%TF.ProjectId,protectionCkt,70726f74-6563-4746-996f-6e436b742e6b,rev?*%
%TF.SameCoordinates,Original*%
%TF.FileFunction,Drillmap*%
%TF.FilePolarity,Positive*%
%FSLAX45Y45*%
G04 Gerber Fmt 4.5, Leading zero omitted, Abs format (unit mm)*
G04 Created by KiCad (PCBNEW (6.0.10)) date 2023-02-03 17:52:03*
%MOMM*%
%LPD*%
G01*
G04 APERTURE LIST*
%ADD10C,0.100000*%
%ADD11C,0.200000*%
G04 APERTURE END LIST*
D10*
X11173460Y-7350760D02*
X16266160Y-7350760D01*
X16266160Y-7350760D02*
X16266160Y-10670540D01*
X16266160Y-10670540D02*
X11173460Y-10670540D01*
X11173460Y-10670540D02*
X11173460Y-7350760D01*
D11*
X11426079Y-10986016D02*
X11426079Y-10786016D01*
X11473698Y-10786016D01*
X11502269Y-10795540D01*
X11521317Y-10814588D01*
X11530841Y-10833635D01*
X11540365Y-10871730D01*
X11540365Y-10900302D01*
X11530841Y-10938397D01*
X11521317Y-10957445D01*
X11502269Y-10976492D01*
X11473698Y-10986016D01*
X11426079Y-10986016D01*
X11626079Y-10986016D02*
X11626079Y-10852683D01*
X11626079Y-10890778D02*
X11635603Y-10871730D01*
X11645127Y-10862207D01*
X11664174Y-10852683D01*
X11683222Y-10852683D01*
X11749888Y-10986016D02*
X11749888Y-10852683D01*
X11749888Y-10786016D02*
X11740365Y-10795540D01*
X11749888Y-10805064D01*
X11759412Y-10795540D01*
X11749888Y-10786016D01*
X11749888Y-10805064D01*
X11873698Y-10986016D02*
X11854650Y-10976492D01*
X11845127Y-10957445D01*
X11845127Y-10786016D01*
X11978460Y-10986016D02*
X11959412Y-10976492D01*
X11949888Y-10957445D01*
X11949888Y-10786016D01*
X12207031Y-10986016D02*
X12207031Y-10786016D01*
X12273698Y-10928873D01*
X12340365Y-10786016D01*
X12340365Y-10986016D01*
X12521317Y-10986016D02*
X12521317Y-10881254D01*
X12511793Y-10862207D01*
X12492746Y-10852683D01*
X12454650Y-10852683D01*
X12435603Y-10862207D01*
X12521317Y-10976492D02*
X12502269Y-10986016D01*
X12454650Y-10986016D01*
X12435603Y-10976492D01*
X12426079Y-10957445D01*
X12426079Y-10938397D01*
X12435603Y-10919350D01*
X12454650Y-10909826D01*
X12502269Y-10909826D01*
X12521317Y-10900302D01*
X12616555Y-10852683D02*
X12616555Y-11052683D01*
X12616555Y-10862207D02*
X12635603Y-10852683D01*
X12673698Y-10852683D01*
X12692746Y-10862207D01*
X12702269Y-10871730D01*
X12711793Y-10890778D01*
X12711793Y-10947921D01*
X12702269Y-10966969D01*
X12692746Y-10976492D01*
X12673698Y-10986016D01*
X12635603Y-10986016D01*
X12616555Y-10976492D01*
X12797508Y-10966969D02*
X12807031Y-10976492D01*
X12797508Y-10986016D01*
X12787984Y-10976492D01*
X12797508Y-10966969D01*
X12797508Y-10986016D01*
X12797508Y-10862207D02*
X12807031Y-10871730D01*
X12797508Y-10881254D01*
X12787984Y-10871730D01*
X12797508Y-10862207D01*
X12797508Y-10881254D01*
M02*
