%TF.GenerationSoftware,KiCad,Pcbnew,(6.0.10)*%
%TF.CreationDate,2023-02-03T17:51:54+05:30*%
%TF.ProjectId,protectionCkt,70726f74-6563-4746-996f-6e436b742e6b,rev?*%
%TF.SameCoordinates,Original*%
%TF.FileFunction,Legend,Top*%
%TF.FilePolarity,Positive*%
%FSLAX46Y46*%
G04 Gerber Fmt 4.6, Leading zero omitted, Abs format (unit mm)*
G04 Created by KiCad (PCBNEW (6.0.10)) date 2023-02-03 17:51:54*
%MOMM*%
%LPD*%
G01*
G04 APERTURE LIST*
%ADD10C,0.150000*%
%ADD11C,0.120000*%
G04 APERTURE END LIST*
D10*
X125403266Y-101747580D02*
X125403266Y-100747580D01*
X125784219Y-100747580D01*
X125879457Y-100795200D01*
X125927076Y-100842819D01*
X125974695Y-100938057D01*
X125974695Y-101080914D01*
X125927076Y-101176152D01*
X125879457Y-101223771D01*
X125784219Y-101271390D01*
X125403266Y-101271390D01*
X126308028Y-100747580D02*
X126546123Y-101747580D01*
X126736600Y-101033295D01*
X126927076Y-101747580D01*
X127165171Y-100747580D01*
X128117552Y-101747580D02*
X127784219Y-101271390D01*
X127546123Y-101747580D02*
X127546123Y-100747580D01*
X127927076Y-100747580D01*
X128022314Y-100795200D01*
X128069933Y-100842819D01*
X128117552Y-100938057D01*
X128117552Y-101080914D01*
X128069933Y-101176152D01*
X128022314Y-101223771D01*
X127927076Y-101271390D01*
X127546123Y-101271390D01*
X129069933Y-100795200D02*
X128974695Y-100747580D01*
X128831838Y-100747580D01*
X128688980Y-100795200D01*
X128593742Y-100890438D01*
X128546123Y-100985676D01*
X128498504Y-101176152D01*
X128498504Y-101319009D01*
X128546123Y-101509485D01*
X128593742Y-101604723D01*
X128688980Y-101699961D01*
X128831838Y-101747580D01*
X128927076Y-101747580D01*
X129069933Y-101699961D01*
X129117552Y-101652342D01*
X129117552Y-101319009D01*
X128927076Y-101319009D01*
X129546123Y-101747580D02*
X129546123Y-100747580D01*
X129784219Y-100747580D01*
X129927076Y-100795200D01*
X130022314Y-100890438D01*
X130069933Y-100985676D01*
X130117552Y-101176152D01*
X130117552Y-101319009D01*
X130069933Y-101509485D01*
X130022314Y-101604723D01*
X129927076Y-101699961D01*
X129784219Y-101747580D01*
X129546123Y-101747580D01*
X142865552Y-100899980D02*
X143056028Y-100899980D01*
X143151266Y-100947600D01*
X143246504Y-101042838D01*
X143294123Y-101233314D01*
X143294123Y-101566647D01*
X143246504Y-101757123D01*
X143151266Y-101852361D01*
X143056028Y-101899980D01*
X142865552Y-101899980D01*
X142770314Y-101852361D01*
X142675076Y-101757123D01*
X142627457Y-101566647D01*
X142627457Y-101233314D01*
X142675076Y-101042838D01*
X142770314Y-100947600D01*
X142865552Y-100899980D01*
X143722695Y-101899980D02*
X143722695Y-100899980D01*
X144294123Y-101899980D01*
X144294123Y-100899980D01*
X117640552Y-103365171D02*
X117973885Y-103365171D01*
X118116742Y-103888980D02*
X117640552Y-103888980D01*
X117640552Y-102888980D01*
X118116742Y-102888980D01*
X118545314Y-103888980D02*
X118545314Y-102888980D01*
X118926266Y-102888980D01*
X119021504Y-102936600D01*
X119069123Y-102984219D01*
X119116742Y-103079457D01*
X119116742Y-103222314D01*
X119069123Y-103317552D01*
X119021504Y-103365171D01*
X118926266Y-103412790D01*
X118545314Y-103412790D01*
X119497695Y-103841361D02*
X119640552Y-103888980D01*
X119878647Y-103888980D01*
X119973885Y-103841361D01*
X120021504Y-103793742D01*
X120069123Y-103698504D01*
X120069123Y-103603266D01*
X120021504Y-103508028D01*
X119973885Y-103460409D01*
X119878647Y-103412790D01*
X119688171Y-103365171D01*
X119592933Y-103317552D01*
X119545314Y-103269933D01*
X119497695Y-103174695D01*
X119497695Y-103079457D01*
X119545314Y-102984219D01*
X119592933Y-102936600D01*
X119688171Y-102888980D01*
X119926266Y-102888980D01*
X120069123Y-102936600D01*
X121259600Y-103888980D02*
X121259600Y-102888980D01*
X121497695Y-102888980D01*
X121640552Y-102936600D01*
X121735790Y-103031838D01*
X121783409Y-103127076D01*
X121831028Y-103317552D01*
X121831028Y-103460409D01*
X121783409Y-103650885D01*
X121735790Y-103746123D01*
X121640552Y-103841361D01*
X121497695Y-103888980D01*
X121259600Y-103888980D01*
X122259600Y-103365171D02*
X122592933Y-103365171D01*
X122735790Y-103888980D02*
X122259600Y-103888980D01*
X122259600Y-102888980D01*
X122735790Y-102888980D01*
X123164361Y-103888980D02*
X123164361Y-102888980D01*
X123497695Y-103603266D01*
X123831028Y-102888980D01*
X123831028Y-103888980D01*
X124497695Y-102888980D02*
X124688171Y-102888980D01*
X124783409Y-102936600D01*
X124878647Y-103031838D01*
X124926266Y-103222314D01*
X124926266Y-103555647D01*
X124878647Y-103746123D01*
X124783409Y-103841361D01*
X124688171Y-103888980D01*
X124497695Y-103888980D01*
X124402457Y-103841361D01*
X124307219Y-103746123D01*
X124259600Y-103555647D01*
X124259600Y-103222314D01*
X124307219Y-103031838D01*
X124402457Y-102936600D01*
X124497695Y-102888980D01*
X118783409Y-105498980D02*
X118307219Y-105498980D01*
X118307219Y-104498980D01*
X118973885Y-104498980D02*
X119545314Y-104498980D01*
X119259600Y-105498980D02*
X119259600Y-104498980D01*
X120450076Y-105403742D02*
X120402457Y-105451361D01*
X120259600Y-105498980D01*
X120164361Y-105498980D01*
X120021504Y-105451361D01*
X119926266Y-105356123D01*
X119878647Y-105260885D01*
X119831028Y-105070409D01*
X119831028Y-104927552D01*
X119878647Y-104737076D01*
X119926266Y-104641838D01*
X120021504Y-104546600D01*
X120164361Y-104498980D01*
X120259600Y-104498980D01*
X120402457Y-104546600D01*
X120450076Y-104594219D01*
X121307219Y-104832314D02*
X121307219Y-105498980D01*
X121069123Y-104451361D02*
X120831028Y-105165647D01*
X121450076Y-105165647D01*
X121735790Y-104498980D02*
X122354838Y-104498980D01*
X122021504Y-104879933D01*
X122164361Y-104879933D01*
X122259600Y-104927552D01*
X122307219Y-104975171D01*
X122354838Y-105070409D01*
X122354838Y-105308504D01*
X122307219Y-105403742D01*
X122259600Y-105451361D01*
X122164361Y-105498980D01*
X121878647Y-105498980D01*
X121783409Y-105451361D01*
X121735790Y-105403742D01*
X123211980Y-104498980D02*
X123021504Y-104498980D01*
X122926266Y-104546600D01*
X122878647Y-104594219D01*
X122783409Y-104737076D01*
X122735790Y-104927552D01*
X122735790Y-105308504D01*
X122783409Y-105403742D01*
X122831028Y-105451361D01*
X122926266Y-105498980D01*
X123116742Y-105498980D01*
X123211980Y-105451361D01*
X123259600Y-105403742D01*
X123307219Y-105308504D01*
X123307219Y-105070409D01*
X123259600Y-104975171D01*
X123211980Y-104927552D01*
X123116742Y-104879933D01*
X122926266Y-104879933D01*
X122831028Y-104927552D01*
X122783409Y-104975171D01*
X122735790Y-105070409D01*
X124259600Y-105498980D02*
X123688171Y-105498980D01*
X123973885Y-105498980D02*
X123973885Y-104498980D01*
X123878647Y-104641838D01*
X123783409Y-104737076D01*
X123688171Y-104784695D01*
X144304523Y-104728971D02*
X144637857Y-104728971D01*
X144780714Y-105252780D02*
X144304523Y-105252780D01*
X144304523Y-104252780D01*
X144780714Y-104252780D01*
X145209285Y-104728971D02*
X145542619Y-104728971D01*
X145685476Y-105252780D02*
X145209285Y-105252780D01*
X145209285Y-104252780D01*
X145685476Y-104252780D01*
X146828333Y-104205161D02*
X145971190Y-105490876D01*
X147685476Y-104300400D02*
X147590238Y-104252780D01*
X147447380Y-104252780D01*
X147304523Y-104300400D01*
X147209285Y-104395638D01*
X147161666Y-104490876D01*
X147114047Y-104681352D01*
X147114047Y-104824209D01*
X147161666Y-105014685D01*
X147209285Y-105109923D01*
X147304523Y-105205161D01*
X147447380Y-105252780D01*
X147542619Y-105252780D01*
X147685476Y-105205161D01*
X147733095Y-105157542D01*
X147733095Y-104824209D01*
X147542619Y-104824209D01*
X148161666Y-104728971D02*
X148495000Y-104728971D01*
X148637857Y-105252780D02*
X148161666Y-105252780D01*
X148161666Y-104252780D01*
X148637857Y-104252780D01*
X149637857Y-105157542D02*
X149590238Y-105205161D01*
X149447380Y-105252780D01*
X149352142Y-105252780D01*
X149209285Y-105205161D01*
X149114047Y-105109923D01*
X149066428Y-105014685D01*
X149018809Y-104824209D01*
X149018809Y-104681352D01*
X149066428Y-104490876D01*
X149114047Y-104395638D01*
X149209285Y-104300400D01*
X149352142Y-104252780D01*
X149447380Y-104252780D01*
X149590238Y-104300400D01*
X149637857Y-104348019D01*
X150399761Y-104728971D02*
X150542619Y-104776590D01*
X150590238Y-104824209D01*
X150637857Y-104919447D01*
X150637857Y-105062304D01*
X150590238Y-105157542D01*
X150542619Y-105205161D01*
X150447380Y-105252780D01*
X150066428Y-105252780D01*
X150066428Y-104252780D01*
X150399761Y-104252780D01*
X150495000Y-104300400D01*
X150542619Y-104348019D01*
X150590238Y-104443257D01*
X150590238Y-104538495D01*
X150542619Y-104633733D01*
X150495000Y-104681352D01*
X150399761Y-104728971D01*
X150066428Y-104728971D01*
X151780714Y-104205161D02*
X150923571Y-105490876D01*
X152637857Y-105252780D02*
X152066428Y-105252780D01*
X152352142Y-105252780D02*
X152352142Y-104252780D01*
X152256904Y-104395638D01*
X152161666Y-104490876D01*
X152066428Y-104538495D01*
X153114047Y-105252780D02*
X153304523Y-105252780D01*
X153399761Y-105205161D01*
X153447380Y-105157542D01*
X153542619Y-105014685D01*
X153590238Y-104824209D01*
X153590238Y-104443257D01*
X153542619Y-104348019D01*
X153495000Y-104300400D01*
X153399761Y-104252780D01*
X153209285Y-104252780D01*
X153114047Y-104300400D01*
X153066428Y-104348019D01*
X153018809Y-104443257D01*
X153018809Y-104681352D01*
X153066428Y-104776590D01*
X153114047Y-104824209D01*
X153209285Y-104871828D01*
X153399761Y-104871828D01*
X153495000Y-104824209D01*
X153542619Y-104776590D01*
X153590238Y-104681352D01*
X154018809Y-104871828D02*
X154780714Y-104871828D01*
X155209285Y-104348019D02*
X155256904Y-104300400D01*
X155352142Y-104252780D01*
X155590238Y-104252780D01*
X155685476Y-104300400D01*
X155733095Y-104348019D01*
X155780714Y-104443257D01*
X155780714Y-104538495D01*
X155733095Y-104681352D01*
X155161666Y-105252780D01*
X155780714Y-105252780D01*
X156114047Y-104252780D02*
X156733095Y-104252780D01*
X156399761Y-104633733D01*
X156542619Y-104633733D01*
X156637857Y-104681352D01*
X156685476Y-104728971D01*
X156733095Y-104824209D01*
X156733095Y-105062304D01*
X156685476Y-105157542D01*
X156637857Y-105205161D01*
X156542619Y-105252780D01*
X156256904Y-105252780D01*
X156161666Y-105205161D01*
X156114047Y-105157542D01*
%TO.C,C1*%
X139431733Y-82373742D02*
X139384114Y-82421361D01*
X139241257Y-82468980D01*
X139146019Y-82468980D01*
X139003161Y-82421361D01*
X138907923Y-82326123D01*
X138860304Y-82230885D01*
X138812685Y-82040409D01*
X138812685Y-81897552D01*
X138860304Y-81707076D01*
X138907923Y-81611838D01*
X139003161Y-81516600D01*
X139146019Y-81468980D01*
X139241257Y-81468980D01*
X139384114Y-81516600D01*
X139431733Y-81564219D01*
X140384114Y-82468980D02*
X139812685Y-82468980D01*
X140098400Y-82468980D02*
X140098400Y-81468980D01*
X140003161Y-81611838D01*
X139907923Y-81707076D01*
X139812685Y-81754695D01*
X138938000Y-83018380D02*
X138938000Y-83256476D01*
X138699904Y-83161238D02*
X138938000Y-83256476D01*
X139176095Y-83161238D01*
X138795142Y-83446952D02*
X138938000Y-83256476D01*
X139080857Y-83446952D01*
%TO.C,U1*%
X114554095Y-80452980D02*
X114554095Y-81262504D01*
X114601714Y-81357742D01*
X114649333Y-81405361D01*
X114744571Y-81452980D01*
X114935047Y-81452980D01*
X115030285Y-81405361D01*
X115077904Y-81357742D01*
X115125523Y-81262504D01*
X115125523Y-80452980D01*
X116125523Y-81452980D02*
X115554095Y-81452980D01*
X115839809Y-81452980D02*
X115839809Y-80452980D01*
X115744571Y-80595838D01*
X115649333Y-80691076D01*
X115554095Y-80738695D01*
X118248180Y-85064600D02*
X118486276Y-85064600D01*
X118391038Y-85302695D02*
X118486276Y-85064600D01*
X118391038Y-84826504D01*
X118676752Y-85207457D02*
X118486276Y-85064600D01*
X118676752Y-84921742D01*
%TO.C,U2*%
X132003895Y-95210380D02*
X132003895Y-96019904D01*
X132051514Y-96115142D01*
X132099133Y-96162761D01*
X132194371Y-96210380D01*
X132384847Y-96210380D01*
X132480085Y-96162761D01*
X132527704Y-96115142D01*
X132575323Y-96019904D01*
X132575323Y-95210380D01*
X133003895Y-95305619D02*
X133051514Y-95258000D01*
X133146752Y-95210380D01*
X133384847Y-95210380D01*
X133480085Y-95258000D01*
X133527704Y-95305619D01*
X133575323Y-95400857D01*
X133575323Y-95496095D01*
X133527704Y-95638952D01*
X132956276Y-96210380D01*
X133575323Y-96210380D01*
X134239000Y-100671380D02*
X134239000Y-100909476D01*
X134000904Y-100814238D02*
X134239000Y-100909476D01*
X134477095Y-100814238D01*
X134096142Y-101099952D02*
X134239000Y-100909476D01*
X134381857Y-101099952D01*
%TO.C,R1*%
X130440133Y-93213180D02*
X130106800Y-92736990D01*
X129868704Y-93213180D02*
X129868704Y-92213180D01*
X130249657Y-92213180D01*
X130344895Y-92260800D01*
X130392514Y-92308419D01*
X130440133Y-92403657D01*
X130440133Y-92546514D01*
X130392514Y-92641752D01*
X130344895Y-92689371D01*
X130249657Y-92736990D01*
X129868704Y-92736990D01*
X131392514Y-93213180D02*
X130821085Y-93213180D01*
X131106800Y-93213180D02*
X131106800Y-92213180D01*
X131011561Y-92356038D01*
X130916323Y-92451276D01*
X130821085Y-92498895D01*
X131343400Y-90562180D02*
X131343400Y-90800276D01*
X131105304Y-90705038D02*
X131343400Y-90800276D01*
X131581495Y-90705038D01*
X131200542Y-90990752D02*
X131343400Y-90800276D01*
X131486257Y-90990752D01*
%TO.C,U4*%
X130073495Y-82078580D02*
X130073495Y-82888104D01*
X130121114Y-82983342D01*
X130168733Y-83030961D01*
X130263971Y-83078580D01*
X130454447Y-83078580D01*
X130549685Y-83030961D01*
X130597304Y-82983342D01*
X130644923Y-82888104D01*
X130644923Y-82078580D01*
X131549685Y-82411914D02*
X131549685Y-83078580D01*
X131311590Y-82030961D02*
X131073495Y-82745247D01*
X131692542Y-82745247D01*
X133955180Y-83927950D02*
X134193276Y-83927950D01*
X134098038Y-84166045D02*
X134193276Y-83927950D01*
X134098038Y-83689854D01*
X134383752Y-84070807D02*
X134193276Y-83927950D01*
X134383752Y-83785092D01*
X133955180Y-83927950D02*
X134193276Y-83927950D01*
X134098038Y-84166045D02*
X134193276Y-83927950D01*
X134098038Y-83689854D01*
X134383752Y-84070807D02*
X134193276Y-83927950D01*
X134383752Y-83785092D01*
%TO.C,R2*%
X144384733Y-86304380D02*
X144051400Y-85828190D01*
X143813304Y-86304380D02*
X143813304Y-85304380D01*
X144194257Y-85304380D01*
X144289495Y-85352000D01*
X144337114Y-85399619D01*
X144384733Y-85494857D01*
X144384733Y-85637714D01*
X144337114Y-85732952D01*
X144289495Y-85780571D01*
X144194257Y-85828190D01*
X143813304Y-85828190D01*
X144765685Y-85399619D02*
X144813304Y-85352000D01*
X144908542Y-85304380D01*
X145146638Y-85304380D01*
X145241876Y-85352000D01*
X145289495Y-85399619D01*
X145337114Y-85494857D01*
X145337114Y-85590095D01*
X145289495Y-85732952D01*
X144718066Y-86304380D01*
X145337114Y-86304380D01*
%TO.C,LED1*%
X140130352Y-76525380D02*
X139654161Y-76525380D01*
X139654161Y-75525380D01*
X140463685Y-76001571D02*
X140797019Y-76001571D01*
X140939876Y-76525380D02*
X140463685Y-76525380D01*
X140463685Y-75525380D01*
X140939876Y-75525380D01*
X141368447Y-76525380D02*
X141368447Y-75525380D01*
X141606542Y-75525380D01*
X141749400Y-75573000D01*
X141844638Y-75668238D01*
X141892257Y-75763476D01*
X141939876Y-75953952D01*
X141939876Y-76096809D01*
X141892257Y-76287285D01*
X141844638Y-76382523D01*
X141749400Y-76477761D01*
X141606542Y-76525380D01*
X141368447Y-76525380D01*
X142892257Y-76525380D02*
X142320828Y-76525380D01*
X142606542Y-76525380D02*
X142606542Y-75525380D01*
X142511304Y-75668238D01*
X142416066Y-75763476D01*
X142320828Y-75811095D01*
X141249400Y-77811380D02*
X141249400Y-78049476D01*
X141011304Y-77954238D02*
X141249400Y-78049476D01*
X141487495Y-77954238D01*
X141106542Y-78239952D02*
X141249400Y-78049476D01*
X141392257Y-78239952D01*
%TO.C,U5*%
X151053895Y-80402180D02*
X151053895Y-81211704D01*
X151101514Y-81306942D01*
X151149133Y-81354561D01*
X151244371Y-81402180D01*
X151434847Y-81402180D01*
X151530085Y-81354561D01*
X151577704Y-81306942D01*
X151625323Y-81211704D01*
X151625323Y-80402180D01*
X152577704Y-80402180D02*
X152101514Y-80402180D01*
X152053895Y-80878371D01*
X152101514Y-80830752D01*
X152196752Y-80783133D01*
X152434847Y-80783133D01*
X152530085Y-80830752D01*
X152577704Y-80878371D01*
X152625323Y-80973609D01*
X152625323Y-81211704D01*
X152577704Y-81306942D01*
X152530085Y-81354561D01*
X152434847Y-81402180D01*
X152196752Y-81402180D01*
X152101514Y-81354561D01*
X152053895Y-81306942D01*
X154722580Y-85064600D02*
X154960676Y-85064600D01*
X154865438Y-85302695D02*
X154960676Y-85064600D01*
X154865438Y-84826504D01*
X155151152Y-85207457D02*
X154960676Y-85064600D01*
X155151152Y-84921742D01*
%TO.C,U3*%
X135712295Y-88072980D02*
X135712295Y-88882504D01*
X135759914Y-88977742D01*
X135807533Y-89025361D01*
X135902771Y-89072980D01*
X136093247Y-89072980D01*
X136188485Y-89025361D01*
X136236104Y-88977742D01*
X136283723Y-88882504D01*
X136283723Y-88072980D01*
X136664676Y-88072980D02*
X137283723Y-88072980D01*
X136950390Y-88453933D01*
X137093247Y-88453933D01*
X137188485Y-88501552D01*
X137236104Y-88549171D01*
X137283723Y-88644409D01*
X137283723Y-88882504D01*
X137236104Y-88977742D01*
X137188485Y-89025361D01*
X137093247Y-89072980D01*
X136807533Y-89072980D01*
X136712295Y-89025361D01*
X136664676Y-88977742D01*
X134768580Y-92424250D02*
X135006676Y-92424250D01*
X134911438Y-92662345D02*
X135006676Y-92424250D01*
X134911438Y-92186154D01*
X135197152Y-92567107D02*
X135006676Y-92424250D01*
X135197152Y-92281392D01*
X134768580Y-92424250D02*
X135006676Y-92424250D01*
X134911438Y-92662345D02*
X135006676Y-92424250D01*
X134911438Y-92186154D01*
X135197152Y-92567107D02*
X135006676Y-92424250D01*
X135197152Y-92281392D01*
D11*
%TO.C,C1*%
X139130450Y-83039000D02*
X138745550Y-83039000D01*
X138745550Y-84093000D02*
X139130450Y-84093000D01*
%TO.C,U1*%
X114579400Y-92811600D02*
X123012200Y-92811600D01*
X123012200Y-92811600D02*
X123012200Y-82397600D01*
X123012200Y-82397600D02*
X114579400Y-82397600D01*
X114579400Y-82397600D02*
X114579400Y-92811600D01*
X119176800Y-81762600D02*
G75*
G03*
X119176800Y-81762600I-381000J0D01*
G01*
%TO.C,U2*%
X131572000Y-97002600D02*
X131572000Y-105435400D01*
X141986000Y-105435400D02*
X141986000Y-97002600D01*
X131572000Y-105435400D02*
X141986000Y-105435400D01*
X141986000Y-97002600D02*
X131572000Y-97002600D01*
X131318000Y-101219000D02*
G75*
G03*
X131318000Y-101219000I-381000J0D01*
G01*
%TO.C,U4*%
X133553200Y-86499700D02*
X133553200Y-84493100D01*
X130403600Y-84493100D02*
X130403600Y-86499700D01*
%TO.C,LED1*%
X137718800Y-78359000D02*
X138480800Y-78232000D01*
X137718800Y-78359000D02*
X138480800Y-78486000D01*
X137718800Y-78359000D02*
X138480800Y-78613000D01*
X137718800Y-78359000D02*
X138480800Y-77978000D01*
X137718800Y-78359000D02*
X138480800Y-78867000D01*
X140629997Y-79489300D02*
X141868803Y-79489300D01*
X138734800Y-78359000D02*
X137464800Y-78359000D01*
X141868803Y-77228700D02*
X140629997Y-77228700D01*
X138480800Y-77724000D02*
X138480800Y-78994000D01*
X137718800Y-78359000D02*
X138480800Y-78994000D01*
X137718800Y-78359000D02*
X138480800Y-77851000D01*
X137718800Y-78359000D02*
X138480800Y-78105000D01*
X137718800Y-77724000D02*
X137718800Y-78994000D01*
X137718800Y-78359000D02*
X138480800Y-78740000D01*
X137718800Y-78359000D02*
X138480800Y-77724000D01*
%TO.C,U5*%
X151053800Y-82397600D02*
X151053800Y-92811600D01*
X159486600Y-82397600D02*
X151053800Y-82397600D01*
X159486600Y-92811600D02*
X159486600Y-82397600D01*
X151053800Y-92811600D02*
X159486600Y-92811600D01*
X155651200Y-81762600D02*
G75*
G03*
X155651200Y-81762600I-381000J0D01*
G01*
%TO.C,U3*%
X138696700Y-91859100D02*
X138696700Y-90258900D01*
X136232900Y-90258900D02*
X136232900Y-91859100D01*
%TD*%
M02*
