%TF.GenerationSoftware,KiCad,Pcbnew,(6.0.10)*%
%TF.CreationDate,2023-02-10T15:15:10+05:30*%
%TF.ProjectId,protectionCkt,70726f74-6563-4746-996f-6e436b742e6b,rev?*%
%TF.SameCoordinates,Original*%
%TF.FileFunction,Copper,L1,Top*%
%TF.FilePolarity,Positive*%
%FSLAX46Y46*%
G04 Gerber Fmt 4.6, Leading zero omitted, Abs format (unit mm)*
G04 Created by KiCad (PCBNEW (6.0.10)) date 2023-02-10 15:15:10*
%MOMM*%
%LPD*%
G01*
G04 APERTURE LIST*
%TA.AperFunction,SMDPad,CuDef*%
%ADD10R,0.655600X0.800000*%
%TD*%
%TA.AperFunction,ComponentPad*%
%ADD11C,3.800000*%
%TD*%
%TA.AperFunction,ComponentPad*%
%ADD12C,2.032000*%
%TD*%
%TA.AperFunction,SMDPad,CuDef*%
%ADD13R,0.838200X1.016000*%
%TD*%
%TA.AperFunction,SMDPad,CuDef*%
%ADD14R,0.406400X0.876300*%
%TD*%
%TA.AperFunction,SMDPad,CuDef*%
%ADD15R,0.799998X0.755599*%
%TD*%
%TA.AperFunction,SMDPad,CuDef*%
%ADD16R,0.698500X1.701800*%
%TD*%
%TA.AperFunction,SMDPad,CuDef*%
%ADD17R,0.355600X0.876300*%
%TD*%
%TA.AperFunction,ViaPad*%
%ADD18C,0.800000*%
%TD*%
%TA.AperFunction,Conductor*%
%ADD19C,0.500000*%
%TD*%
%TA.AperFunction,Conductor*%
%ADD20C,0.400000*%
%TD*%
G04 APERTURE END LIST*
D10*
%TO.P,C1,2,2*%
%TO.N,Net-(C1-Pad2)*%
X138110200Y-83566000D03*
%TO.P,C1,1,1*%
%TO.N,GND*%
X139765800Y-83566000D03*
%TD*%
D11*
%TO.P,REF\u002A\u002A,1*%
%TO.N,N/C*%
X119049800Y-79679800D03*
%TD*%
D12*
%TO.P,U1,2,2*%
%TO.N,GND*%
X124714000Y-86029800D03*
%TO.P,U1,1,1*%
%TO.N,VCC*%
X124714000Y-91109800D03*
%TD*%
%TO.P,U2,1,1*%
%TO.N,Net-(U2-Pad1)*%
X134137400Y-98171000D03*
%TO.P,U2,2,2*%
%TO.N,Net-(U4-Pad1)*%
X139217400Y-98171000D03*
%TD*%
D13*
%TO.P,R1,2*%
%TO.N,Net-(R1-Pad2)*%
X132016500Y-91109800D03*
%TO.P,R1,1*%
%TO.N,VCC*%
X130670300Y-91109800D03*
%TD*%
D14*
%TO.P,U4,8,\u002APWRGD*%
%TO.N,Net-(U2-Pad1)*%
X132953399Y-86810850D03*
%TO.P,U4,7,GATE*%
%TO.N,Net-(U3-Pad3)*%
X132303401Y-86810850D03*
%TO.P,U4,6,SENSE*%
%TO.N,Net-(R1-Pad2)*%
X131653399Y-86810850D03*
%TO.P,U4,5,IN*%
%TO.N,VCC*%
X131003401Y-86810850D03*
%TO.P,U4,4,GND*%
%TO.N,GND*%
X131003401Y-84181950D03*
%TO.P,U4,3,GATEP*%
%TO.N,unconnected-(U4-Pad3)*%
X131653399Y-84181950D03*
%TO.P,U4,2,OUT*%
%TO.N,Net-(C1-Pad2)*%
X132303401Y-84181950D03*
%TO.P,U4,1,\u002AON*%
%TO.N,Net-(U4-Pad1)*%
X132953399Y-84181950D03*
%TD*%
D11*
%TO.P,REF\u002A\u002A,1*%
%TO.N,N/C*%
X153924000Y-102133400D03*
%TD*%
D15*
%TO.P,R2,2,2*%
%TO.N,Net-(LED1-Pad2)*%
X141859000Y-87207801D03*
%TO.P,R2,1,1*%
%TO.N,Net-(C1-Pad2)*%
X141859000Y-88763399D03*
%TD*%
D16*
%TO.P,LED1,2,2*%
%TO.N,Net-(LED1-Pad2)*%
X143821150Y-83921600D03*
%TO.P,LED1,1,1*%
%TO.N,GND*%
X141522450Y-83921600D03*
%TD*%
D12*
%TO.P,U5,2,2*%
%TO.N,GND*%
X149479000Y-85420200D03*
%TO.P,U5,1,1*%
%TO.N,Net-(C1-Pad2)*%
X149479000Y-90500200D03*
%TD*%
D11*
%TO.P,REF\u002A\u002A,1*%
%TO.N,N/C*%
X118821200Y-102133400D03*
%TD*%
%TO.P,REF\u002A\u002A,1*%
%TO.N,N/C*%
X154000200Y-79832200D03*
%TD*%
D17*
%TO.P,U3,6,D*%
%TO.N,Net-(R1-Pad2)*%
X136814801Y-89947750D03*
%TO.P,U3,5,D*%
X137464800Y-89947750D03*
%TO.P,U3,4,S*%
%TO.N,Net-(C1-Pad2)*%
X138114799Y-89947750D03*
%TO.P,U3,3,G*%
%TO.N,Net-(U3-Pad3)*%
X138114799Y-92170250D03*
%TO.P,U3,2,D*%
%TO.N,Net-(R1-Pad2)*%
X137464800Y-92170250D03*
%TO.P,U3,1,D*%
X136814801Y-92170250D03*
%TD*%
D18*
%TO.N,Net-(U2-Pad1)*%
X143078200Y-94488000D03*
X135255000Y-86893400D03*
%TO.N,Net-(U4-Pad1)*%
X147497800Y-96951800D03*
X136296400Y-84988400D03*
%TO.N,Net-(U3-Pad3)*%
X133578600Y-88950800D03*
X140817600Y-92862400D03*
%TD*%
D19*
%TO.N,VCC*%
X130670300Y-91109800D02*
X124714000Y-91109800D01*
D20*
%TO.N,Net-(U4-Pad1)*%
X147497800Y-97256600D02*
X146583400Y-98171000D01*
X146583400Y-98171000D02*
X139217400Y-98171000D01*
X147497800Y-96951800D02*
X147497800Y-97256600D01*
%TO.N,Net-(U2-Pad1)*%
X136702800Y-95605600D02*
X134137400Y-98171000D01*
X142417800Y-95605600D02*
X136702800Y-95605600D01*
X143078200Y-94945200D02*
X142417800Y-95605600D01*
X143078200Y-94488000D02*
X143078200Y-94945200D01*
D19*
%TO.N,Net-(C1-Pad2)*%
X147742199Y-88763399D02*
X149479000Y-90500200D01*
X141859000Y-88763399D02*
X147742199Y-88763399D01*
%TO.N,Net-(LED1-Pad2)*%
X143821150Y-85642450D02*
X143821150Y-83921600D01*
X141859000Y-87207801D02*
X142255799Y-87207801D01*
X142255799Y-87207801D02*
X143821150Y-85642450D01*
%TO.N,Net-(C1-Pad2)*%
X141217650Y-89947750D02*
X138114799Y-89947750D01*
X141859000Y-89306400D02*
X141217650Y-89947750D01*
X141859000Y-88763399D02*
X141859000Y-89306400D01*
X138114799Y-83570599D02*
X138110200Y-83566000D01*
D20*
X133146800Y-81483200D02*
X137668000Y-81483200D01*
X138110200Y-81925400D02*
X138110200Y-83566000D01*
X132303401Y-82326599D02*
X133146800Y-81483200D01*
D19*
X138114799Y-89947750D02*
X138114799Y-83570599D01*
D20*
X132303401Y-84181950D02*
X132303401Y-82326599D01*
X137668000Y-81483200D02*
X138110200Y-81925400D01*
%TO.N,VCC*%
X131003401Y-90776699D02*
X130670300Y-91109800D01*
X131003401Y-86810850D02*
X131003401Y-90776699D01*
%TO.N,Net-(R1-Pad2)*%
X131653399Y-90746699D02*
X132016500Y-91109800D01*
X137464800Y-89947750D02*
X136814801Y-89947750D01*
X135652751Y-91109800D02*
X135754351Y-91109800D01*
X135754351Y-91109800D02*
X136814801Y-92170250D01*
X136814801Y-92170250D02*
X137464800Y-92170250D01*
X135652751Y-91109800D02*
X136814801Y-89947750D01*
X131653399Y-86810850D02*
X131653399Y-90746699D01*
X132016500Y-91109800D02*
X135652751Y-91109800D01*
%TO.N,Net-(U2-Pad1)*%
X132953399Y-86810850D02*
X135172450Y-86810850D01*
X135172450Y-86810850D02*
X135255000Y-86893400D01*
%TO.N,Net-(U4-Pad1)*%
X135489950Y-84181950D02*
X136296400Y-84988400D01*
X132953399Y-84181950D02*
X135489950Y-84181950D01*
%TO.N,Net-(U3-Pad3)*%
X138114799Y-92170250D02*
X140125450Y-92170250D01*
X140125450Y-92170250D02*
X140817600Y-92862400D01*
X132303401Y-87675601D02*
X132303401Y-86810850D01*
X133578600Y-88950800D02*
X132303401Y-87675601D01*
%TD*%
%TA.AperFunction,Conductor*%
%TO.N,GND*%
G36*
X152735452Y-77566702D02*
G01*
X152781945Y-77620358D01*
X152792049Y-77690632D01*
X152762555Y-77755212D01*
X152728036Y-77783112D01*
X152707110Y-77794616D01*
X152461929Y-77972750D01*
X152241008Y-78180208D01*
X152047830Y-78413720D01*
X151885442Y-78669602D01*
X151756406Y-78943819D01*
X151662755Y-79232046D01*
X151605967Y-79529738D01*
X151586938Y-79832200D01*
X151605967Y-80134662D01*
X151662755Y-80432354D01*
X151756406Y-80720581D01*
X151758093Y-80724166D01*
X151758095Y-80724171D01*
X151795194Y-80803010D01*
X151885442Y-80994798D01*
X152047830Y-81250680D01*
X152241008Y-81484192D01*
X152461929Y-81691650D01*
X152707110Y-81869784D01*
X152710579Y-81871691D01*
X152710582Y-81871693D01*
X152969214Y-82013878D01*
X152972683Y-82015785D01*
X152976352Y-82017238D01*
X152976357Y-82017240D01*
X153218654Y-82113172D01*
X153254461Y-82127349D01*
X153548000Y-82202716D01*
X153848670Y-82240700D01*
X154151730Y-82240700D01*
X154452400Y-82202716D01*
X154745939Y-82127349D01*
X154781746Y-82113172D01*
X155024043Y-82017240D01*
X155024048Y-82017238D01*
X155027717Y-82015785D01*
X155031186Y-82013878D01*
X155289818Y-81871693D01*
X155289821Y-81871691D01*
X155293290Y-81869784D01*
X155538471Y-81691650D01*
X155759392Y-81484192D01*
X155952570Y-81250680D01*
X156114958Y-80994798D01*
X156243994Y-80720581D01*
X156245220Y-80716808D01*
X156245748Y-80715475D01*
X156289422Y-80659501D01*
X156356425Y-80636024D01*
X156425484Y-80652500D01*
X156474672Y-80703695D01*
X156488900Y-80761858D01*
X156488900Y-101437749D01*
X156468898Y-101505870D01*
X156415242Y-101552363D01*
X156344968Y-101562467D01*
X156280388Y-101532973D01*
X156243067Y-101476685D01*
X156169020Y-101248792D01*
X156169020Y-101248791D01*
X156167794Y-101245019D01*
X156038758Y-100970802D01*
X155876370Y-100714920D01*
X155683192Y-100481408D01*
X155462271Y-100273950D01*
X155217090Y-100095816D01*
X154951517Y-99949815D01*
X154947848Y-99948362D01*
X154947843Y-99948360D01*
X154673409Y-99839704D01*
X154673408Y-99839704D01*
X154669739Y-99838251D01*
X154376200Y-99762884D01*
X154075530Y-99724900D01*
X153772470Y-99724900D01*
X153471800Y-99762884D01*
X153178261Y-99838251D01*
X153174592Y-99839704D01*
X153174591Y-99839704D01*
X152900157Y-99948360D01*
X152900152Y-99948362D01*
X152896483Y-99949815D01*
X152630910Y-100095816D01*
X152385729Y-100273950D01*
X152164808Y-100481408D01*
X151971630Y-100714920D01*
X151809242Y-100970802D01*
X151680206Y-101245019D01*
X151586555Y-101533246D01*
X151529767Y-101830938D01*
X151510738Y-102133400D01*
X151529767Y-102435862D01*
X151586555Y-102733554D01*
X151680206Y-103021781D01*
X151809242Y-103295998D01*
X151971630Y-103551880D01*
X152164808Y-103785392D01*
X152385729Y-103992850D01*
X152630910Y-104170984D01*
X152896483Y-104316985D01*
X152900152Y-104318438D01*
X152900157Y-104318440D01*
X153117136Y-104404348D01*
X153173110Y-104448023D01*
X153196586Y-104515026D01*
X153180110Y-104584084D01*
X153128914Y-104633273D01*
X153070752Y-104647500D01*
X119674448Y-104647500D01*
X119606327Y-104627498D01*
X119559834Y-104573842D01*
X119549730Y-104503568D01*
X119579224Y-104438988D01*
X119628064Y-104404348D01*
X119845043Y-104318440D01*
X119845048Y-104318438D01*
X119848717Y-104316985D01*
X120114290Y-104170984D01*
X120359471Y-103992850D01*
X120580392Y-103785392D01*
X120773570Y-103551880D01*
X120935958Y-103295998D01*
X121064994Y-103021781D01*
X121158645Y-102733554D01*
X121215433Y-102435862D01*
X121234462Y-102133400D01*
X121215433Y-101830938D01*
X121158645Y-101533246D01*
X121064994Y-101245019D01*
X120935958Y-100970802D01*
X120773570Y-100714920D01*
X120580392Y-100481408D01*
X120359471Y-100273950D01*
X120114290Y-100095816D01*
X119848717Y-99949815D01*
X119845048Y-99948362D01*
X119845043Y-99948360D01*
X119570609Y-99839704D01*
X119570608Y-99839704D01*
X119566939Y-99838251D01*
X119273400Y-99762884D01*
X118972730Y-99724900D01*
X118669670Y-99724900D01*
X118369000Y-99762884D01*
X118075461Y-99838251D01*
X118071792Y-99839704D01*
X118071791Y-99839704D01*
X117797357Y-99948360D01*
X117797352Y-99948362D01*
X117793683Y-99949815D01*
X117528110Y-100095816D01*
X117282929Y-100273950D01*
X117062008Y-100481408D01*
X116868830Y-100714920D01*
X116706442Y-100970802D01*
X116699507Y-100985539D01*
X116652407Y-101038658D01*
X116584062Y-101057882D01*
X116516174Y-101037104D01*
X116470297Y-100982921D01*
X116459500Y-100931890D01*
X116459500Y-98171000D01*
X132608186Y-98171000D01*
X132627013Y-98410222D01*
X132628167Y-98415029D01*
X132628168Y-98415035D01*
X132663443Y-98561963D01*
X132683031Y-98643553D01*
X132684924Y-98648124D01*
X132684925Y-98648126D01*
X132758630Y-98826065D01*
X132774860Y-98865249D01*
X132900240Y-99069849D01*
X133056082Y-99252318D01*
X133238551Y-99408160D01*
X133443151Y-99533540D01*
X133447721Y-99535433D01*
X133447723Y-99535434D01*
X133660274Y-99623475D01*
X133664847Y-99625369D01*
X133746437Y-99644957D01*
X133893365Y-99680232D01*
X133893371Y-99680233D01*
X133898178Y-99681387D01*
X134137400Y-99700214D01*
X134376622Y-99681387D01*
X134381429Y-99680233D01*
X134381435Y-99680232D01*
X134528363Y-99644957D01*
X134609953Y-99625369D01*
X134614526Y-99623475D01*
X134827077Y-99535434D01*
X134827079Y-99535433D01*
X134831649Y-99533540D01*
X135036249Y-99408160D01*
X135218718Y-99252318D01*
X135374560Y-99069849D01*
X135499940Y-98865249D01*
X135516171Y-98826065D01*
X135589875Y-98648126D01*
X135589876Y-98648124D01*
X135591769Y-98643553D01*
X135611357Y-98561963D01*
X135646632Y-98415035D01*
X135646633Y-98415029D01*
X135647787Y-98410222D01*
X135666614Y-98171000D01*
X137688186Y-98171000D01*
X137707013Y-98410222D01*
X137708167Y-98415029D01*
X137708168Y-98415035D01*
X137743443Y-98561963D01*
X137763031Y-98643553D01*
X137764924Y-98648124D01*
X137764925Y-98648126D01*
X137838630Y-98826065D01*
X137854860Y-98865249D01*
X137980240Y-99069849D01*
X138136082Y-99252318D01*
X138318551Y-99408160D01*
X138523151Y-99533540D01*
X138527721Y-99535433D01*
X138527723Y-99535434D01*
X138740274Y-99623475D01*
X138744847Y-99625369D01*
X138826437Y-99644957D01*
X138973365Y-99680232D01*
X138973371Y-99680233D01*
X138978178Y-99681387D01*
X139217400Y-99700214D01*
X139456622Y-99681387D01*
X139461429Y-99680233D01*
X139461435Y-99680232D01*
X139608363Y-99644957D01*
X139689953Y-99625369D01*
X139694526Y-99623475D01*
X139907077Y-99535434D01*
X139907079Y-99535433D01*
X139911649Y-99533540D01*
X140116249Y-99408160D01*
X140298718Y-99252318D01*
X140454560Y-99069849D01*
X140534338Y-98939664D01*
X140586986Y-98892033D01*
X140641770Y-98879500D01*
X146554488Y-98879500D01*
X146563058Y-98879792D01*
X146613176Y-98883209D01*
X146613180Y-98883209D01*
X146620752Y-98883725D01*
X146628229Y-98882420D01*
X146628230Y-98882420D01*
X146654708Y-98877799D01*
X146683703Y-98872738D01*
X146690221Y-98871777D01*
X146753642Y-98864102D01*
X146760743Y-98861419D01*
X146763352Y-98860778D01*
X146779662Y-98856315D01*
X146782198Y-98855550D01*
X146789684Y-98854243D01*
X146848200Y-98828556D01*
X146854304Y-98826065D01*
X146906948Y-98806173D01*
X146906949Y-98806172D01*
X146914056Y-98803487D01*
X146920319Y-98799183D01*
X146922685Y-98797946D01*
X146937497Y-98789701D01*
X146939751Y-98788368D01*
X146946705Y-98785315D01*
X146997402Y-98746413D01*
X147002732Y-98742541D01*
X147049120Y-98710661D01*
X147049125Y-98710656D01*
X147055381Y-98706357D01*
X147096836Y-98659829D01*
X147101816Y-98654554D01*
X147978320Y-97778050D01*
X147984585Y-97772196D01*
X147985038Y-97771801D01*
X148028185Y-97734161D01*
X148064921Y-97681891D01*
X148068854Y-97676596D01*
X148090561Y-97648912D01*
X148104546Y-97633941D01*
X148109053Y-97630666D01*
X148236840Y-97488744D01*
X148332327Y-97323356D01*
X148391342Y-97141728D01*
X148411304Y-96951800D01*
X148396239Y-96808460D01*
X148392032Y-96768435D01*
X148392032Y-96768433D01*
X148391342Y-96761872D01*
X148332327Y-96580244D01*
X148236840Y-96414856D01*
X148179349Y-96351005D01*
X148113475Y-96277845D01*
X148113474Y-96277844D01*
X148109053Y-96272934D01*
X147954552Y-96160682D01*
X147948524Y-96157998D01*
X147948522Y-96157997D01*
X147786119Y-96085691D01*
X147786118Y-96085691D01*
X147780088Y-96083006D01*
X147686687Y-96063153D01*
X147599744Y-96044672D01*
X147599739Y-96044672D01*
X147593287Y-96043300D01*
X147402313Y-96043300D01*
X147395861Y-96044672D01*
X147395856Y-96044672D01*
X147308912Y-96063153D01*
X147215512Y-96083006D01*
X147209482Y-96085691D01*
X147209481Y-96085691D01*
X147047078Y-96157997D01*
X147047076Y-96157998D01*
X147041048Y-96160682D01*
X146886547Y-96272934D01*
X146882126Y-96277844D01*
X146882125Y-96277845D01*
X146816252Y-96351005D01*
X146758760Y-96414856D01*
X146663273Y-96580244D01*
X146604258Y-96761872D01*
X146603568Y-96768433D01*
X146603568Y-96768435D01*
X146599361Y-96808460D01*
X146584296Y-96951800D01*
X146584986Y-96958365D01*
X146598589Y-97087791D01*
X146585817Y-97157629D01*
X146562374Y-97190056D01*
X146326835Y-97425595D01*
X146264523Y-97459621D01*
X146237740Y-97462500D01*
X140641770Y-97462500D01*
X140573649Y-97442498D01*
X140534338Y-97402336D01*
X140454560Y-97272151D01*
X140298718Y-97089682D01*
X140116249Y-96933840D01*
X139911649Y-96808460D01*
X139907079Y-96806567D01*
X139907077Y-96806566D01*
X139694526Y-96718525D01*
X139694524Y-96718524D01*
X139689953Y-96716631D01*
X139607597Y-96696859D01*
X139461435Y-96661768D01*
X139461429Y-96661767D01*
X139456622Y-96660613D01*
X139217400Y-96641786D01*
X138978178Y-96660613D01*
X138973371Y-96661767D01*
X138973365Y-96661768D01*
X138827203Y-96696859D01*
X138744847Y-96716631D01*
X138740276Y-96718524D01*
X138740274Y-96718525D01*
X138527723Y-96806566D01*
X138527721Y-96806567D01*
X138523151Y-96808460D01*
X138318551Y-96933840D01*
X138136082Y-97089682D01*
X137980240Y-97272151D01*
X137854860Y-97476751D01*
X137852967Y-97481321D01*
X137852966Y-97481323D01*
X137764925Y-97693874D01*
X137763031Y-97698447D01*
X137761876Y-97703259D01*
X137708168Y-97926965D01*
X137708167Y-97926971D01*
X137707013Y-97931778D01*
X137688186Y-98171000D01*
X135666614Y-98171000D01*
X135647787Y-97931778D01*
X135612143Y-97783310D01*
X135615690Y-97712405D01*
X135645567Y-97664803D01*
X136959366Y-96351005D01*
X137021678Y-96316979D01*
X137048461Y-96314100D01*
X142388888Y-96314100D01*
X142397458Y-96314392D01*
X142447576Y-96317809D01*
X142447580Y-96317809D01*
X142455152Y-96318325D01*
X142462629Y-96317020D01*
X142462630Y-96317020D01*
X142489108Y-96312399D01*
X142518103Y-96307338D01*
X142524621Y-96306377D01*
X142588042Y-96298702D01*
X142595143Y-96296019D01*
X142597752Y-96295378D01*
X142614062Y-96290915D01*
X142616598Y-96290150D01*
X142624084Y-96288843D01*
X142682600Y-96263156D01*
X142688704Y-96260665D01*
X142741348Y-96240773D01*
X142741349Y-96240772D01*
X142748456Y-96238087D01*
X142754719Y-96233783D01*
X142757085Y-96232546D01*
X142771897Y-96224301D01*
X142774151Y-96222968D01*
X142781105Y-96219915D01*
X142831802Y-96181013D01*
X142837132Y-96177141D01*
X142883520Y-96145261D01*
X142883525Y-96145256D01*
X142889781Y-96140957D01*
X142931236Y-96094429D01*
X142936216Y-96089154D01*
X143558720Y-95466650D01*
X143564985Y-95460796D01*
X143602860Y-95427755D01*
X143608585Y-95422761D01*
X143645314Y-95370500D01*
X143649246Y-95365205D01*
X143683991Y-95320894D01*
X143688677Y-95314918D01*
X143691802Y-95307996D01*
X143693164Y-95305748D01*
X143701568Y-95291015D01*
X143702822Y-95288676D01*
X143707190Y-95282461D01*
X143709949Y-95275385D01*
X143709951Y-95275381D01*
X143730402Y-95222926D01*
X143732958Y-95216846D01*
X143756118Y-95165551D01*
X143759245Y-95158626D01*
X143760629Y-95151155D01*
X143761430Y-95148601D01*
X143766065Y-95132330D01*
X143766723Y-95129767D01*
X143769482Y-95122691D01*
X143771269Y-95109118D01*
X143802553Y-95041256D01*
X143812820Y-95029853D01*
X143817240Y-95024944D01*
X143839217Y-94986880D01*
X143909423Y-94865279D01*
X143909424Y-94865278D01*
X143912727Y-94859556D01*
X143971742Y-94677928D01*
X143991704Y-94488000D01*
X143971742Y-94298072D01*
X143912727Y-94116444D01*
X143817240Y-93951056D01*
X143689453Y-93809134D01*
X143534952Y-93696882D01*
X143528924Y-93694198D01*
X143528922Y-93694197D01*
X143366519Y-93621891D01*
X143366518Y-93621891D01*
X143360488Y-93619206D01*
X143267087Y-93599353D01*
X143180144Y-93580872D01*
X143180139Y-93580872D01*
X143173687Y-93579500D01*
X142982713Y-93579500D01*
X142976261Y-93580872D01*
X142976256Y-93580872D01*
X142889313Y-93599353D01*
X142795912Y-93619206D01*
X142789882Y-93621891D01*
X142789881Y-93621891D01*
X142627478Y-93694197D01*
X142627476Y-93694198D01*
X142621448Y-93696882D01*
X142466947Y-93809134D01*
X142339160Y-93951056D01*
X142243673Y-94116444D01*
X142184658Y-94298072D01*
X142164696Y-94488000D01*
X142184658Y-94677928D01*
X142186701Y-94684215D01*
X142186701Y-94684216D01*
X142199752Y-94724382D01*
X142201781Y-94795349D01*
X142169015Y-94852415D01*
X142161235Y-94860195D01*
X142098923Y-94894221D01*
X142072140Y-94897100D01*
X136731711Y-94897100D01*
X136723142Y-94896808D01*
X136673023Y-94893391D01*
X136673019Y-94893391D01*
X136665447Y-94892875D01*
X136602485Y-94903864D01*
X136595995Y-94904821D01*
X136532558Y-94912498D01*
X136525449Y-94915184D01*
X136522878Y-94915816D01*
X136506572Y-94920276D01*
X136504004Y-94921051D01*
X136496516Y-94922358D01*
X136461522Y-94937719D01*
X136438012Y-94948039D01*
X136431905Y-94950531D01*
X136379252Y-94970427D01*
X136372144Y-94973113D01*
X136365883Y-94977416D01*
X136363517Y-94978653D01*
X136348737Y-94986880D01*
X136346452Y-94988231D01*
X136339495Y-94991285D01*
X136333475Y-94995905D01*
X136333469Y-94995908D01*
X136303088Y-95019222D01*
X136288798Y-95030187D01*
X136283468Y-95034059D01*
X136237080Y-95065939D01*
X136237075Y-95065944D01*
X136230819Y-95070243D01*
X136225768Y-95075913D01*
X136225766Y-95075914D01*
X136189365Y-95116770D01*
X136184384Y-95122046D01*
X134643597Y-96662833D01*
X134581285Y-96696859D01*
X134525090Y-96696257D01*
X134452682Y-96678873D01*
X134381435Y-96661768D01*
X134381429Y-96661767D01*
X134376622Y-96660613D01*
X134137400Y-96641786D01*
X133898178Y-96660613D01*
X133893371Y-96661767D01*
X133893365Y-96661768D01*
X133747203Y-96696859D01*
X133664847Y-96716631D01*
X133660276Y-96718524D01*
X133660274Y-96718525D01*
X133447723Y-96806566D01*
X133447721Y-96806567D01*
X133443151Y-96808460D01*
X133238551Y-96933840D01*
X133056082Y-97089682D01*
X132900240Y-97272151D01*
X132774860Y-97476751D01*
X132772967Y-97481321D01*
X132772966Y-97481323D01*
X132684925Y-97693874D01*
X132683031Y-97698447D01*
X132681876Y-97703259D01*
X132628168Y-97926965D01*
X132628167Y-97926971D01*
X132627013Y-97931778D01*
X132608186Y-98171000D01*
X116459500Y-98171000D01*
X116459500Y-91109800D01*
X123184786Y-91109800D01*
X123203613Y-91349022D01*
X123204767Y-91353829D01*
X123204768Y-91353835D01*
X123232705Y-91470198D01*
X123259631Y-91582353D01*
X123261524Y-91586924D01*
X123261525Y-91586926D01*
X123323837Y-91737360D01*
X123351460Y-91804049D01*
X123476840Y-92008649D01*
X123480057Y-92012416D01*
X123480058Y-92012417D01*
X123528040Y-92068597D01*
X123632682Y-92191118D01*
X123815151Y-92346960D01*
X124019751Y-92472340D01*
X124024321Y-92474233D01*
X124024323Y-92474234D01*
X124236874Y-92562275D01*
X124241447Y-92564169D01*
X124323037Y-92583757D01*
X124469965Y-92619032D01*
X124469971Y-92619033D01*
X124474778Y-92620187D01*
X124714000Y-92639014D01*
X124953222Y-92620187D01*
X124958029Y-92619033D01*
X124958035Y-92619032D01*
X125104963Y-92583757D01*
X125186553Y-92564169D01*
X125191126Y-92562275D01*
X125403677Y-92474234D01*
X125403679Y-92474233D01*
X125408249Y-92472340D01*
X125612849Y-92346960D01*
X125795318Y-92191118D01*
X125899960Y-92068597D01*
X125947942Y-92012417D01*
X125947943Y-92012416D01*
X125951160Y-92008649D01*
X126000299Y-91928462D01*
X126052944Y-91880834D01*
X126107729Y-91868300D01*
X129740402Y-91868300D01*
X129808523Y-91888302D01*
X129841228Y-91918735D01*
X129887939Y-91981061D01*
X130004495Y-92068415D01*
X130140884Y-92119545D01*
X130203066Y-92126300D01*
X131137534Y-92126300D01*
X131199716Y-92119545D01*
X131299171Y-92082261D01*
X131369977Y-92077078D01*
X131387626Y-92082260D01*
X131487084Y-92119545D01*
X131549266Y-92126300D01*
X132483734Y-92126300D01*
X132545916Y-92119545D01*
X132682305Y-92068415D01*
X132798861Y-91981061D01*
X132883045Y-91868735D01*
X132939904Y-91826220D01*
X132983871Y-91818300D01*
X135408691Y-91818300D01*
X135476812Y-91838302D01*
X135497786Y-91855205D01*
X136091596Y-92449015D01*
X136125622Y-92511327D01*
X136128501Y-92538110D01*
X136128501Y-92656534D01*
X136135256Y-92718716D01*
X136186386Y-92855105D01*
X136273740Y-92971661D01*
X136390296Y-93059015D01*
X136526685Y-93110145D01*
X136588867Y-93116900D01*
X137040735Y-93116900D01*
X137102917Y-93110145D01*
X137110315Y-93107371D01*
X137110654Y-93107291D01*
X137168945Y-93107291D01*
X137169290Y-93107373D01*
X137176684Y-93110145D01*
X137238866Y-93116900D01*
X137690734Y-93116900D01*
X137752916Y-93110145D01*
X137760314Y-93107371D01*
X137760653Y-93107291D01*
X137818944Y-93107291D01*
X137819289Y-93107373D01*
X137826683Y-93110145D01*
X137888865Y-93116900D01*
X138340733Y-93116900D01*
X138402915Y-93110145D01*
X138539304Y-93059015D01*
X138655860Y-92971661D01*
X138687694Y-92929185D01*
X138744553Y-92886670D01*
X138788520Y-92878750D01*
X139779790Y-92878750D01*
X139847911Y-92898752D01*
X139868885Y-92915655D01*
X139882935Y-92929705D01*
X139916961Y-92992017D01*
X139919150Y-93005628D01*
X139924058Y-93052328D01*
X139983073Y-93233956D01*
X140078560Y-93399344D01*
X140206347Y-93541266D01*
X140360848Y-93653518D01*
X140366876Y-93656202D01*
X140366878Y-93656203D01*
X140529281Y-93728509D01*
X140535312Y-93731194D01*
X140628713Y-93751047D01*
X140715656Y-93769528D01*
X140715661Y-93769528D01*
X140722113Y-93770900D01*
X140913087Y-93770900D01*
X140919539Y-93769528D01*
X140919544Y-93769528D01*
X141006488Y-93751047D01*
X141099888Y-93731194D01*
X141105919Y-93728509D01*
X141268322Y-93656203D01*
X141268324Y-93656202D01*
X141274352Y-93653518D01*
X141428853Y-93541266D01*
X141556640Y-93399344D01*
X141652127Y-93233956D01*
X141711142Y-93052328D01*
X141731104Y-92862400D01*
X141716780Y-92726115D01*
X141711832Y-92679035D01*
X141711832Y-92679033D01*
X141711142Y-92672472D01*
X141652127Y-92490844D01*
X141556640Y-92325456D01*
X141428853Y-92183534D01*
X141289463Y-92082261D01*
X141279694Y-92075163D01*
X141279693Y-92075162D01*
X141274352Y-92071282D01*
X141268324Y-92068598D01*
X141268322Y-92068597D01*
X141105919Y-91996291D01*
X141105918Y-91996291D01*
X141099888Y-91993606D01*
X140947031Y-91961115D01*
X140884133Y-91926963D01*
X140646900Y-91689730D01*
X140641046Y-91683465D01*
X140640651Y-91683012D01*
X140603011Y-91639865D01*
X140550730Y-91603121D01*
X140545436Y-91599189D01*
X140501143Y-91564459D01*
X140495168Y-91559774D01*
X140488252Y-91556651D01*
X140485966Y-91555267D01*
X140471285Y-91546893D01*
X140468925Y-91545628D01*
X140462711Y-91541260D01*
X140455632Y-91538500D01*
X140455630Y-91538499D01*
X140403175Y-91518048D01*
X140397106Y-91515497D01*
X140338877Y-91489205D01*
X140331410Y-91487821D01*
X140328855Y-91487020D01*
X140312602Y-91482391D01*
X140310022Y-91481728D01*
X140302941Y-91478968D01*
X140295410Y-91477977D01*
X140295408Y-91477976D01*
X140265789Y-91474077D01*
X140239589Y-91470628D01*
X140233091Y-91469598D01*
X140170264Y-91457954D01*
X140162684Y-91458391D01*
X140162683Y-91458391D01*
X140108058Y-91461541D01*
X140100804Y-91461750D01*
X138788520Y-91461750D01*
X138720399Y-91441748D01*
X138687694Y-91411315D01*
X138661241Y-91376019D01*
X138655860Y-91368839D01*
X138539304Y-91281485D01*
X138402915Y-91230355D01*
X138340733Y-91223600D01*
X137888865Y-91223600D01*
X137826683Y-91230355D01*
X137819289Y-91233127D01*
X137818944Y-91233209D01*
X137760653Y-91233209D01*
X137760314Y-91233129D01*
X137752916Y-91230355D01*
X137690734Y-91223600D01*
X137238866Y-91223600D01*
X137176684Y-91230355D01*
X137169290Y-91233127D01*
X137168945Y-91233209D01*
X137110654Y-91233209D01*
X137110315Y-91233129D01*
X137102917Y-91230355D01*
X137040735Y-91223600D01*
X136922311Y-91223600D01*
X136854190Y-91203598D01*
X136833216Y-91186695D01*
X136794616Y-91148095D01*
X136760590Y-91085783D01*
X136765655Y-91014968D01*
X136794616Y-90969905D01*
X136833216Y-90931305D01*
X136895528Y-90897279D01*
X136922311Y-90894400D01*
X137040735Y-90894400D01*
X137102917Y-90887645D01*
X137110315Y-90884871D01*
X137110654Y-90884791D01*
X137168945Y-90884791D01*
X137169290Y-90884873D01*
X137176684Y-90887645D01*
X137238866Y-90894400D01*
X137690734Y-90894400D01*
X137752916Y-90887645D01*
X137760314Y-90884871D01*
X137760653Y-90884791D01*
X137818944Y-90884791D01*
X137819289Y-90884873D01*
X137826683Y-90887645D01*
X137888865Y-90894400D01*
X138340733Y-90894400D01*
X138402915Y-90887645D01*
X138539304Y-90836515D01*
X138655860Y-90749161D01*
X138660565Y-90742883D01*
X138722379Y-90709129D01*
X138749162Y-90706250D01*
X141150580Y-90706250D01*
X141169530Y-90707683D01*
X141183765Y-90709849D01*
X141183769Y-90709849D01*
X141190999Y-90710949D01*
X141198291Y-90710356D01*
X141198294Y-90710356D01*
X141243668Y-90706665D01*
X141253883Y-90706250D01*
X141261943Y-90706250D01*
X141275233Y-90704701D01*
X141290157Y-90702961D01*
X141294532Y-90702528D01*
X141359989Y-90697204D01*
X141359992Y-90697203D01*
X141367287Y-90696610D01*
X141374251Y-90694354D01*
X141380210Y-90693163D01*
X141386065Y-90691779D01*
X141393331Y-90690932D01*
X141461977Y-90666015D01*
X141466105Y-90664598D01*
X141528586Y-90644357D01*
X141528588Y-90644356D01*
X141535549Y-90642101D01*
X141541804Y-90638305D01*
X141547278Y-90635799D01*
X141552708Y-90633080D01*
X141559587Y-90630583D01*
X141620626Y-90590564D01*
X141624330Y-90588227D01*
X141686757Y-90550345D01*
X141695134Y-90542947D01*
X141695158Y-90542974D01*
X141698150Y-90540321D01*
X141701383Y-90537618D01*
X141707502Y-90533606D01*
X141760778Y-90477367D01*
X141763156Y-90474925D01*
X142347911Y-89890170D01*
X142362323Y-89877784D01*
X142373918Y-89869251D01*
X142373923Y-89869246D01*
X142379818Y-89864908D01*
X142384557Y-89859330D01*
X142384560Y-89859327D01*
X142414035Y-89824632D01*
X142420965Y-89817116D01*
X142426660Y-89811421D01*
X142444281Y-89789149D01*
X142447072Y-89785745D01*
X142489591Y-89735697D01*
X142489592Y-89735695D01*
X142494333Y-89730115D01*
X142497661Y-89723599D01*
X142501028Y-89718550D01*
X142504195Y-89713421D01*
X142508734Y-89707684D01*
X142539655Y-89641525D01*
X142541562Y-89637624D01*
X142565576Y-89590597D01*
X142614370Y-89539025D01*
X142677792Y-89521899D01*
X147375828Y-89521899D01*
X147443949Y-89541901D01*
X147464923Y-89558804D01*
X147957144Y-90051025D01*
X147991170Y-90113337D01*
X147990567Y-90169535D01*
X147968613Y-90260978D01*
X147949786Y-90500200D01*
X147968613Y-90739422D01*
X147969767Y-90744229D01*
X147969768Y-90744235D01*
X147970951Y-90749161D01*
X148024631Y-90972753D01*
X148026524Y-90977324D01*
X148026525Y-90977326D01*
X148097260Y-91148095D01*
X148116460Y-91194449D01*
X148241840Y-91399049D01*
X148397682Y-91581518D01*
X148401444Y-91584731D01*
X148517048Y-91683465D01*
X148580151Y-91737360D01*
X148784751Y-91862740D01*
X148789321Y-91864633D01*
X148789323Y-91864634D01*
X148943426Y-91928465D01*
X149006447Y-91954569D01*
X149086883Y-91973880D01*
X149234965Y-92009432D01*
X149234971Y-92009433D01*
X149239778Y-92010587D01*
X149479000Y-92029414D01*
X149718222Y-92010587D01*
X149723029Y-92009433D01*
X149723035Y-92009432D01*
X149871117Y-91973880D01*
X149951553Y-91954569D01*
X150014574Y-91928465D01*
X150168677Y-91864634D01*
X150168679Y-91864633D01*
X150173249Y-91862740D01*
X150377849Y-91737360D01*
X150440953Y-91683465D01*
X150556556Y-91584731D01*
X150560318Y-91581518D01*
X150716160Y-91399049D01*
X150841540Y-91194449D01*
X150860741Y-91148095D01*
X150931475Y-90977326D01*
X150931476Y-90977324D01*
X150933369Y-90972753D01*
X150987049Y-90749161D01*
X150988232Y-90744235D01*
X150988233Y-90744229D01*
X150989387Y-90739422D01*
X151008214Y-90500200D01*
X150989387Y-90260978D01*
X150988233Y-90256171D01*
X150988232Y-90256165D01*
X150949667Y-90095533D01*
X150933369Y-90027647D01*
X150908466Y-89967526D01*
X150843434Y-89810523D01*
X150843433Y-89810521D01*
X150841540Y-89805951D01*
X150716160Y-89601351D01*
X150560318Y-89418882D01*
X150528708Y-89391885D01*
X150381617Y-89266258D01*
X150381616Y-89266257D01*
X150377849Y-89263040D01*
X150173249Y-89137660D01*
X150168679Y-89135767D01*
X150168677Y-89135766D01*
X149956126Y-89047725D01*
X149956124Y-89047724D01*
X149951553Y-89045831D01*
X149850966Y-89021682D01*
X149723035Y-88990968D01*
X149723029Y-88990967D01*
X149718222Y-88989813D01*
X149479000Y-88970986D01*
X149239778Y-88989813D01*
X149148335Y-89011767D01*
X149077427Y-89008221D01*
X149029825Y-88978344D01*
X148325969Y-88274488D01*
X148313583Y-88260076D01*
X148305050Y-88248481D01*
X148305045Y-88248476D01*
X148300707Y-88242581D01*
X148295129Y-88237842D01*
X148295126Y-88237839D01*
X148260431Y-88208364D01*
X148252915Y-88201434D01*
X148247220Y-88195739D01*
X148241079Y-88190881D01*
X148224948Y-88178118D01*
X148221544Y-88175327D01*
X148171496Y-88132808D01*
X148171494Y-88132807D01*
X148165914Y-88128066D01*
X148159398Y-88124738D01*
X148154349Y-88121371D01*
X148149220Y-88118204D01*
X148143483Y-88113665D01*
X148077324Y-88082744D01*
X148073424Y-88080838D01*
X148008391Y-88047630D01*
X148001283Y-88045891D01*
X147995640Y-88043792D01*
X147989877Y-88041875D01*
X147983249Y-88038777D01*
X147911782Y-88023912D01*
X147907498Y-88022942D01*
X147905034Y-88022339D01*
X147836589Y-88005591D01*
X147830987Y-88005243D01*
X147830984Y-88005243D01*
X147825435Y-88004899D01*
X147825437Y-88004863D01*
X147821444Y-88004624D01*
X147817252Y-88004250D01*
X147810084Y-88002759D01*
X147743874Y-88004550D01*
X147732678Y-88004853D01*
X147729271Y-88004899D01*
X142838461Y-88004899D01*
X142770340Y-87984897D01*
X142723847Y-87931241D01*
X142713743Y-87860967D01*
X142746988Y-87792246D01*
X142798927Y-87737418D01*
X142801305Y-87734976D01*
X143871775Y-86664506D01*
X148599524Y-86664506D01*
X148605251Y-86672156D01*
X148780759Y-86779707D01*
X148789553Y-86784188D01*
X149002029Y-86872198D01*
X149011414Y-86875247D01*
X149235044Y-86928937D01*
X149244791Y-86930480D01*
X149474070Y-86948525D01*
X149483930Y-86948525D01*
X149713209Y-86930480D01*
X149722956Y-86928937D01*
X149946586Y-86875247D01*
X149955971Y-86872198D01*
X150168447Y-86784188D01*
X150177241Y-86779707D01*
X150349083Y-86674403D01*
X150358543Y-86663947D01*
X150354759Y-86655169D01*
X149491812Y-85792222D01*
X149477868Y-85784608D01*
X149476035Y-85784739D01*
X149469420Y-85788990D01*
X148606284Y-86652126D01*
X148599524Y-86664506D01*
X143871775Y-86664506D01*
X144310061Y-86226220D01*
X144324473Y-86213834D01*
X144336068Y-86205301D01*
X144336073Y-86205296D01*
X144341968Y-86200958D01*
X144346707Y-86195380D01*
X144346710Y-86195377D01*
X144376185Y-86160682D01*
X144383115Y-86153166D01*
X144388811Y-86147470D01*
X144391074Y-86144609D01*
X144391079Y-86144604D01*
X144406435Y-86125194D01*
X144409224Y-86121792D01*
X144451746Y-86071741D01*
X144451747Y-86071740D01*
X144456483Y-86066165D01*
X144459811Y-86059648D01*
X144463177Y-86054600D01*
X144466340Y-86049478D01*
X144470885Y-86043734D01*
X144501814Y-85977555D01*
X144503713Y-85973671D01*
X144536919Y-85908642D01*
X144538660Y-85901527D01*
X144540763Y-85895872D01*
X144542672Y-85890133D01*
X144545772Y-85883500D01*
X144560641Y-85812015D01*
X144561611Y-85807732D01*
X144566967Y-85785844D01*
X144578958Y-85736840D01*
X144579650Y-85725686D01*
X144579685Y-85725688D01*
X144579925Y-85721716D01*
X144580302Y-85717495D01*
X144581791Y-85710335D01*
X144579696Y-85632908D01*
X144579650Y-85629500D01*
X144579650Y-85425130D01*
X147950675Y-85425130D01*
X147968720Y-85654409D01*
X147970263Y-85664156D01*
X148023953Y-85887786D01*
X148027002Y-85897171D01*
X148115012Y-86109647D01*
X148119493Y-86118441D01*
X148224797Y-86290283D01*
X148235253Y-86299743D01*
X148244031Y-86295959D01*
X149106978Y-85433012D01*
X149113356Y-85421332D01*
X149843408Y-85421332D01*
X149843539Y-85423165D01*
X149847790Y-85429780D01*
X150710926Y-86292916D01*
X150723306Y-86299676D01*
X150730956Y-86293949D01*
X150838507Y-86118441D01*
X150842988Y-86109647D01*
X150930998Y-85897171D01*
X150934047Y-85887786D01*
X150987737Y-85664156D01*
X150989280Y-85654409D01*
X151007325Y-85425130D01*
X151007325Y-85415270D01*
X150989280Y-85185991D01*
X150987737Y-85176244D01*
X150934047Y-84952614D01*
X150930998Y-84943229D01*
X150842988Y-84730753D01*
X150838507Y-84721959D01*
X150733203Y-84550117D01*
X150722747Y-84540657D01*
X150713969Y-84544441D01*
X149851022Y-85407388D01*
X149843408Y-85421332D01*
X149113356Y-85421332D01*
X149114592Y-85419068D01*
X149114461Y-85417235D01*
X149110210Y-85410620D01*
X148247074Y-84547484D01*
X148234694Y-84540724D01*
X148227044Y-84546451D01*
X148119493Y-84721959D01*
X148115012Y-84730753D01*
X148027002Y-84943229D01*
X148023953Y-84952614D01*
X147970263Y-85176244D01*
X147968720Y-85185991D01*
X147950675Y-85415270D01*
X147950675Y-85425130D01*
X144579650Y-85425130D01*
X144579650Y-85116374D01*
X144599652Y-85048253D01*
X144604823Y-85040810D01*
X144615629Y-85026391D01*
X144621015Y-85019205D01*
X144672145Y-84882816D01*
X144678900Y-84820634D01*
X144678900Y-84176453D01*
X148599457Y-84176453D01*
X148603241Y-84185231D01*
X149466188Y-85048178D01*
X149480132Y-85055792D01*
X149481965Y-85055661D01*
X149488580Y-85051410D01*
X150351716Y-84188274D01*
X150358476Y-84175894D01*
X150352749Y-84168244D01*
X150177241Y-84060693D01*
X150168447Y-84056212D01*
X149955971Y-83968202D01*
X149946586Y-83965153D01*
X149722956Y-83911463D01*
X149713209Y-83909920D01*
X149483930Y-83891875D01*
X149474070Y-83891875D01*
X149244791Y-83909920D01*
X149235044Y-83911463D01*
X149011414Y-83965153D01*
X149002029Y-83968202D01*
X148789553Y-84056212D01*
X148780759Y-84060693D01*
X148608917Y-84165997D01*
X148599457Y-84176453D01*
X144678900Y-84176453D01*
X144678900Y-83022566D01*
X144672145Y-82960384D01*
X144621015Y-82823995D01*
X144533661Y-82707439D01*
X144417105Y-82620085D01*
X144280716Y-82568955D01*
X144218534Y-82562200D01*
X143423766Y-82562200D01*
X143361584Y-82568955D01*
X143225195Y-82620085D01*
X143108639Y-82707439D01*
X143021285Y-82823995D01*
X142970155Y-82960384D01*
X142963400Y-83022566D01*
X142963400Y-84820634D01*
X142970155Y-84882816D01*
X143021285Y-85019205D01*
X143026671Y-85026391D01*
X143037477Y-85040810D01*
X143062324Y-85107317D01*
X143062650Y-85116374D01*
X143062650Y-85276079D01*
X143042648Y-85344200D01*
X143025745Y-85365174D01*
X142106322Y-86284597D01*
X142044010Y-86318623D01*
X142017227Y-86321502D01*
X141410867Y-86321502D01*
X141348685Y-86328257D01*
X141212296Y-86379387D01*
X141095740Y-86466741D01*
X141008386Y-86583297D01*
X140957256Y-86719686D01*
X140950501Y-86781868D01*
X140950501Y-87633734D01*
X140957256Y-87695916D01*
X141008386Y-87832305D01*
X141013771Y-87839490D01*
X141013772Y-87839492D01*
X141066641Y-87910035D01*
X141091489Y-87976542D01*
X141076436Y-88045924D01*
X141066641Y-88061165D01*
X141021066Y-88121976D01*
X141008386Y-88138895D01*
X140957256Y-88275284D01*
X140950501Y-88337466D01*
X140950501Y-89063250D01*
X140930499Y-89131371D01*
X140876843Y-89177864D01*
X140824501Y-89189250D01*
X138999299Y-89189250D01*
X138931178Y-89169248D01*
X138884685Y-89115592D01*
X138873299Y-89063250D01*
X138873299Y-84429498D01*
X138893301Y-84361377D01*
X138946957Y-84314884D01*
X139017231Y-84304780D01*
X139073810Y-84330620D01*
X139075096Y-84328904D01*
X139184351Y-84410786D01*
X139199946Y-84419324D01*
X139320394Y-84464478D01*
X139335649Y-84468105D01*
X139386514Y-84473631D01*
X139393328Y-84474000D01*
X139493685Y-84474000D01*
X139508924Y-84469525D01*
X139510129Y-84468135D01*
X139511800Y-84460452D01*
X139511800Y-84455884D01*
X140019800Y-84455884D01*
X140024275Y-84471123D01*
X140025665Y-84472328D01*
X140033348Y-84473999D01*
X140138269Y-84473999D01*
X140145090Y-84473629D01*
X140195952Y-84468105D01*
X140211204Y-84464479D01*
X140331654Y-84419324D01*
X140347249Y-84410786D01*
X140449324Y-84334285D01*
X140450106Y-84333503D01*
X140451070Y-84332977D01*
X140456504Y-84328904D01*
X140457092Y-84329688D01*
X140512418Y-84299477D01*
X140583233Y-84304542D01*
X140640069Y-84347089D01*
X140664880Y-84413609D01*
X140665201Y-84422598D01*
X140665201Y-84817169D01*
X140665571Y-84823990D01*
X140671095Y-84874852D01*
X140674721Y-84890104D01*
X140719876Y-85010554D01*
X140728414Y-85026149D01*
X140804915Y-85128224D01*
X140817476Y-85140785D01*
X140919551Y-85217286D01*
X140935146Y-85225824D01*
X141055594Y-85270978D01*
X141070849Y-85274605D01*
X141121714Y-85280131D01*
X141128528Y-85280500D01*
X141250335Y-85280500D01*
X141265574Y-85276025D01*
X141266779Y-85274635D01*
X141268450Y-85266952D01*
X141268450Y-85262384D01*
X141776450Y-85262384D01*
X141780925Y-85277623D01*
X141782315Y-85278828D01*
X141789998Y-85280499D01*
X141916369Y-85280499D01*
X141923190Y-85280129D01*
X141974052Y-85274605D01*
X141989304Y-85270979D01*
X142109754Y-85225824D01*
X142125349Y-85217286D01*
X142227424Y-85140785D01*
X142239985Y-85128224D01*
X142316486Y-85026149D01*
X142325024Y-85010554D01*
X142370178Y-84890106D01*
X142373805Y-84874851D01*
X142379331Y-84823986D01*
X142379700Y-84817172D01*
X142379700Y-84193715D01*
X142375225Y-84178476D01*
X142373835Y-84177271D01*
X142366152Y-84175600D01*
X141794565Y-84175600D01*
X141779326Y-84180075D01*
X141778121Y-84181465D01*
X141776450Y-84189148D01*
X141776450Y-85262384D01*
X141268450Y-85262384D01*
X141268450Y-83649485D01*
X141776450Y-83649485D01*
X141780925Y-83664724D01*
X141782315Y-83665929D01*
X141789998Y-83667600D01*
X142361584Y-83667600D01*
X142376823Y-83663125D01*
X142378028Y-83661735D01*
X142379699Y-83654052D01*
X142379699Y-83026031D01*
X142379329Y-83019210D01*
X142373805Y-82968348D01*
X142370179Y-82953096D01*
X142325024Y-82832646D01*
X142316486Y-82817051D01*
X142239985Y-82714976D01*
X142227424Y-82702415D01*
X142125349Y-82625914D01*
X142109754Y-82617376D01*
X141989306Y-82572222D01*
X141974051Y-82568595D01*
X141923186Y-82563069D01*
X141916372Y-82562700D01*
X141794565Y-82562700D01*
X141779326Y-82567175D01*
X141778121Y-82568565D01*
X141776450Y-82576248D01*
X141776450Y-83649485D01*
X141268450Y-83649485D01*
X141268450Y-82580816D01*
X141263975Y-82565577D01*
X141262585Y-82564372D01*
X141254902Y-82562701D01*
X141128531Y-82562701D01*
X141121710Y-82563071D01*
X141070848Y-82568595D01*
X141055596Y-82572221D01*
X140935146Y-82617376D01*
X140919551Y-82625914D01*
X140817476Y-82702415D01*
X140804915Y-82714976D01*
X140728414Y-82817051D01*
X140715566Y-82840518D01*
X140714176Y-82839757D01*
X140677594Y-82888459D01*
X140611033Y-82913161D01*
X140541683Y-82897955D01*
X140501424Y-82863033D01*
X140461883Y-82810274D01*
X140449324Y-82797715D01*
X140347249Y-82721214D01*
X140331654Y-82712676D01*
X140211206Y-82667522D01*
X140195951Y-82663895D01*
X140145086Y-82658369D01*
X140138272Y-82658000D01*
X140037915Y-82658000D01*
X140022676Y-82662475D01*
X140021471Y-82663865D01*
X140019800Y-82671548D01*
X140019800Y-84455884D01*
X139511800Y-84455884D01*
X139511800Y-82676116D01*
X139507325Y-82660877D01*
X139505935Y-82659672D01*
X139498252Y-82658001D01*
X139393331Y-82658001D01*
X139386510Y-82658371D01*
X139335648Y-82663895D01*
X139320396Y-82667521D01*
X139199946Y-82712676D01*
X139184351Y-82721214D01*
X139082276Y-82797715D01*
X139069714Y-82810277D01*
X139045526Y-82842551D01*
X138988667Y-82885066D01*
X138917848Y-82890092D01*
X138855555Y-82856032D01*
X138821565Y-82793701D01*
X138818700Y-82766986D01*
X138818700Y-81954312D01*
X138818992Y-81945742D01*
X138822409Y-81895624D01*
X138822409Y-81895620D01*
X138822925Y-81888048D01*
X138811939Y-81825103D01*
X138810977Y-81818582D01*
X138809720Y-81808194D01*
X138803302Y-81755158D01*
X138800616Y-81748050D01*
X138799979Y-81745456D01*
X138795518Y-81729150D01*
X138794748Y-81726599D01*
X138793442Y-81719116D01*
X138782407Y-81693978D01*
X138767761Y-81660612D01*
X138765269Y-81654505D01*
X138745373Y-81601852D01*
X138745373Y-81601851D01*
X138742687Y-81594744D01*
X138738384Y-81588483D01*
X138737147Y-81586117D01*
X138728920Y-81571337D01*
X138727569Y-81569052D01*
X138724515Y-81562095D01*
X138719895Y-81556075D01*
X138719892Y-81556069D01*
X138685621Y-81511409D01*
X138681741Y-81506068D01*
X138649861Y-81459680D01*
X138649856Y-81459675D01*
X138645557Y-81453419D01*
X138599029Y-81411964D01*
X138593754Y-81406984D01*
X138189450Y-81002680D01*
X138183596Y-80996415D01*
X138179057Y-80991212D01*
X138145561Y-80952815D01*
X138093280Y-80916071D01*
X138087986Y-80912139D01*
X138043693Y-80877409D01*
X138037718Y-80872724D01*
X138030802Y-80869601D01*
X138028516Y-80868217D01*
X138013835Y-80859843D01*
X138011475Y-80858578D01*
X138005261Y-80854210D01*
X137998182Y-80851450D01*
X137998180Y-80851449D01*
X137945725Y-80830998D01*
X137939656Y-80828447D01*
X137881427Y-80802155D01*
X137873960Y-80800771D01*
X137871405Y-80799970D01*
X137855152Y-80795341D01*
X137852572Y-80794678D01*
X137845491Y-80791918D01*
X137837960Y-80790927D01*
X137837958Y-80790926D01*
X137808339Y-80787027D01*
X137782139Y-80783578D01*
X137775641Y-80782548D01*
X137712814Y-80770904D01*
X137705234Y-80771341D01*
X137705233Y-80771341D01*
X137650608Y-80774491D01*
X137643354Y-80774700D01*
X133175712Y-80774700D01*
X133167142Y-80774408D01*
X133117024Y-80770991D01*
X133117020Y-80770991D01*
X133109448Y-80770475D01*
X133101971Y-80771780D01*
X133101970Y-80771780D01*
X133085240Y-80774700D01*
X133046503Y-80781461D01*
X133039986Y-80782422D01*
X132976558Y-80790098D01*
X132969450Y-80792784D01*
X132966856Y-80793421D01*
X132950550Y-80797882D01*
X132947999Y-80798652D01*
X132940516Y-80799958D01*
X132933564Y-80803010D01*
X132933563Y-80803010D01*
X132882012Y-80825639D01*
X132875905Y-80828131D01*
X132868318Y-80830998D01*
X132816144Y-80850713D01*
X132809883Y-80855016D01*
X132807517Y-80856253D01*
X132792737Y-80864480D01*
X132790452Y-80865831D01*
X132783495Y-80868885D01*
X132777475Y-80873505D01*
X132777469Y-80873508D01*
X132746342Y-80897394D01*
X132732798Y-80907787D01*
X132727468Y-80911659D01*
X132681080Y-80943539D01*
X132681075Y-80943544D01*
X132674819Y-80947843D01*
X132669768Y-80953513D01*
X132669766Y-80953514D01*
X132633365Y-80994370D01*
X132628384Y-80999646D01*
X131822881Y-81805149D01*
X131816616Y-81811003D01*
X131773016Y-81849038D01*
X131757094Y-81871693D01*
X131736273Y-81901318D01*
X131732340Y-81906613D01*
X131692925Y-81956881D01*
X131689802Y-81963797D01*
X131688418Y-81966083D01*
X131680044Y-81980764D01*
X131678779Y-81983124D01*
X131674411Y-81989338D01*
X131671651Y-81996417D01*
X131671650Y-81996419D01*
X131651199Y-82048874D01*
X131648648Y-82054943D01*
X131622356Y-82113172D01*
X131620972Y-82120639D01*
X131620171Y-82123194D01*
X131615542Y-82139447D01*
X131614879Y-82142027D01*
X131612119Y-82149108D01*
X131603879Y-82211702D01*
X131603780Y-82212451D01*
X131602749Y-82218958D01*
X131591105Y-82281785D01*
X131591542Y-82289365D01*
X131591542Y-82289366D01*
X131594692Y-82343991D01*
X131594901Y-82351245D01*
X131594901Y-83109300D01*
X131574899Y-83177421D01*
X131521243Y-83223914D01*
X131468901Y-83235300D01*
X131402065Y-83235300D01*
X131398668Y-83235669D01*
X131356268Y-83240275D01*
X131339883Y-83242055D01*
X131339698Y-83240354D01*
X131312542Y-83242085D01*
X131258087Y-83236169D01*
X131251273Y-83235800D01*
X131224716Y-83235800D01*
X131209477Y-83240275D01*
X131208272Y-83241665D01*
X131205794Y-83253058D01*
X131171770Y-83315371D01*
X131158242Y-83327100D01*
X131086938Y-83380539D01*
X131081557Y-83387719D01*
X131027027Y-83460478D01*
X130970168Y-83502993D01*
X130899349Y-83508019D01*
X130837056Y-83473959D01*
X130803066Y-83411628D01*
X130800201Y-83384913D01*
X130800201Y-83253916D01*
X130795726Y-83238677D01*
X130794336Y-83237472D01*
X130786653Y-83235801D01*
X130755532Y-83235801D01*
X130748711Y-83236171D01*
X130697849Y-83241695D01*
X130682597Y-83245321D01*
X130562147Y-83290476D01*
X130546552Y-83299014D01*
X130444477Y-83375515D01*
X130431916Y-83388076D01*
X130355415Y-83490151D01*
X130346877Y-83505746D01*
X130301723Y-83626194D01*
X130298096Y-83641449D01*
X130292570Y-83692314D01*
X130292201Y-83699128D01*
X130292201Y-83960635D01*
X130296676Y-83975874D01*
X130298066Y-83977079D01*
X130305749Y-83978750D01*
X130800201Y-83978750D01*
X130800201Y-83979303D01*
X130851195Y-83979302D01*
X130910922Y-84017684D01*
X130940416Y-84082265D01*
X130941699Y-84100199D01*
X130941699Y-84262521D01*
X130921697Y-84330642D01*
X130868041Y-84377135D01*
X130797767Y-84387239D01*
X130788919Y-84385642D01*
X130786657Y-84385150D01*
X130310317Y-84385150D01*
X130295078Y-84389625D01*
X130293873Y-84391015D01*
X130292202Y-84398698D01*
X130292202Y-84664769D01*
X130292572Y-84671590D01*
X130298096Y-84722452D01*
X130301722Y-84737704D01*
X130346877Y-84858154D01*
X130355415Y-84873749D01*
X130431916Y-84975824D01*
X130444477Y-84988385D01*
X130546552Y-85064886D01*
X130562147Y-85073424D01*
X130682595Y-85118578D01*
X130697850Y-85122205D01*
X130748715Y-85127731D01*
X130755529Y-85128100D01*
X130782086Y-85128100D01*
X130797325Y-85123625D01*
X130798530Y-85122235D01*
X130800201Y-85114552D01*
X130800201Y-84978987D01*
X130820203Y-84910866D01*
X130873859Y-84864373D01*
X130944133Y-84854269D01*
X131008713Y-84883763D01*
X131027027Y-84903422D01*
X131086938Y-84983361D01*
X131094118Y-84988742D01*
X131094119Y-84988743D01*
X131159167Y-85037494D01*
X131201682Y-85094354D01*
X131204498Y-85102822D01*
X131211075Y-85125223D01*
X131212466Y-85126428D01*
X131220149Y-85128099D01*
X131251270Y-85128099D01*
X131258089Y-85127730D01*
X131312543Y-85121815D01*
X131339701Y-85123522D01*
X131339883Y-85121845D01*
X131394066Y-85127731D01*
X131402065Y-85128600D01*
X131904733Y-85128600D01*
X131908128Y-85128231D01*
X131908132Y-85128231D01*
X131964793Y-85122076D01*
X131992007Y-85122076D01*
X132048668Y-85128231D01*
X132048672Y-85128231D01*
X132052067Y-85128600D01*
X132554735Y-85128600D01*
X132558130Y-85128231D01*
X132558134Y-85128231D01*
X132614793Y-85122076D01*
X132642007Y-85122076D01*
X132698666Y-85128231D01*
X132698670Y-85128231D01*
X132702065Y-85128600D01*
X133204733Y-85128600D01*
X133266915Y-85121845D01*
X133403304Y-85070715D01*
X133519860Y-84983361D01*
X133551694Y-84940885D01*
X133608553Y-84898370D01*
X133652520Y-84890450D01*
X135144290Y-84890450D01*
X135212411Y-84910452D01*
X135233385Y-84927355D01*
X135361735Y-85055705D01*
X135395761Y-85118017D01*
X135397950Y-85131628D01*
X135402858Y-85178328D01*
X135404898Y-85184605D01*
X135404898Y-85184607D01*
X135430170Y-85262384D01*
X135461873Y-85359956D01*
X135557360Y-85525344D01*
X135561778Y-85530251D01*
X135561779Y-85530252D01*
X135676604Y-85657778D01*
X135685147Y-85667266D01*
X135839648Y-85779518D01*
X135845676Y-85782202D01*
X135845678Y-85782203D01*
X135907858Y-85809887D01*
X136014112Y-85857194D01*
X136099110Y-85875261D01*
X136194456Y-85895528D01*
X136194461Y-85895528D01*
X136200913Y-85896900D01*
X136391887Y-85896900D01*
X136398339Y-85895528D01*
X136398344Y-85895528D01*
X136493690Y-85875261D01*
X136578688Y-85857194D01*
X136684942Y-85809887D01*
X136747122Y-85782203D01*
X136747124Y-85782202D01*
X136753152Y-85779518D01*
X136907653Y-85667266D01*
X136916196Y-85657778D01*
X137031021Y-85530252D01*
X137031022Y-85530251D01*
X137035440Y-85525344D01*
X137121180Y-85376838D01*
X137172562Y-85327845D01*
X137242276Y-85314409D01*
X137308187Y-85340795D01*
X137349369Y-85398627D01*
X137356299Y-85439838D01*
X137356299Y-88875564D01*
X137336297Y-88943685D01*
X137282641Y-88990178D01*
X137238850Y-89000953D01*
X137238866Y-89001100D01*
X137176684Y-89007855D01*
X137169286Y-89010629D01*
X137168947Y-89010709D01*
X137110656Y-89010709D01*
X137110311Y-89010627D01*
X137102917Y-89007855D01*
X137040735Y-89001100D01*
X136588867Y-89001100D01*
X136526685Y-89007855D01*
X136390296Y-89058985D01*
X136273740Y-89146339D01*
X136186386Y-89262895D01*
X136135256Y-89399284D01*
X136128501Y-89461466D01*
X136128501Y-89579890D01*
X136108499Y-89648011D01*
X136091596Y-89668985D01*
X135396186Y-90364395D01*
X135333874Y-90398421D01*
X135307091Y-90401300D01*
X132983871Y-90401300D01*
X132915750Y-90381298D01*
X132883045Y-90350865D01*
X132804243Y-90245720D01*
X132804242Y-90245719D01*
X132798861Y-90238539D01*
X132682305Y-90151185D01*
X132545916Y-90100055D01*
X132483734Y-90093300D01*
X132480972Y-90093300D01*
X132414150Y-90069688D01*
X132370624Y-90013599D01*
X132361899Y-89967526D01*
X132361899Y-89040259D01*
X132381901Y-88972138D01*
X132435557Y-88925645D01*
X132505831Y-88915541D01*
X132570411Y-88945035D01*
X132576994Y-88951164D01*
X132643935Y-89018105D01*
X132677961Y-89080417D01*
X132680150Y-89094028D01*
X132685058Y-89140728D01*
X132744073Y-89322356D01*
X132839560Y-89487744D01*
X132843978Y-89492651D01*
X132843979Y-89492652D01*
X132932169Y-89590597D01*
X132967347Y-89629666D01*
X133021465Y-89668985D01*
X133113286Y-89735697D01*
X133121848Y-89741918D01*
X133127876Y-89744602D01*
X133127878Y-89744603D01*
X133290281Y-89816909D01*
X133296312Y-89819594D01*
X133389713Y-89839447D01*
X133476656Y-89857928D01*
X133476661Y-89857928D01*
X133483113Y-89859300D01*
X133674087Y-89859300D01*
X133680539Y-89857928D01*
X133680544Y-89857928D01*
X133767487Y-89839447D01*
X133860888Y-89819594D01*
X133866919Y-89816909D01*
X134029322Y-89744603D01*
X134029324Y-89744602D01*
X134035352Y-89741918D01*
X134043915Y-89735697D01*
X134135735Y-89668985D01*
X134189853Y-89629666D01*
X134225031Y-89590597D01*
X134313221Y-89492652D01*
X134313222Y-89492651D01*
X134317640Y-89487744D01*
X134413127Y-89322356D01*
X134472142Y-89140728D01*
X134473126Y-89131371D01*
X134491414Y-88957365D01*
X134492104Y-88950800D01*
X134488398Y-88915541D01*
X134472832Y-88767435D01*
X134472832Y-88767433D01*
X134472142Y-88760872D01*
X134413127Y-88579244D01*
X134317640Y-88413856D01*
X134189853Y-88271934D01*
X134058843Y-88176749D01*
X134040694Y-88163563D01*
X134040693Y-88163562D01*
X134035352Y-88159682D01*
X134029324Y-88156998D01*
X134029322Y-88156997D01*
X133866919Y-88084691D01*
X133866918Y-88084691D01*
X133860888Y-88082006D01*
X133708031Y-88049515D01*
X133645133Y-88015363D01*
X133463815Y-87834045D01*
X133429789Y-87771733D01*
X133434854Y-87700918D01*
X133477345Y-87644124D01*
X133491209Y-87633734D01*
X133519860Y-87612261D01*
X133551694Y-87569785D01*
X133608553Y-87527270D01*
X133652520Y-87519350D01*
X134540002Y-87519350D01*
X134608123Y-87539352D01*
X134633638Y-87561039D01*
X134643747Y-87572266D01*
X134665329Y-87587946D01*
X134742651Y-87644124D01*
X134798248Y-87684518D01*
X134804276Y-87687202D01*
X134804278Y-87687203D01*
X134966681Y-87759509D01*
X134972712Y-87762194D01*
X135066112Y-87782047D01*
X135153056Y-87800528D01*
X135153061Y-87800528D01*
X135159513Y-87801900D01*
X135350487Y-87801900D01*
X135356939Y-87800528D01*
X135356944Y-87800528D01*
X135443888Y-87782047D01*
X135537288Y-87762194D01*
X135543319Y-87759509D01*
X135705722Y-87687203D01*
X135705724Y-87687202D01*
X135711752Y-87684518D01*
X135866253Y-87572266D01*
X135878986Y-87558125D01*
X135989621Y-87435252D01*
X135989622Y-87435251D01*
X135994040Y-87430344D01*
X136078530Y-87284003D01*
X136086223Y-87270679D01*
X136086224Y-87270678D01*
X136089527Y-87264956D01*
X136148542Y-87083328D01*
X136168504Y-86893400D01*
X136157141Y-86785285D01*
X136149232Y-86710035D01*
X136149232Y-86710033D01*
X136148542Y-86703472D01*
X136089527Y-86521844D01*
X135994040Y-86356456D01*
X135967882Y-86327404D01*
X135870675Y-86219445D01*
X135870674Y-86219444D01*
X135866253Y-86214534D01*
X135738605Y-86121792D01*
X135717094Y-86106163D01*
X135717093Y-86106162D01*
X135711752Y-86102282D01*
X135705724Y-86099598D01*
X135705722Y-86099597D01*
X135543319Y-86027291D01*
X135543318Y-86027291D01*
X135537288Y-86024606D01*
X135440618Y-86004058D01*
X135356944Y-85986272D01*
X135356939Y-85986272D01*
X135350487Y-85984900D01*
X135159513Y-85984900D01*
X135153061Y-85986272D01*
X135153056Y-85986272D01*
X135069382Y-86004058D01*
X134972712Y-86024606D01*
X134966685Y-86027289D01*
X134966677Y-86027292D01*
X134822560Y-86091457D01*
X134771312Y-86102350D01*
X133652520Y-86102350D01*
X133584399Y-86082348D01*
X133551694Y-86051915D01*
X133544722Y-86042612D01*
X133519860Y-86009439D01*
X133403304Y-85922085D01*
X133266915Y-85870955D01*
X133204733Y-85864200D01*
X132702065Y-85864200D01*
X132698670Y-85864569D01*
X132698666Y-85864569D01*
X132642007Y-85870724D01*
X132614793Y-85870724D01*
X132558134Y-85864569D01*
X132558130Y-85864569D01*
X132554735Y-85864200D01*
X132052067Y-85864200D01*
X132048672Y-85864569D01*
X132048668Y-85864569D01*
X131992007Y-85870724D01*
X131964793Y-85870724D01*
X131908132Y-85864569D01*
X131908128Y-85864569D01*
X131904733Y-85864200D01*
X131402065Y-85864200D01*
X131398670Y-85864569D01*
X131398666Y-85864569D01*
X131342007Y-85870724D01*
X131314793Y-85870724D01*
X131258134Y-85864569D01*
X131258130Y-85864569D01*
X131254735Y-85864200D01*
X130752067Y-85864200D01*
X130689885Y-85870955D01*
X130553496Y-85922085D01*
X130436940Y-86009439D01*
X130349586Y-86125995D01*
X130298456Y-86262384D01*
X130291701Y-86324566D01*
X130291701Y-87297134D01*
X130292070Y-87300531D01*
X130294164Y-87319807D01*
X130294901Y-87333415D01*
X130294901Y-89970270D01*
X130274899Y-90038391D01*
X130221243Y-90084884D01*
X130182509Y-90095533D01*
X130173051Y-90096561D01*
X130140884Y-90100055D01*
X130004495Y-90151185D01*
X129887939Y-90238539D01*
X129882557Y-90245720D01*
X129841228Y-90300865D01*
X129784369Y-90343380D01*
X129740402Y-90351300D01*
X126107729Y-90351300D01*
X126039608Y-90331298D01*
X126000300Y-90291139D01*
X125951160Y-90210951D01*
X125904716Y-90156571D01*
X125798531Y-90032244D01*
X125795318Y-90028482D01*
X125612849Y-89872640D01*
X125408249Y-89747260D01*
X125403679Y-89745367D01*
X125403677Y-89745366D01*
X125191126Y-89657325D01*
X125191124Y-89657324D01*
X125186553Y-89655431D01*
X125095408Y-89633549D01*
X124958035Y-89600568D01*
X124958029Y-89600567D01*
X124953222Y-89599413D01*
X124714000Y-89580586D01*
X124474778Y-89599413D01*
X124469971Y-89600567D01*
X124469965Y-89600568D01*
X124332592Y-89633549D01*
X124241447Y-89655431D01*
X124236876Y-89657324D01*
X124236874Y-89657325D01*
X124024323Y-89745366D01*
X124024321Y-89745367D01*
X124019751Y-89747260D01*
X123815151Y-89872640D01*
X123632682Y-90028482D01*
X123629469Y-90032244D01*
X123523285Y-90156571D01*
X123476840Y-90210951D01*
X123351460Y-90415551D01*
X123349567Y-90420121D01*
X123349566Y-90420123D01*
X123262391Y-90630583D01*
X123259631Y-90637247D01*
X123258476Y-90642059D01*
X123204768Y-90865765D01*
X123204767Y-90865771D01*
X123203613Y-90870578D01*
X123184786Y-91109800D01*
X116459500Y-91109800D01*
X116459500Y-87274106D01*
X123834524Y-87274106D01*
X123840251Y-87281756D01*
X124015759Y-87389307D01*
X124024553Y-87393788D01*
X124237029Y-87481798D01*
X124246414Y-87484847D01*
X124470044Y-87538537D01*
X124479791Y-87540080D01*
X124709070Y-87558125D01*
X124718930Y-87558125D01*
X124948209Y-87540080D01*
X124957956Y-87538537D01*
X125181586Y-87484847D01*
X125190971Y-87481798D01*
X125403447Y-87393788D01*
X125412241Y-87389307D01*
X125584083Y-87284003D01*
X125593543Y-87273547D01*
X125589759Y-87264769D01*
X124726812Y-86401822D01*
X124712868Y-86394208D01*
X124711035Y-86394339D01*
X124704420Y-86398590D01*
X123841284Y-87261726D01*
X123834524Y-87274106D01*
X116459500Y-87274106D01*
X116459500Y-86034730D01*
X123185675Y-86034730D01*
X123203720Y-86264009D01*
X123205263Y-86273756D01*
X123258953Y-86497386D01*
X123262002Y-86506771D01*
X123350012Y-86719247D01*
X123354493Y-86728041D01*
X123459797Y-86899883D01*
X123470253Y-86909343D01*
X123479031Y-86905559D01*
X124341978Y-86042612D01*
X124348356Y-86030932D01*
X125078408Y-86030932D01*
X125078539Y-86032765D01*
X125082790Y-86039380D01*
X125945926Y-86902516D01*
X125958306Y-86909276D01*
X125965956Y-86903549D01*
X126073507Y-86728041D01*
X126077988Y-86719247D01*
X126165998Y-86506771D01*
X126169047Y-86497386D01*
X126222737Y-86273756D01*
X126224280Y-86264009D01*
X126242325Y-86034730D01*
X126242325Y-86024870D01*
X126224280Y-85795591D01*
X126222737Y-85785844D01*
X126169047Y-85562214D01*
X126165998Y-85552829D01*
X126077988Y-85340353D01*
X126073507Y-85331559D01*
X125968203Y-85159717D01*
X125957747Y-85150257D01*
X125948969Y-85154041D01*
X125086022Y-86016988D01*
X125078408Y-86030932D01*
X124348356Y-86030932D01*
X124349592Y-86028668D01*
X124349461Y-86026835D01*
X124345210Y-86020220D01*
X123482074Y-85157084D01*
X123469694Y-85150324D01*
X123462044Y-85156051D01*
X123354493Y-85331559D01*
X123350012Y-85340353D01*
X123262002Y-85552829D01*
X123258953Y-85562214D01*
X123205263Y-85785844D01*
X123203720Y-85795591D01*
X123185675Y-86024870D01*
X123185675Y-86034730D01*
X116459500Y-86034730D01*
X116459500Y-84786053D01*
X123834457Y-84786053D01*
X123838241Y-84794831D01*
X124701188Y-85657778D01*
X124715132Y-85665392D01*
X124716965Y-85665261D01*
X124723580Y-85661010D01*
X125586716Y-84797874D01*
X125593476Y-84785494D01*
X125587749Y-84777844D01*
X125412241Y-84670293D01*
X125403447Y-84665812D01*
X125190971Y-84577802D01*
X125181586Y-84574753D01*
X124957956Y-84521063D01*
X124948209Y-84519520D01*
X124718930Y-84501475D01*
X124709070Y-84501475D01*
X124479791Y-84519520D01*
X124470044Y-84521063D01*
X124246414Y-84574753D01*
X124237029Y-84577802D01*
X124024553Y-84665812D01*
X124015759Y-84670293D01*
X123843917Y-84775597D01*
X123834457Y-84786053D01*
X116459500Y-84786053D01*
X116459500Y-80287381D01*
X116479502Y-80219260D01*
X116533158Y-80172767D01*
X116603432Y-80162663D01*
X116668012Y-80192157D01*
X116706396Y-80251883D01*
X116709268Y-80263769D01*
X116712355Y-80279954D01*
X116806006Y-80568181D01*
X116935042Y-80842398D01*
X116937166Y-80845744D01*
X116937166Y-80845745D01*
X116954785Y-80873508D01*
X117097430Y-81098280D01*
X117290608Y-81331792D01*
X117511529Y-81539250D01*
X117514731Y-81541577D01*
X117514733Y-81541578D01*
X117555693Y-81571337D01*
X117756710Y-81717384D01*
X117760179Y-81719291D01*
X117760182Y-81719293D01*
X117927001Y-81811003D01*
X118022283Y-81863385D01*
X118025952Y-81864838D01*
X118025957Y-81864840D01*
X118281668Y-81966083D01*
X118304061Y-81974949D01*
X118597600Y-82050316D01*
X118898270Y-82088300D01*
X119201330Y-82088300D01*
X119502000Y-82050316D01*
X119795539Y-81974949D01*
X119817932Y-81966083D01*
X120073643Y-81864840D01*
X120073648Y-81864838D01*
X120077317Y-81863385D01*
X120172599Y-81811003D01*
X120339418Y-81719293D01*
X120339421Y-81719291D01*
X120342890Y-81717384D01*
X120543907Y-81571337D01*
X120584867Y-81541578D01*
X120584869Y-81541577D01*
X120588071Y-81539250D01*
X120808992Y-81331792D01*
X121002170Y-81098280D01*
X121144815Y-80873508D01*
X121162434Y-80845745D01*
X121162434Y-80845744D01*
X121164558Y-80842398D01*
X121293594Y-80568181D01*
X121387245Y-80279954D01*
X121444033Y-79982262D01*
X121463062Y-79679800D01*
X121444033Y-79377338D01*
X121387245Y-79079646D01*
X121293594Y-78791419D01*
X121164558Y-78517202D01*
X121002170Y-78261320D01*
X120808992Y-78027808D01*
X120588071Y-77820350D01*
X120525151Y-77774636D01*
X120481797Y-77718414D01*
X120475722Y-77647678D01*
X120508853Y-77584886D01*
X120570673Y-77549975D01*
X120599212Y-77546700D01*
X152667331Y-77546700D01*
X152735452Y-77566702D01*
G37*
%TD.AperFunction*%
%TD*%
M02*
