%TF.GenerationSoftware,KiCad,Pcbnew,(6.0.10)*%
%TF.CreationDate,2023-02-10T15:15:15+05:30*%
%TF.ProjectId,protectionCkt,70726f74-6563-4746-996f-6e436b742e6b,rev?*%
%TF.SameCoordinates,Original*%
%TF.FileFunction,Drillmap*%
%TF.FilePolarity,Positive*%
%FSLAX45Y45*%
G04 Gerber Fmt 4.5, Leading zero omitted, Abs format (unit mm)*
G04 Created by KiCad (PCBNEW (6.0.10)) date 2023-02-10 15:15:15*
%MOMM*%
%LPD*%
G01*
G04 APERTURE LIST*
%ADD10C,0.100000*%
%ADD11C,0.200000*%
G04 APERTURE END LIST*
D10*
X11595100Y-7703820D02*
X15699740Y-7703820D01*
X15699740Y-7703820D02*
X15699740Y-10515600D01*
X15699740Y-10515600D02*
X11595100Y-10515600D01*
X11595100Y-10515600D02*
X11595100Y-7703820D01*
D11*
X11847719Y-10831076D02*
X11847719Y-10631076D01*
X11895338Y-10631076D01*
X11923909Y-10640600D01*
X11942957Y-10659648D01*
X11952481Y-10678695D01*
X11962005Y-10716790D01*
X11962005Y-10745362D01*
X11952481Y-10783457D01*
X11942957Y-10802505D01*
X11923909Y-10821552D01*
X11895338Y-10831076D01*
X11847719Y-10831076D01*
X12047719Y-10831076D02*
X12047719Y-10697743D01*
X12047719Y-10735838D02*
X12057243Y-10716790D01*
X12066767Y-10707267D01*
X12085814Y-10697743D01*
X12104862Y-10697743D01*
X12171528Y-10831076D02*
X12171528Y-10697743D01*
X12171528Y-10631076D02*
X12162005Y-10640600D01*
X12171528Y-10650124D01*
X12181052Y-10640600D01*
X12171528Y-10631076D01*
X12171528Y-10650124D01*
X12295338Y-10831076D02*
X12276290Y-10821552D01*
X12266767Y-10802505D01*
X12266767Y-10631076D01*
X12400100Y-10831076D02*
X12381052Y-10821552D01*
X12371528Y-10802505D01*
X12371528Y-10631076D01*
X12628671Y-10831076D02*
X12628671Y-10631076D01*
X12695338Y-10773933D01*
X12762005Y-10631076D01*
X12762005Y-10831076D01*
X12942957Y-10831076D02*
X12942957Y-10726314D01*
X12933433Y-10707267D01*
X12914386Y-10697743D01*
X12876290Y-10697743D01*
X12857243Y-10707267D01*
X12942957Y-10821552D02*
X12923909Y-10831076D01*
X12876290Y-10831076D01*
X12857243Y-10821552D01*
X12847719Y-10802505D01*
X12847719Y-10783457D01*
X12857243Y-10764410D01*
X12876290Y-10754886D01*
X12923909Y-10754886D01*
X12942957Y-10745362D01*
X13038195Y-10697743D02*
X13038195Y-10897743D01*
X13038195Y-10707267D02*
X13057243Y-10697743D01*
X13095338Y-10697743D01*
X13114386Y-10707267D01*
X13123909Y-10716790D01*
X13133433Y-10735838D01*
X13133433Y-10792981D01*
X13123909Y-10812029D01*
X13114386Y-10821552D01*
X13095338Y-10831076D01*
X13057243Y-10831076D01*
X13038195Y-10821552D01*
X13219148Y-10812029D02*
X13228671Y-10821552D01*
X13219148Y-10831076D01*
X13209624Y-10821552D01*
X13219148Y-10812029D01*
X13219148Y-10831076D01*
X13219148Y-10707267D02*
X13228671Y-10716790D01*
X13219148Y-10726314D01*
X13209624Y-10716790D01*
X13219148Y-10707267D01*
X13219148Y-10726314D01*
M02*
