%TF.GenerationSoftware,KiCad,Pcbnew,(6.0.10)*%
%TF.CreationDate,2023-02-03T17:51:54+05:30*%
%TF.ProjectId,protectionCkt,70726f74-6563-4746-996f-6e436b742e6b,rev?*%
%TF.SameCoordinates,Original*%
%TF.FileFunction,Copper,L2,Bot*%
%TF.FilePolarity,Positive*%
%FSLAX46Y46*%
G04 Gerber Fmt 4.6, Leading zero omitted, Abs format (unit mm)*
G04 Created by KiCad (PCBNEW (6.0.10)) date 2023-02-03 17:51:54*
%MOMM*%
%LPD*%
G01*
G04 APERTURE LIST*
%TA.AperFunction,ComponentPad*%
%ADD10C,3.800000*%
%TD*%
%TA.AperFunction,ComponentPad*%
%ADD11C,2.032000*%
%TD*%
%TA.AperFunction,ViaPad*%
%ADD12C,0.800000*%
%TD*%
%TA.AperFunction,Conductor*%
%ADD13C,0.400000*%
%TD*%
G04 APERTURE END LIST*
D10*
%TO.P,REF\u002A\u002A,1*%
%TO.N,N/C*%
X114300000Y-76200000D03*
%TD*%
D11*
%TO.P,U1,1,1*%
%TO.N,VCC*%
X118795800Y-85064600D03*
%TO.P,U1,2,2*%
%TO.N,GND*%
X118795800Y-90144600D03*
%TD*%
%TO.P,U2,1,1*%
%TO.N,Net-(U2-Pad1)*%
X134239000Y-101219000D03*
%TO.P,U2,2,2*%
%TO.N,Net-(U4-Pad1)*%
X139319000Y-101219000D03*
%TD*%
D10*
%TO.P,REF\u002A\u002A,1*%
%TO.N,N/C*%
X159969200Y-103784400D03*
%TD*%
D11*
%TO.P,U5,1,1*%
%TO.N,Net-(C1-Pad2)*%
X155270200Y-85064600D03*
%TO.P,U5,2,2*%
%TO.N,GND*%
X155270200Y-90144600D03*
%TD*%
D10*
%TO.P,REF\u002A\u002A,1*%
%TO.N,N/C*%
X114300000Y-103835200D03*
%TD*%
%TO.P,REF\u002A\u002A,1*%
%TO.N,N/C*%
X159893000Y-76200000D03*
%TD*%
D12*
%TO.N,Net-(U2-Pad1)*%
X143078200Y-94488000D03*
X135255000Y-86893400D03*
%TO.N,Net-(U4-Pad1)*%
X147497800Y-96951800D03*
X136296400Y-84988400D03*
%TO.N,Net-(U3-Pad3)*%
X133578600Y-88950800D03*
X140817600Y-92862400D03*
%TD*%
D13*
%TO.N,Net-(U2-Pad1)*%
X139293600Y-86893400D02*
X143027400Y-90627200D01*
X143078200Y-90678000D02*
X143078200Y-94488000D01*
X143027400Y-90627200D02*
X143078200Y-90678000D01*
X135255000Y-86893400D02*
X139293600Y-86893400D01*
%TO.N,Net-(U4-Pad1)*%
X147497800Y-88417400D02*
X147497800Y-96951800D01*
X144068800Y-84988400D02*
X146812000Y-87731600D01*
X136296400Y-84988400D02*
X144068800Y-84988400D01*
X146812000Y-87731600D02*
X147497800Y-88417400D01*
%TO.N,Net-(U3-Pad3)*%
X135077200Y-94589600D02*
X133578600Y-93091000D01*
X133578600Y-93091000D02*
X133578600Y-88950800D01*
X140817600Y-92862400D02*
X139090400Y-94589600D01*
X139090400Y-94589600D02*
X135077200Y-94589600D01*
%TD*%
%TA.AperFunction,NonConductor*%
G36*
X112888629Y-74036102D02*
G01*
X112935122Y-74089758D01*
X112945226Y-74160032D01*
X112915732Y-74224612D01*
X112894569Y-74244036D01*
X112761729Y-74340550D01*
X112540808Y-74548008D01*
X112538284Y-74551059D01*
X112466185Y-74638212D01*
X112407351Y-74677951D01*
X112336373Y-74679573D01*
X112275786Y-74642564D01*
X112244825Y-74578673D01*
X112243100Y-74557897D01*
X112243100Y-74142100D01*
X112263102Y-74073979D01*
X112316758Y-74027486D01*
X112369100Y-74016100D01*
X112820508Y-74016100D01*
X112888629Y-74036102D01*
G37*
%TD.AperFunction*%
%TA.AperFunction,NonConductor*%
G36*
X162095221Y-74036102D02*
G01*
X162141714Y-74089758D01*
X162153100Y-74142100D01*
X162153100Y-74832730D01*
X162133098Y-74900851D01*
X162079442Y-74947344D01*
X162009168Y-74957448D01*
X161944588Y-74927954D01*
X161920715Y-74900244D01*
X161847492Y-74784864D01*
X161845370Y-74781520D01*
X161652192Y-74548008D01*
X161431271Y-74340550D01*
X161298431Y-74244036D01*
X161255077Y-74187814D01*
X161249002Y-74117078D01*
X161282133Y-74054286D01*
X161343953Y-74019374D01*
X161372492Y-74016100D01*
X162027100Y-74016100D01*
X162095221Y-74036102D01*
G37*
%TD.AperFunction*%
%TA.AperFunction,NonConductor*%
G36*
X162114912Y-105181211D02*
G01*
X162149825Y-105243030D01*
X162153100Y-105271571D01*
X162153100Y-106070900D01*
X162133098Y-106139021D01*
X162079442Y-106185514D01*
X162027100Y-106196900D01*
X161071059Y-106196900D01*
X161002938Y-106176898D01*
X160956445Y-106123242D01*
X160946341Y-106052968D01*
X160975835Y-105988388D01*
X161010358Y-105960486D01*
X161258818Y-105823893D01*
X161258821Y-105823891D01*
X161262290Y-105821984D01*
X161507471Y-105643850D01*
X161728392Y-105436392D01*
X161921570Y-105202880D01*
X161923696Y-105199529D01*
X161925162Y-105197512D01*
X161981384Y-105154157D01*
X162052120Y-105148080D01*
X162114912Y-105181211D01*
G37*
%TD.AperFunction*%
%TA.AperFunction,NonConductor*%
G36*
X158481629Y-74036102D02*
G01*
X158528122Y-74089758D01*
X158538226Y-74160032D01*
X158508732Y-74224612D01*
X158487569Y-74244036D01*
X158354729Y-74340550D01*
X158133808Y-74548008D01*
X157940630Y-74781520D01*
X157778242Y-75037402D01*
X157649206Y-75311619D01*
X157555555Y-75599846D01*
X157498767Y-75897538D01*
X157479738Y-76200000D01*
X157498767Y-76502462D01*
X157555555Y-76800154D01*
X157649206Y-77088381D01*
X157778242Y-77362598D01*
X157940630Y-77618480D01*
X158133808Y-77851992D01*
X158354729Y-78059450D01*
X158599910Y-78237584D01*
X158865483Y-78383585D01*
X158869152Y-78385038D01*
X158869157Y-78385040D01*
X159143591Y-78493696D01*
X159147261Y-78495149D01*
X159440800Y-78570516D01*
X159741470Y-78608500D01*
X160044530Y-78608500D01*
X160345200Y-78570516D01*
X160638739Y-78495149D01*
X160642409Y-78493696D01*
X160916843Y-78385040D01*
X160916848Y-78385038D01*
X160920517Y-78383585D01*
X161186090Y-78237584D01*
X161431271Y-78059450D01*
X161652192Y-77851992D01*
X161845370Y-77618480D01*
X161920715Y-77499756D01*
X161974104Y-77452957D01*
X162044319Y-77442452D01*
X162109067Y-77471576D01*
X162147791Y-77531082D01*
X162153100Y-77567270D01*
X162153100Y-102297229D01*
X162133098Y-102365350D01*
X162079442Y-102411843D01*
X162009168Y-102421947D01*
X161944588Y-102392453D01*
X161925162Y-102371288D01*
X161923692Y-102369264D01*
X161921570Y-102365920D01*
X161728392Y-102132408D01*
X161507471Y-101924950D01*
X161497179Y-101917472D01*
X161332210Y-101797616D01*
X161262290Y-101746816D01*
X161089122Y-101651615D01*
X161000186Y-101602722D01*
X161000185Y-101602721D01*
X160996717Y-101600815D01*
X160993048Y-101599362D01*
X160993043Y-101599360D01*
X160718609Y-101490704D01*
X160718608Y-101490704D01*
X160714939Y-101489251D01*
X160421400Y-101413884D01*
X160120730Y-101375900D01*
X159817670Y-101375900D01*
X159517000Y-101413884D01*
X159223461Y-101489251D01*
X159219792Y-101490704D01*
X159219791Y-101490704D01*
X158945357Y-101599360D01*
X158945352Y-101599362D01*
X158941683Y-101600815D01*
X158938215Y-101602721D01*
X158938214Y-101602722D01*
X158849279Y-101651615D01*
X158676110Y-101746816D01*
X158606190Y-101797616D01*
X158441222Y-101917472D01*
X158430929Y-101924950D01*
X158210008Y-102132408D01*
X158016830Y-102365920D01*
X157854442Y-102621802D01*
X157725406Y-102896019D01*
X157631755Y-103184246D01*
X157574967Y-103481938D01*
X157555938Y-103784400D01*
X157574967Y-104086862D01*
X157631755Y-104384554D01*
X157725406Y-104672781D01*
X157727093Y-104676367D01*
X157727095Y-104676371D01*
X157751000Y-104727171D01*
X157854442Y-104946998D01*
X158016830Y-105202880D01*
X158210008Y-105436392D01*
X158430929Y-105643850D01*
X158676110Y-105821984D01*
X158679579Y-105823891D01*
X158679582Y-105823893D01*
X158928042Y-105960486D01*
X158978101Y-106010831D01*
X158992994Y-106080248D01*
X158967993Y-106146697D01*
X158911036Y-106189081D01*
X158867341Y-106196900D01*
X115494263Y-106196900D01*
X115426142Y-106176898D01*
X115379649Y-106123242D01*
X115369545Y-106052968D01*
X115399039Y-105988388D01*
X115433562Y-105960486D01*
X115589618Y-105874693D01*
X115589621Y-105874691D01*
X115593090Y-105872784D01*
X115838271Y-105694650D01*
X116059192Y-105487192D01*
X116193930Y-105324321D01*
X116249848Y-105256729D01*
X116249851Y-105256725D01*
X116252370Y-105253680D01*
X116414758Y-104997798D01*
X116543794Y-104723581D01*
X116637445Y-104435354D01*
X116694233Y-104137662D01*
X116713262Y-103835200D01*
X116694233Y-103532738D01*
X116637445Y-103235046D01*
X116543794Y-102946819D01*
X116519890Y-102896019D01*
X116450338Y-102748214D01*
X116414758Y-102672602D01*
X116252370Y-102416720D01*
X116248336Y-102411843D01*
X116153518Y-102297229D01*
X116059192Y-102183208D01*
X115838271Y-101975750D01*
X115593090Y-101797616D01*
X115497214Y-101744907D01*
X115330986Y-101653522D01*
X115330985Y-101653521D01*
X115327517Y-101651615D01*
X115323848Y-101650162D01*
X115323843Y-101650160D01*
X115049409Y-101541504D01*
X115049408Y-101541504D01*
X115045739Y-101540051D01*
X114752200Y-101464684D01*
X114451530Y-101426700D01*
X114148470Y-101426700D01*
X113847800Y-101464684D01*
X113554261Y-101540051D01*
X113550592Y-101541504D01*
X113550591Y-101541504D01*
X113276157Y-101650160D01*
X113276152Y-101650162D01*
X113272483Y-101651615D01*
X113269015Y-101653521D01*
X113269014Y-101653522D01*
X113102787Y-101744907D01*
X113006910Y-101797616D01*
X112761729Y-101975750D01*
X112540808Y-102183208D01*
X112538284Y-102186259D01*
X112466185Y-102273412D01*
X112407351Y-102313151D01*
X112336373Y-102314773D01*
X112275786Y-102277764D01*
X112244825Y-102213873D01*
X112243100Y-102193097D01*
X112243100Y-101219000D01*
X132709786Y-101219000D01*
X132728613Y-101458222D01*
X132729767Y-101463029D01*
X132729768Y-101463035D01*
X132736062Y-101489251D01*
X132784631Y-101691553D01*
X132786524Y-101696124D01*
X132786525Y-101696126D01*
X132807522Y-101746816D01*
X132876460Y-101913249D01*
X133001840Y-102117849D01*
X133157682Y-102300318D01*
X133161444Y-102303531D01*
X133230915Y-102362864D01*
X133340151Y-102456160D01*
X133544751Y-102581540D01*
X133549321Y-102583433D01*
X133549323Y-102583434D01*
X133761874Y-102671475D01*
X133766447Y-102673369D01*
X133848037Y-102692957D01*
X133994965Y-102728232D01*
X133994971Y-102728233D01*
X133999778Y-102729387D01*
X134239000Y-102748214D01*
X134478222Y-102729387D01*
X134483029Y-102728233D01*
X134483035Y-102728232D01*
X134629963Y-102692957D01*
X134711553Y-102673369D01*
X134716126Y-102671475D01*
X134928677Y-102583434D01*
X134928679Y-102583433D01*
X134933249Y-102581540D01*
X135137849Y-102456160D01*
X135247086Y-102362864D01*
X135316556Y-102303531D01*
X135320318Y-102300318D01*
X135476160Y-102117849D01*
X135601540Y-101913249D01*
X135670479Y-101746816D01*
X135691475Y-101696126D01*
X135691476Y-101696124D01*
X135693369Y-101691553D01*
X135741938Y-101489251D01*
X135748232Y-101463035D01*
X135748233Y-101463029D01*
X135749387Y-101458222D01*
X135768214Y-101219000D01*
X137789786Y-101219000D01*
X137808613Y-101458222D01*
X137809767Y-101463029D01*
X137809768Y-101463035D01*
X137816062Y-101489251D01*
X137864631Y-101691553D01*
X137866524Y-101696124D01*
X137866525Y-101696126D01*
X137887522Y-101746816D01*
X137956460Y-101913249D01*
X138081840Y-102117849D01*
X138237682Y-102300318D01*
X138241444Y-102303531D01*
X138310915Y-102362864D01*
X138420151Y-102456160D01*
X138624751Y-102581540D01*
X138629321Y-102583433D01*
X138629323Y-102583434D01*
X138841874Y-102671475D01*
X138846447Y-102673369D01*
X138928037Y-102692957D01*
X139074965Y-102728232D01*
X139074971Y-102728233D01*
X139079778Y-102729387D01*
X139319000Y-102748214D01*
X139558222Y-102729387D01*
X139563029Y-102728233D01*
X139563035Y-102728232D01*
X139709963Y-102692957D01*
X139791553Y-102673369D01*
X139796126Y-102671475D01*
X140008677Y-102583434D01*
X140008679Y-102583433D01*
X140013249Y-102581540D01*
X140217849Y-102456160D01*
X140327086Y-102362864D01*
X140396556Y-102303531D01*
X140400318Y-102300318D01*
X140556160Y-102117849D01*
X140681540Y-101913249D01*
X140750479Y-101746816D01*
X140771475Y-101696126D01*
X140771476Y-101696124D01*
X140773369Y-101691553D01*
X140821938Y-101489251D01*
X140828232Y-101463035D01*
X140828233Y-101463029D01*
X140829387Y-101458222D01*
X140848214Y-101219000D01*
X140829387Y-100979778D01*
X140828233Y-100974971D01*
X140828232Y-100974965D01*
X140774524Y-100751259D01*
X140773369Y-100746447D01*
X140681540Y-100524751D01*
X140556160Y-100320151D01*
X140400318Y-100137682D01*
X140217849Y-99981840D01*
X140013249Y-99856460D01*
X140008679Y-99854567D01*
X140008677Y-99854566D01*
X139796126Y-99766525D01*
X139796124Y-99766524D01*
X139791553Y-99764631D01*
X139709963Y-99745043D01*
X139563035Y-99709768D01*
X139563029Y-99709767D01*
X139558222Y-99708613D01*
X139319000Y-99689786D01*
X139079778Y-99708613D01*
X139074971Y-99709767D01*
X139074965Y-99709768D01*
X138928037Y-99745043D01*
X138846447Y-99764631D01*
X138841876Y-99766524D01*
X138841874Y-99766525D01*
X138629323Y-99854566D01*
X138629321Y-99854567D01*
X138624751Y-99856460D01*
X138420151Y-99981840D01*
X138237682Y-100137682D01*
X138081840Y-100320151D01*
X137956460Y-100524751D01*
X137864631Y-100746447D01*
X137863476Y-100751259D01*
X137809768Y-100974965D01*
X137809767Y-100974971D01*
X137808613Y-100979778D01*
X137789786Y-101219000D01*
X135768214Y-101219000D01*
X135749387Y-100979778D01*
X135748233Y-100974971D01*
X135748232Y-100974965D01*
X135694524Y-100751259D01*
X135693369Y-100746447D01*
X135601540Y-100524751D01*
X135476160Y-100320151D01*
X135320318Y-100137682D01*
X135137849Y-99981840D01*
X134933249Y-99856460D01*
X134928679Y-99854567D01*
X134928677Y-99854566D01*
X134716126Y-99766525D01*
X134716124Y-99766524D01*
X134711553Y-99764631D01*
X134629963Y-99745043D01*
X134483035Y-99709768D01*
X134483029Y-99709767D01*
X134478222Y-99708613D01*
X134239000Y-99689786D01*
X133999778Y-99708613D01*
X133994971Y-99709767D01*
X133994965Y-99709768D01*
X133848037Y-99745043D01*
X133766447Y-99764631D01*
X133761876Y-99766524D01*
X133761874Y-99766525D01*
X133549323Y-99854566D01*
X133549321Y-99854567D01*
X133544751Y-99856460D01*
X133340151Y-99981840D01*
X133157682Y-100137682D01*
X133001840Y-100320151D01*
X132876460Y-100524751D01*
X132784631Y-100746447D01*
X132783476Y-100751259D01*
X132729768Y-100974965D01*
X132729767Y-100974971D01*
X132728613Y-100979778D01*
X132709786Y-101219000D01*
X112243100Y-101219000D01*
X112243100Y-90144600D01*
X117266586Y-90144600D01*
X117285413Y-90383822D01*
X117286567Y-90388629D01*
X117286568Y-90388635D01*
X117310954Y-90490207D01*
X117341431Y-90617153D01*
X117433260Y-90838849D01*
X117558640Y-91043449D01*
X117714482Y-91225918D01*
X117896951Y-91381760D01*
X118101551Y-91507140D01*
X118106121Y-91509033D01*
X118106123Y-91509034D01*
X118318674Y-91597075D01*
X118323247Y-91598969D01*
X118404837Y-91618557D01*
X118551765Y-91653832D01*
X118551771Y-91653833D01*
X118556578Y-91654987D01*
X118795800Y-91673814D01*
X119035022Y-91654987D01*
X119039829Y-91653833D01*
X119039835Y-91653832D01*
X119186763Y-91618557D01*
X119268353Y-91598969D01*
X119272926Y-91597075D01*
X119485477Y-91509034D01*
X119485479Y-91509033D01*
X119490049Y-91507140D01*
X119694649Y-91381760D01*
X119877118Y-91225918D01*
X120032960Y-91043449D01*
X120158340Y-90838849D01*
X120250169Y-90617153D01*
X120280646Y-90490207D01*
X120305032Y-90388635D01*
X120305033Y-90388629D01*
X120306187Y-90383822D01*
X120325014Y-90144600D01*
X120306187Y-89905378D01*
X120305033Y-89900571D01*
X120305032Y-89900565D01*
X120251324Y-89676859D01*
X120250169Y-89672047D01*
X120158340Y-89450351D01*
X120032960Y-89245751D01*
X119948625Y-89147006D01*
X119880331Y-89067044D01*
X119877118Y-89063282D01*
X119753104Y-88957365D01*
X119745417Y-88950800D01*
X132665096Y-88950800D01*
X132665786Y-88957365D01*
X132677314Y-89067044D01*
X132685058Y-89140728D01*
X132744073Y-89322356D01*
X132839560Y-89487744D01*
X132843979Y-89492652D01*
X132846036Y-89495483D01*
X132869895Y-89562351D01*
X132870100Y-89569544D01*
X132870100Y-93062088D01*
X132869808Y-93070658D01*
X132865875Y-93128352D01*
X132867180Y-93135829D01*
X132867180Y-93135830D01*
X132876861Y-93191299D01*
X132877823Y-93197821D01*
X132885498Y-93261242D01*
X132888181Y-93268343D01*
X132888822Y-93270952D01*
X132893285Y-93287262D01*
X132894050Y-93289798D01*
X132895357Y-93297284D01*
X132898411Y-93304241D01*
X132921042Y-93355795D01*
X132923533Y-93361899D01*
X132946113Y-93421656D01*
X132950417Y-93427919D01*
X132951654Y-93430285D01*
X132959899Y-93445097D01*
X132961232Y-93447351D01*
X132964285Y-93454305D01*
X132968907Y-93460328D01*
X133003179Y-93504991D01*
X133007059Y-93510332D01*
X133038939Y-93556720D01*
X133038944Y-93556725D01*
X133043243Y-93562981D01*
X133048913Y-93568032D01*
X133048914Y-93568034D01*
X133089770Y-93604435D01*
X133095046Y-93609416D01*
X134555757Y-95070128D01*
X134561611Y-95076393D01*
X134599639Y-95119985D01*
X134651929Y-95156736D01*
X134657171Y-95160628D01*
X134707482Y-95200076D01*
X134714401Y-95203200D01*
X134716693Y-95204588D01*
X134731365Y-95212957D01*
X134733725Y-95214222D01*
X134739939Y-95218590D01*
X134747018Y-95221350D01*
X134747020Y-95221351D01*
X134799475Y-95241802D01*
X134805544Y-95244353D01*
X134863773Y-95270645D01*
X134871246Y-95272030D01*
X134873812Y-95272834D01*
X134890035Y-95277455D01*
X134892627Y-95278120D01*
X134899709Y-95280882D01*
X134907244Y-95281874D01*
X134963061Y-95289222D01*
X134969577Y-95290254D01*
X135007970Y-95297370D01*
X135032386Y-95301895D01*
X135039966Y-95301458D01*
X135039967Y-95301458D01*
X135094580Y-95298309D01*
X135101833Y-95298100D01*
X139061488Y-95298100D01*
X139070058Y-95298392D01*
X139120176Y-95301809D01*
X139120180Y-95301809D01*
X139127752Y-95302325D01*
X139135229Y-95301020D01*
X139135230Y-95301020D01*
X139161708Y-95296399D01*
X139190703Y-95291338D01*
X139197221Y-95290377D01*
X139260642Y-95282702D01*
X139267743Y-95280019D01*
X139270352Y-95279378D01*
X139286662Y-95274915D01*
X139289198Y-95274150D01*
X139296684Y-95272843D01*
X139355200Y-95247156D01*
X139361304Y-95244665D01*
X139413948Y-95224773D01*
X139413949Y-95224772D01*
X139421056Y-95222087D01*
X139427319Y-95217783D01*
X139429685Y-95216546D01*
X139444497Y-95208301D01*
X139446751Y-95206968D01*
X139453705Y-95203915D01*
X139504402Y-95165013D01*
X139509732Y-95161141D01*
X139556120Y-95129261D01*
X139556125Y-95129256D01*
X139562381Y-95124957D01*
X139603836Y-95078429D01*
X139608816Y-95073154D01*
X140884133Y-93797837D01*
X140947031Y-93763685D01*
X140963189Y-93760250D01*
X141099888Y-93731194D01*
X141105919Y-93728509D01*
X141268322Y-93656203D01*
X141268324Y-93656202D01*
X141274352Y-93653518D01*
X141428853Y-93541266D01*
X141515444Y-93445097D01*
X141552221Y-93404252D01*
X141552222Y-93404251D01*
X141556640Y-93399344D01*
X141630767Y-93270952D01*
X141648823Y-93239679D01*
X141648824Y-93239678D01*
X141652127Y-93233956D01*
X141711142Y-93052328D01*
X141731104Y-92862400D01*
X141711142Y-92672472D01*
X141652127Y-92490844D01*
X141556640Y-92325456D01*
X141428853Y-92183534D01*
X141274352Y-92071282D01*
X141268324Y-92068598D01*
X141268322Y-92068597D01*
X141105919Y-91996291D01*
X141105918Y-91996291D01*
X141099888Y-91993606D01*
X141006487Y-91973753D01*
X140919544Y-91955272D01*
X140919539Y-91955272D01*
X140913087Y-91953900D01*
X140722113Y-91953900D01*
X140715661Y-91955272D01*
X140715656Y-91955272D01*
X140628713Y-91973753D01*
X140535312Y-91993606D01*
X140529282Y-91996291D01*
X140529281Y-91996291D01*
X140366878Y-92068597D01*
X140366876Y-92068598D01*
X140360848Y-92071282D01*
X140206347Y-92183534D01*
X140078560Y-92325456D01*
X139983073Y-92490844D01*
X139924058Y-92672472D01*
X139923368Y-92679035D01*
X139923368Y-92679037D01*
X139919150Y-92719169D01*
X139892137Y-92784826D01*
X139882935Y-92795094D01*
X138833835Y-93844195D01*
X138771523Y-93878220D01*
X138744740Y-93881100D01*
X135422860Y-93881100D01*
X135354739Y-93861098D01*
X135333765Y-93844195D01*
X134324005Y-92834435D01*
X134289979Y-92772123D01*
X134287100Y-92745340D01*
X134287100Y-89569544D01*
X134307102Y-89501423D01*
X134311164Y-89495483D01*
X134313221Y-89492652D01*
X134317640Y-89487744D01*
X134413127Y-89322356D01*
X134472142Y-89140728D01*
X134479887Y-89067044D01*
X134491414Y-88957365D01*
X134492104Y-88950800D01*
X134472142Y-88760872D01*
X134413127Y-88579244D01*
X134317640Y-88413856D01*
X134230514Y-88317092D01*
X134194275Y-88276845D01*
X134194274Y-88276844D01*
X134189853Y-88271934D01*
X134035352Y-88159682D01*
X134029324Y-88156998D01*
X134029322Y-88156997D01*
X133866919Y-88084691D01*
X133866918Y-88084691D01*
X133860888Y-88082006D01*
X133767487Y-88062153D01*
X133680544Y-88043672D01*
X133680539Y-88043672D01*
X133674087Y-88042300D01*
X133483113Y-88042300D01*
X133476661Y-88043672D01*
X133476656Y-88043672D01*
X133389712Y-88062153D01*
X133296312Y-88082006D01*
X133290282Y-88084691D01*
X133290281Y-88084691D01*
X133127878Y-88156997D01*
X133127876Y-88156998D01*
X133121848Y-88159682D01*
X132967347Y-88271934D01*
X132962926Y-88276844D01*
X132962925Y-88276845D01*
X132926687Y-88317092D01*
X132839560Y-88413856D01*
X132744073Y-88579244D01*
X132685058Y-88760872D01*
X132665096Y-88950800D01*
X119745417Y-88950800D01*
X119698417Y-88910658D01*
X119698416Y-88910657D01*
X119694649Y-88907440D01*
X119490049Y-88782060D01*
X119485479Y-88780167D01*
X119485477Y-88780166D01*
X119272926Y-88692125D01*
X119272924Y-88692124D01*
X119268353Y-88690231D01*
X119186763Y-88670643D01*
X119039835Y-88635368D01*
X119039829Y-88635367D01*
X119035022Y-88634213D01*
X118795800Y-88615386D01*
X118556578Y-88634213D01*
X118551771Y-88635367D01*
X118551765Y-88635368D01*
X118404837Y-88670643D01*
X118323247Y-88690231D01*
X118318676Y-88692124D01*
X118318674Y-88692125D01*
X118106123Y-88780166D01*
X118106121Y-88780167D01*
X118101551Y-88782060D01*
X117896951Y-88907440D01*
X117893184Y-88910657D01*
X117893183Y-88910658D01*
X117838496Y-88957365D01*
X117714482Y-89063282D01*
X117711269Y-89067044D01*
X117642976Y-89147006D01*
X117558640Y-89245751D01*
X117433260Y-89450351D01*
X117341431Y-89672047D01*
X117340276Y-89676859D01*
X117286568Y-89900565D01*
X117286567Y-89900571D01*
X117285413Y-89905378D01*
X117266586Y-90144600D01*
X112243100Y-90144600D01*
X112243100Y-86893400D01*
X134341496Y-86893400D01*
X134361458Y-87083328D01*
X134420473Y-87264956D01*
X134515960Y-87430344D01*
X134643747Y-87572266D01*
X134798248Y-87684518D01*
X134804276Y-87687202D01*
X134804278Y-87687203D01*
X134966681Y-87759509D01*
X134972712Y-87762194D01*
X135066112Y-87782047D01*
X135153056Y-87800528D01*
X135153061Y-87800528D01*
X135159513Y-87801900D01*
X135350487Y-87801900D01*
X135356939Y-87800528D01*
X135356944Y-87800528D01*
X135443888Y-87782047D01*
X135537288Y-87762194D01*
X135543319Y-87759509D01*
X135705722Y-87687203D01*
X135705724Y-87687202D01*
X135711752Y-87684518D01*
X135792344Y-87625964D01*
X135859211Y-87602106D01*
X135866405Y-87601900D01*
X138947940Y-87601900D01*
X139016061Y-87621902D01*
X139037035Y-87638805D01*
X142332795Y-90934565D01*
X142366821Y-90996877D01*
X142369700Y-91023660D01*
X142369700Y-93869256D01*
X142349698Y-93937377D01*
X142345636Y-93943317D01*
X142343579Y-93946148D01*
X142339160Y-93951056D01*
X142243673Y-94116444D01*
X142184658Y-94298072D01*
X142164696Y-94488000D01*
X142184658Y-94677928D01*
X142243673Y-94859556D01*
X142339160Y-95024944D01*
X142343578Y-95029851D01*
X142343579Y-95029852D01*
X142461346Y-95160646D01*
X142466947Y-95166866D01*
X142538139Y-95218590D01*
X142573607Y-95244359D01*
X142621448Y-95279118D01*
X142627476Y-95281802D01*
X142627478Y-95281803D01*
X142789881Y-95354109D01*
X142795912Y-95356794D01*
X142889313Y-95376647D01*
X142976256Y-95395128D01*
X142976261Y-95395128D01*
X142982713Y-95396500D01*
X143173687Y-95396500D01*
X143180139Y-95395128D01*
X143180144Y-95395128D01*
X143267087Y-95376647D01*
X143360488Y-95356794D01*
X143366519Y-95354109D01*
X143528922Y-95281803D01*
X143528924Y-95281802D01*
X143534952Y-95279118D01*
X143582794Y-95244359D01*
X143618261Y-95218590D01*
X143689453Y-95166866D01*
X143695054Y-95160646D01*
X143812821Y-95029852D01*
X143812822Y-95029851D01*
X143817240Y-95024944D01*
X143912727Y-94859556D01*
X143971742Y-94677928D01*
X143991704Y-94488000D01*
X143971742Y-94298072D01*
X143912727Y-94116444D01*
X143817240Y-93951056D01*
X143812821Y-93946148D01*
X143810764Y-93943317D01*
X143786905Y-93876449D01*
X143786700Y-93869256D01*
X143786700Y-90706912D01*
X143786992Y-90698342D01*
X143790409Y-90648224D01*
X143790409Y-90648220D01*
X143790925Y-90640648D01*
X143779938Y-90577697D01*
X143778976Y-90571175D01*
X143772214Y-90515298D01*
X143771302Y-90507758D01*
X143768619Y-90500657D01*
X143767978Y-90498048D01*
X143763515Y-90481738D01*
X143762750Y-90479202D01*
X143761443Y-90471716D01*
X143735756Y-90413200D01*
X143733265Y-90407096D01*
X143713373Y-90354452D01*
X143713372Y-90354451D01*
X143710687Y-90347344D01*
X143706383Y-90341081D01*
X143705146Y-90338715D01*
X143696901Y-90323903D01*
X143695568Y-90321649D01*
X143692515Y-90314695D01*
X143653613Y-90263998D01*
X143649741Y-90258668D01*
X143617861Y-90212280D01*
X143617856Y-90212275D01*
X143613557Y-90206019D01*
X143567029Y-90164564D01*
X143561754Y-90159584D01*
X143561415Y-90159245D01*
X143561412Y-90159241D01*
X139815050Y-86412880D01*
X139809196Y-86406615D01*
X139808801Y-86406162D01*
X139771161Y-86363015D01*
X139718880Y-86326271D01*
X139713586Y-86322339D01*
X139669293Y-86287609D01*
X139663318Y-86282924D01*
X139656402Y-86279801D01*
X139654116Y-86278417D01*
X139639435Y-86270043D01*
X139637075Y-86268778D01*
X139630861Y-86264410D01*
X139623782Y-86261650D01*
X139623780Y-86261649D01*
X139571325Y-86241198D01*
X139565256Y-86238647D01*
X139507027Y-86212355D01*
X139499560Y-86210971D01*
X139497005Y-86210170D01*
X139480752Y-86205541D01*
X139478172Y-86204878D01*
X139471091Y-86202118D01*
X139463560Y-86201127D01*
X139463558Y-86201126D01*
X139433939Y-86197227D01*
X139407739Y-86193778D01*
X139401241Y-86192748D01*
X139338414Y-86181104D01*
X139330834Y-86181541D01*
X139330833Y-86181541D01*
X139276208Y-86184691D01*
X139268954Y-86184900D01*
X135866405Y-86184900D01*
X135798284Y-86164898D01*
X135792344Y-86160836D01*
X135717094Y-86106163D01*
X135717093Y-86106162D01*
X135711752Y-86102282D01*
X135705724Y-86099598D01*
X135705722Y-86099597D01*
X135543319Y-86027291D01*
X135543318Y-86027291D01*
X135537288Y-86024606D01*
X135443888Y-86004753D01*
X135356944Y-85986272D01*
X135356939Y-85986272D01*
X135350487Y-85984900D01*
X135159513Y-85984900D01*
X135153061Y-85986272D01*
X135153056Y-85986272D01*
X135066113Y-86004753D01*
X134972712Y-86024606D01*
X134966682Y-86027291D01*
X134966681Y-86027291D01*
X134804278Y-86099597D01*
X134804276Y-86099598D01*
X134798248Y-86102282D01*
X134643747Y-86214534D01*
X134639326Y-86219444D01*
X134639325Y-86219445D01*
X134586227Y-86278417D01*
X134515960Y-86356456D01*
X134420473Y-86521844D01*
X134361458Y-86703472D01*
X134341496Y-86893400D01*
X112243100Y-86893400D01*
X112243100Y-85064600D01*
X117266586Y-85064600D01*
X117285413Y-85303822D01*
X117286567Y-85308629D01*
X117286568Y-85308635D01*
X117321843Y-85455563D01*
X117341431Y-85537153D01*
X117343324Y-85541724D01*
X117343325Y-85541726D01*
X117417568Y-85720964D01*
X117433260Y-85758849D01*
X117558640Y-85963449D01*
X117561857Y-85967216D01*
X117561858Y-85967217D01*
X117609701Y-86023234D01*
X117714482Y-86145918D01*
X117718244Y-86149131D01*
X117869620Y-86278417D01*
X117896951Y-86301760D01*
X118101551Y-86427140D01*
X118106121Y-86429033D01*
X118106123Y-86429034D01*
X118316371Y-86516121D01*
X118323247Y-86518969D01*
X118404837Y-86538557D01*
X118551765Y-86573832D01*
X118551771Y-86573833D01*
X118556578Y-86574987D01*
X118795800Y-86593814D01*
X119035022Y-86574987D01*
X119039829Y-86573833D01*
X119039835Y-86573832D01*
X119186763Y-86538557D01*
X119268353Y-86518969D01*
X119275229Y-86516121D01*
X119485477Y-86429034D01*
X119485479Y-86429033D01*
X119490049Y-86427140D01*
X119694649Y-86301760D01*
X119721981Y-86278417D01*
X119873356Y-86149131D01*
X119877118Y-86145918D01*
X119981899Y-86023234D01*
X120029742Y-85967217D01*
X120029743Y-85967216D01*
X120032960Y-85963449D01*
X120158340Y-85758849D01*
X120174033Y-85720964D01*
X120248275Y-85541726D01*
X120248276Y-85541724D01*
X120250169Y-85537153D01*
X120269757Y-85455563D01*
X120305032Y-85308635D01*
X120305033Y-85308629D01*
X120306187Y-85303822D01*
X120325014Y-85064600D01*
X120319017Y-84988400D01*
X135382896Y-84988400D01*
X135402858Y-85178328D01*
X135461873Y-85359956D01*
X135557360Y-85525344D01*
X135685147Y-85667266D01*
X135839648Y-85779518D01*
X135845676Y-85782202D01*
X135845678Y-85782203D01*
X136008081Y-85854509D01*
X136014112Y-85857194D01*
X136107512Y-85877047D01*
X136194456Y-85895528D01*
X136194461Y-85895528D01*
X136200913Y-85896900D01*
X136391887Y-85896900D01*
X136398339Y-85895528D01*
X136398344Y-85895528D01*
X136485288Y-85877047D01*
X136578688Y-85857194D01*
X136584719Y-85854509D01*
X136747122Y-85782203D01*
X136747124Y-85782202D01*
X136753152Y-85779518D01*
X136833744Y-85720964D01*
X136900611Y-85697106D01*
X136907805Y-85696900D01*
X143723140Y-85696900D01*
X143791261Y-85716902D01*
X143812235Y-85733805D01*
X146752395Y-88673965D01*
X146786421Y-88736277D01*
X146789300Y-88763060D01*
X146789300Y-96333056D01*
X146769298Y-96401177D01*
X146765236Y-96407117D01*
X146763179Y-96409948D01*
X146758760Y-96414856D01*
X146663273Y-96580244D01*
X146604258Y-96761872D01*
X146584296Y-96951800D01*
X146604258Y-97141728D01*
X146663273Y-97323356D01*
X146758760Y-97488744D01*
X146886547Y-97630666D01*
X147041048Y-97742918D01*
X147047076Y-97745602D01*
X147047078Y-97745603D01*
X147209481Y-97817909D01*
X147215512Y-97820594D01*
X147308912Y-97840447D01*
X147395856Y-97858928D01*
X147395861Y-97858928D01*
X147402313Y-97860300D01*
X147593287Y-97860300D01*
X147599739Y-97858928D01*
X147599744Y-97858928D01*
X147686687Y-97840447D01*
X147780088Y-97820594D01*
X147786119Y-97817909D01*
X147948522Y-97745603D01*
X147948524Y-97745602D01*
X147954552Y-97742918D01*
X148109053Y-97630666D01*
X148236840Y-97488744D01*
X148332327Y-97323356D01*
X148391342Y-97141728D01*
X148411304Y-96951800D01*
X148391342Y-96761872D01*
X148332327Y-96580244D01*
X148236840Y-96414856D01*
X148232421Y-96409948D01*
X148230364Y-96407117D01*
X148206505Y-96340249D01*
X148206300Y-96333056D01*
X148206300Y-90144600D01*
X153740986Y-90144600D01*
X153759813Y-90383822D01*
X153760967Y-90388629D01*
X153760968Y-90388635D01*
X153785354Y-90490207D01*
X153815831Y-90617153D01*
X153907660Y-90838849D01*
X154033040Y-91043449D01*
X154188882Y-91225918D01*
X154371351Y-91381760D01*
X154575951Y-91507140D01*
X154580521Y-91509033D01*
X154580523Y-91509034D01*
X154793074Y-91597075D01*
X154797647Y-91598969D01*
X154879237Y-91618557D01*
X155026165Y-91653832D01*
X155026171Y-91653833D01*
X155030978Y-91654987D01*
X155270200Y-91673814D01*
X155509422Y-91654987D01*
X155514229Y-91653833D01*
X155514235Y-91653832D01*
X155661163Y-91618557D01*
X155742753Y-91598969D01*
X155747326Y-91597075D01*
X155959877Y-91509034D01*
X155959879Y-91509033D01*
X155964449Y-91507140D01*
X156169049Y-91381760D01*
X156351518Y-91225918D01*
X156507360Y-91043449D01*
X156632740Y-90838849D01*
X156724569Y-90617153D01*
X156755046Y-90490207D01*
X156779432Y-90388635D01*
X156779433Y-90388629D01*
X156780587Y-90383822D01*
X156799414Y-90144600D01*
X156780587Y-89905378D01*
X156779433Y-89900571D01*
X156779432Y-89900565D01*
X156725724Y-89676859D01*
X156724569Y-89672047D01*
X156632740Y-89450351D01*
X156507360Y-89245751D01*
X156423025Y-89147006D01*
X156354731Y-89067044D01*
X156351518Y-89063282D01*
X156227504Y-88957365D01*
X156172817Y-88910658D01*
X156172816Y-88910657D01*
X156169049Y-88907440D01*
X155964449Y-88782060D01*
X155959879Y-88780167D01*
X155959877Y-88780166D01*
X155747326Y-88692125D01*
X155747324Y-88692124D01*
X155742753Y-88690231D01*
X155661163Y-88670643D01*
X155514235Y-88635368D01*
X155514229Y-88635367D01*
X155509422Y-88634213D01*
X155270200Y-88615386D01*
X155030978Y-88634213D01*
X155026171Y-88635367D01*
X155026165Y-88635368D01*
X154879237Y-88670643D01*
X154797647Y-88690231D01*
X154793076Y-88692124D01*
X154793074Y-88692125D01*
X154580523Y-88780166D01*
X154580521Y-88780167D01*
X154575951Y-88782060D01*
X154371351Y-88907440D01*
X154367584Y-88910657D01*
X154367583Y-88910658D01*
X154312896Y-88957365D01*
X154188882Y-89063282D01*
X154185669Y-89067044D01*
X154117376Y-89147006D01*
X154033040Y-89245751D01*
X153907660Y-89450351D01*
X153815831Y-89672047D01*
X153814676Y-89676859D01*
X153760968Y-89900565D01*
X153760967Y-89900571D01*
X153759813Y-89905378D01*
X153740986Y-90144600D01*
X148206300Y-90144600D01*
X148206300Y-88446327D01*
X148206592Y-88437758D01*
X148210010Y-88387625D01*
X148210010Y-88387621D01*
X148210526Y-88380048D01*
X148199536Y-88317081D01*
X148198575Y-88310565D01*
X148190902Y-88247158D01*
X148188219Y-88240057D01*
X148187578Y-88237448D01*
X148183113Y-88221128D01*
X148182348Y-88218595D01*
X148181043Y-88211117D01*
X148155352Y-88152590D01*
X148152867Y-88146502D01*
X148132972Y-88093849D01*
X148132971Y-88093847D01*
X148130287Y-88086744D01*
X148125986Y-88080485D01*
X148124749Y-88078120D01*
X148116527Y-88063348D01*
X148115172Y-88061056D01*
X148112116Y-88054095D01*
X148107491Y-88048068D01*
X148107489Y-88048064D01*
X148073207Y-88003387D01*
X148069329Y-87998050D01*
X148037459Y-87951678D01*
X148037458Y-87951677D01*
X148033157Y-87945419D01*
X147986647Y-87903980D01*
X147981371Y-87899000D01*
X147346015Y-87263645D01*
X147346012Y-87263641D01*
X145146970Y-85064600D01*
X153740986Y-85064600D01*
X153759813Y-85303822D01*
X153760967Y-85308629D01*
X153760968Y-85308635D01*
X153796243Y-85455563D01*
X153815831Y-85537153D01*
X153817724Y-85541724D01*
X153817725Y-85541726D01*
X153891968Y-85720964D01*
X153907660Y-85758849D01*
X154033040Y-85963449D01*
X154036257Y-85967216D01*
X154036258Y-85967217D01*
X154084101Y-86023234D01*
X154188882Y-86145918D01*
X154192644Y-86149131D01*
X154344020Y-86278417D01*
X154371351Y-86301760D01*
X154575951Y-86427140D01*
X154580521Y-86429033D01*
X154580523Y-86429034D01*
X154790771Y-86516121D01*
X154797647Y-86518969D01*
X154879237Y-86538557D01*
X155026165Y-86573832D01*
X155026171Y-86573833D01*
X155030978Y-86574987D01*
X155270200Y-86593814D01*
X155509422Y-86574987D01*
X155514229Y-86573833D01*
X155514235Y-86573832D01*
X155661163Y-86538557D01*
X155742753Y-86518969D01*
X155749629Y-86516121D01*
X155959877Y-86429034D01*
X155959879Y-86429033D01*
X155964449Y-86427140D01*
X156169049Y-86301760D01*
X156196381Y-86278417D01*
X156347756Y-86149131D01*
X156351518Y-86145918D01*
X156456299Y-86023234D01*
X156504142Y-85967217D01*
X156504143Y-85967216D01*
X156507360Y-85963449D01*
X156632740Y-85758849D01*
X156648433Y-85720964D01*
X156722675Y-85541726D01*
X156722676Y-85541724D01*
X156724569Y-85537153D01*
X156744157Y-85455563D01*
X156779432Y-85308635D01*
X156779433Y-85308629D01*
X156780587Y-85303822D01*
X156799414Y-85064600D01*
X156780587Y-84825378D01*
X156779433Y-84820571D01*
X156779432Y-84820565D01*
X156725724Y-84596859D01*
X156724569Y-84592047D01*
X156689703Y-84507873D01*
X156634634Y-84374923D01*
X156634633Y-84374921D01*
X156632740Y-84370351D01*
X156507360Y-84165751D01*
X156351518Y-83983282D01*
X156169049Y-83827440D01*
X155964449Y-83702060D01*
X155959879Y-83700167D01*
X155959877Y-83700166D01*
X155747326Y-83612125D01*
X155747324Y-83612124D01*
X155742753Y-83610231D01*
X155661163Y-83590643D01*
X155514235Y-83555368D01*
X155514229Y-83555367D01*
X155509422Y-83554213D01*
X155270200Y-83535386D01*
X155030978Y-83554213D01*
X155026171Y-83555367D01*
X155026165Y-83555368D01*
X154879237Y-83590643D01*
X154797647Y-83610231D01*
X154793076Y-83612124D01*
X154793074Y-83612125D01*
X154580523Y-83700166D01*
X154580521Y-83700167D01*
X154575951Y-83702060D01*
X154371351Y-83827440D01*
X154188882Y-83983282D01*
X154033040Y-84165751D01*
X153907660Y-84370351D01*
X153905767Y-84374921D01*
X153905766Y-84374923D01*
X153850697Y-84507873D01*
X153815831Y-84592047D01*
X153814676Y-84596859D01*
X153760968Y-84820565D01*
X153760967Y-84820571D01*
X153759813Y-84825378D01*
X153740986Y-85064600D01*
X145146970Y-85064600D01*
X144590228Y-84507858D01*
X144584388Y-84501606D01*
X144551356Y-84463740D01*
X144551353Y-84463737D01*
X144546361Y-84458015D01*
X144494080Y-84421271D01*
X144488786Y-84417339D01*
X144444493Y-84382609D01*
X144438518Y-84377924D01*
X144431602Y-84374801D01*
X144429316Y-84373417D01*
X144414635Y-84365043D01*
X144412275Y-84363778D01*
X144406061Y-84359410D01*
X144398982Y-84356650D01*
X144398980Y-84356649D01*
X144346525Y-84336198D01*
X144340456Y-84333647D01*
X144282227Y-84307355D01*
X144274760Y-84305971D01*
X144272205Y-84305170D01*
X144255952Y-84300541D01*
X144253372Y-84299878D01*
X144246291Y-84297118D01*
X144238760Y-84296127D01*
X144238758Y-84296126D01*
X144209139Y-84292227D01*
X144182939Y-84288778D01*
X144176441Y-84287748D01*
X144113614Y-84276104D01*
X144106034Y-84276541D01*
X144106033Y-84276541D01*
X144051408Y-84279691D01*
X144044154Y-84279900D01*
X136907805Y-84279900D01*
X136839684Y-84259898D01*
X136833744Y-84255836D01*
X136758494Y-84201163D01*
X136758493Y-84201162D01*
X136753152Y-84197282D01*
X136747124Y-84194598D01*
X136747122Y-84194597D01*
X136584719Y-84122291D01*
X136584718Y-84122291D01*
X136578688Y-84119606D01*
X136485288Y-84099753D01*
X136398344Y-84081272D01*
X136398339Y-84081272D01*
X136391887Y-84079900D01*
X136200913Y-84079900D01*
X136194461Y-84081272D01*
X136194456Y-84081272D01*
X136107512Y-84099753D01*
X136014112Y-84119606D01*
X136008082Y-84122291D01*
X136008081Y-84122291D01*
X135845678Y-84194597D01*
X135845676Y-84194598D01*
X135839648Y-84197282D01*
X135685147Y-84309534D01*
X135680726Y-84314444D01*
X135680725Y-84314445D01*
X135626271Y-84374923D01*
X135557360Y-84451456D01*
X135554059Y-84457174D01*
X135476190Y-84592047D01*
X135461873Y-84616844D01*
X135402858Y-84798472D01*
X135402168Y-84805033D01*
X135402168Y-84805035D01*
X135383586Y-84981835D01*
X135382896Y-84988400D01*
X120319017Y-84988400D01*
X120306187Y-84825378D01*
X120305033Y-84820571D01*
X120305032Y-84820565D01*
X120251324Y-84596859D01*
X120250169Y-84592047D01*
X120215303Y-84507873D01*
X120160234Y-84374923D01*
X120160233Y-84374921D01*
X120158340Y-84370351D01*
X120032960Y-84165751D01*
X119877118Y-83983282D01*
X119694649Y-83827440D01*
X119490049Y-83702060D01*
X119485479Y-83700167D01*
X119485477Y-83700166D01*
X119272926Y-83612125D01*
X119272924Y-83612124D01*
X119268353Y-83610231D01*
X119186763Y-83590643D01*
X119039835Y-83555368D01*
X119039829Y-83555367D01*
X119035022Y-83554213D01*
X118795800Y-83535386D01*
X118556578Y-83554213D01*
X118551771Y-83555367D01*
X118551765Y-83555368D01*
X118404837Y-83590643D01*
X118323247Y-83610231D01*
X118318676Y-83612124D01*
X118318674Y-83612125D01*
X118106123Y-83700166D01*
X118106121Y-83700167D01*
X118101551Y-83702060D01*
X117896951Y-83827440D01*
X117714482Y-83983282D01*
X117558640Y-84165751D01*
X117433260Y-84370351D01*
X117431367Y-84374921D01*
X117431366Y-84374923D01*
X117376297Y-84507873D01*
X117341431Y-84592047D01*
X117340276Y-84596859D01*
X117286568Y-84820565D01*
X117286567Y-84820571D01*
X117285413Y-84825378D01*
X117266586Y-85064600D01*
X112243100Y-85064600D01*
X112243100Y-77842103D01*
X112263102Y-77773982D01*
X112316758Y-77727489D01*
X112387032Y-77717385D01*
X112451612Y-77746879D01*
X112466183Y-77761786D01*
X112540808Y-77851992D01*
X112761729Y-78059450D01*
X113006910Y-78237584D01*
X113272483Y-78383585D01*
X113276152Y-78385038D01*
X113276157Y-78385040D01*
X113550591Y-78493696D01*
X113554261Y-78495149D01*
X113847800Y-78570516D01*
X114148470Y-78608500D01*
X114451530Y-78608500D01*
X114752200Y-78570516D01*
X115045739Y-78495149D01*
X115049409Y-78493696D01*
X115323843Y-78385040D01*
X115323848Y-78385038D01*
X115327517Y-78383585D01*
X115593090Y-78237584D01*
X115838271Y-78059450D01*
X116059192Y-77851992D01*
X116252370Y-77618480D01*
X116414758Y-77362598D01*
X116543794Y-77088381D01*
X116637445Y-76800154D01*
X116694233Y-76502462D01*
X116713262Y-76200000D01*
X116694233Y-75897538D01*
X116637445Y-75599846D01*
X116543794Y-75311619D01*
X116414758Y-75037402D01*
X116252370Y-74781520D01*
X116059192Y-74548008D01*
X115838271Y-74340550D01*
X115705431Y-74244036D01*
X115662077Y-74187814D01*
X115656002Y-74117078D01*
X115689133Y-74054286D01*
X115750953Y-74019374D01*
X115779492Y-74016100D01*
X158413508Y-74016100D01*
X158481629Y-74036102D01*
G37*
%TD.AperFunction*%
%TA.AperFunction,NonConductor*%
G36*
X112451612Y-105382079D02*
G01*
X112466183Y-105396986D01*
X112540808Y-105487192D01*
X112761729Y-105694650D01*
X113006910Y-105872784D01*
X113010379Y-105874691D01*
X113010382Y-105874693D01*
X113166438Y-105960486D01*
X113216497Y-106010831D01*
X113231390Y-106080248D01*
X113206389Y-106146697D01*
X113149432Y-106189081D01*
X113105737Y-106196900D01*
X112369100Y-106196900D01*
X112300979Y-106176898D01*
X112254486Y-106123242D01*
X112243100Y-106070900D01*
X112243100Y-105477303D01*
X112263102Y-105409182D01*
X112316758Y-105362689D01*
X112387032Y-105352585D01*
X112451612Y-105382079D01*
G37*
%TD.AperFunction*%
M02*
