%TF.GenerationSoftware,KiCad,Pcbnew,(6.0.10)*%
%TF.CreationDate,2023-02-03T17:52:03+05:30*%
%TF.ProjectId,protectionCkt,70726f74-6563-4746-996f-6e436b742e6b,rev?*%
%TF.SameCoordinates,Original*%
%TF.FileFunction,Drillmap*%
%TF.FilePolarity,Positive*%
%FSLAX45Y45*%
G04 Gerber Fmt 4.5, Leading zero omitted, Abs format (unit mm)*
G04 Created by KiCad (PCBNEW (6.0.10)) date 2023-02-03 17:52:03*
%MOMM*%
%LPD*%
G01*
G04 APERTURE LIST*
%ADD10C,0.100000*%
%ADD11C,0.200000*%
%ADD12C,0.040000*%
%ADD13C,0.127000*%
%ADD14C,0.220000*%
G04 APERTURE END LIST*
D10*
X11173460Y-7350760D02*
X16266160Y-7350760D01*
X16266160Y-7350760D02*
X16266160Y-10670540D01*
X16266160Y-10670540D02*
X11173460Y-10670540D01*
X11173460Y-10670540D02*
X11173460Y-7350760D01*
D11*
D12*
X13337860Y-8875080D02*
X13377860Y-8915080D01*
X13377860Y-8875080D02*
X13337860Y-8915080D01*
X13505500Y-8669340D02*
X13545500Y-8709340D01*
X13545500Y-8669340D02*
X13505500Y-8709340D01*
X13609640Y-8478840D02*
X13649640Y-8518840D01*
X13649640Y-8478840D02*
X13609640Y-8518840D01*
X14061760Y-9266240D02*
X14101760Y-9306240D01*
X14101760Y-9266240D02*
X14061760Y-9306240D01*
X14287820Y-9428800D02*
X14327820Y-9468800D01*
X14327820Y-9428800D02*
X14287820Y-9468800D01*
X14729780Y-9675180D02*
X14769780Y-9715180D01*
X14769780Y-9675180D02*
X14729780Y-9715180D01*
D13*
X11943080Y-8506460D02*
G75*
G03*
X11943080Y-8506460I-63500J0D01*
G01*
X11943080Y-9014460D02*
G75*
G03*
X11943080Y-9014460I-63500J0D01*
G01*
X13487400Y-10121900D02*
G75*
G03*
X13487400Y-10121900I-63500J0D01*
G01*
X13995400Y-10121900D02*
G75*
G03*
X13995400Y-10121900I-63500J0D01*
G01*
X15590520Y-8506460D02*
G75*
G03*
X15590520Y-8506460I-63500J0D01*
G01*
X15590520Y-9014460D02*
G75*
G03*
X15590520Y-9014460I-63500J0D01*
G01*
D14*
X11430000Y-7510000D02*
X11430000Y-7730000D01*
X11320000Y-7620000D02*
X11540000Y-7620000D01*
X11430000Y-10273520D02*
X11430000Y-10493520D01*
X11320000Y-10383520D02*
X11540000Y-10383520D01*
X15989300Y-7510000D02*
X15989300Y-7730000D01*
X15879300Y-7620000D02*
X16099300Y-7620000D01*
X15996920Y-10268440D02*
X15996920Y-10488440D01*
X15886920Y-10378440D02*
X16106920Y-10378440D01*
D11*
X11426079Y-10986016D02*
X11426079Y-10786016D01*
X11473698Y-10786016D01*
X11502269Y-10795540D01*
X11521317Y-10814588D01*
X11530841Y-10833635D01*
X11540365Y-10871730D01*
X11540365Y-10900302D01*
X11530841Y-10938397D01*
X11521317Y-10957445D01*
X11502269Y-10976492D01*
X11473698Y-10986016D01*
X11426079Y-10986016D01*
X11626079Y-10986016D02*
X11626079Y-10852683D01*
X11626079Y-10890778D02*
X11635603Y-10871730D01*
X11645127Y-10862207D01*
X11664174Y-10852683D01*
X11683222Y-10852683D01*
X11749888Y-10986016D02*
X11749888Y-10852683D01*
X11749888Y-10786016D02*
X11740365Y-10795540D01*
X11749888Y-10805064D01*
X11759412Y-10795540D01*
X11749888Y-10786016D01*
X11749888Y-10805064D01*
X11873698Y-10986016D02*
X11854650Y-10976492D01*
X11845127Y-10957445D01*
X11845127Y-10786016D01*
X11978460Y-10986016D02*
X11959412Y-10976492D01*
X11949888Y-10957445D01*
X11949888Y-10786016D01*
X12207031Y-10986016D02*
X12207031Y-10786016D01*
X12273698Y-10928873D01*
X12340365Y-10786016D01*
X12340365Y-10986016D01*
X12521317Y-10986016D02*
X12521317Y-10881254D01*
X12511793Y-10862207D01*
X12492746Y-10852683D01*
X12454650Y-10852683D01*
X12435603Y-10862207D01*
X12521317Y-10976492D02*
X12502269Y-10986016D01*
X12454650Y-10986016D01*
X12435603Y-10976492D01*
X12426079Y-10957445D01*
X12426079Y-10938397D01*
X12435603Y-10919350D01*
X12454650Y-10909826D01*
X12502269Y-10909826D01*
X12521317Y-10900302D01*
X12616555Y-10852683D02*
X12616555Y-11052683D01*
X12616555Y-10862207D02*
X12635603Y-10852683D01*
X12673698Y-10852683D01*
X12692746Y-10862207D01*
X12702269Y-10871730D01*
X12711793Y-10890778D01*
X12711793Y-10947921D01*
X12702269Y-10966969D01*
X12692746Y-10976492D01*
X12673698Y-10986016D01*
X12635603Y-10986016D01*
X12616555Y-10976492D01*
X12797508Y-10966969D02*
X12807031Y-10976492D01*
X12797508Y-10986016D01*
X12787984Y-10976492D01*
X12797508Y-10966969D01*
X12797508Y-10986016D01*
X12797508Y-10862207D02*
X12807031Y-10871730D01*
X12797508Y-10881254D01*
X12787984Y-10871730D01*
X12797508Y-10862207D01*
X12797508Y-10881254D01*
D12*
X11128460Y-11295540D02*
X11168460Y-11335540D01*
X11168460Y-11295540D02*
X11128460Y-11335540D01*
D11*
X11464174Y-11206016D02*
X11483222Y-11206016D01*
X11502269Y-11215540D01*
X11511793Y-11225064D01*
X11521317Y-11244111D01*
X11530841Y-11282207D01*
X11530841Y-11329826D01*
X11521317Y-11367921D01*
X11511793Y-11386968D01*
X11502269Y-11396492D01*
X11483222Y-11406016D01*
X11464174Y-11406016D01*
X11445127Y-11396492D01*
X11435603Y-11386968D01*
X11426079Y-11367921D01*
X11416555Y-11329826D01*
X11416555Y-11282207D01*
X11426079Y-11244111D01*
X11435603Y-11225064D01*
X11445127Y-11215540D01*
X11464174Y-11206016D01*
X11616555Y-11386968D02*
X11626079Y-11396492D01*
X11616555Y-11406016D01*
X11607031Y-11396492D01*
X11616555Y-11386968D01*
X11616555Y-11406016D01*
X11797508Y-11272683D02*
X11797508Y-11406016D01*
X11749888Y-11196492D02*
X11702269Y-11339349D01*
X11826079Y-11339349D01*
X11940365Y-11206016D02*
X11959412Y-11206016D01*
X11978460Y-11215540D01*
X11987984Y-11225064D01*
X11997508Y-11244111D01*
X12007031Y-11282207D01*
X12007031Y-11329826D01*
X11997508Y-11367921D01*
X11987984Y-11386968D01*
X11978460Y-11396492D01*
X11959412Y-11406016D01*
X11940365Y-11406016D01*
X11921317Y-11396492D01*
X11911793Y-11386968D01*
X11902269Y-11367921D01*
X11892746Y-11329826D01*
X11892746Y-11282207D01*
X11902269Y-11244111D01*
X11911793Y-11225064D01*
X11921317Y-11215540D01*
X11940365Y-11206016D01*
X12130841Y-11206016D02*
X12149888Y-11206016D01*
X12168936Y-11215540D01*
X12178460Y-11225064D01*
X12187984Y-11244111D01*
X12197508Y-11282207D01*
X12197508Y-11329826D01*
X12187984Y-11367921D01*
X12178460Y-11386968D01*
X12168936Y-11396492D01*
X12149888Y-11406016D01*
X12130841Y-11406016D01*
X12111793Y-11396492D01*
X12102269Y-11386968D01*
X12092746Y-11367921D01*
X12083222Y-11329826D01*
X12083222Y-11282207D01*
X12092746Y-11244111D01*
X12102269Y-11225064D01*
X12111793Y-11215540D01*
X12130841Y-11206016D01*
X12283222Y-11406016D02*
X12283222Y-11272683D01*
X12283222Y-11291730D02*
X12292746Y-11282207D01*
X12311793Y-11272683D01*
X12340365Y-11272683D01*
X12359412Y-11282207D01*
X12368936Y-11301254D01*
X12368936Y-11406016D01*
X12368936Y-11301254D02*
X12378460Y-11282207D01*
X12397508Y-11272683D01*
X12426079Y-11272683D01*
X12445127Y-11282207D01*
X12454650Y-11301254D01*
X12454650Y-11406016D01*
X12549888Y-11406016D02*
X12549888Y-11272683D01*
X12549888Y-11291730D02*
X12559412Y-11282207D01*
X12578460Y-11272683D01*
X12607031Y-11272683D01*
X12626079Y-11282207D01*
X12635603Y-11301254D01*
X12635603Y-11406016D01*
X12635603Y-11301254D02*
X12645127Y-11282207D01*
X12664174Y-11272683D01*
X12692746Y-11272683D01*
X12711793Y-11282207D01*
X12721317Y-11301254D01*
X12721317Y-11406016D01*
X13111793Y-11196492D02*
X12940365Y-11453635D01*
X13368936Y-11206016D02*
X13387984Y-11206016D01*
X13407031Y-11215540D01*
X13416555Y-11225064D01*
X13426079Y-11244111D01*
X13435603Y-11282207D01*
X13435603Y-11329826D01*
X13426079Y-11367921D01*
X13416555Y-11386968D01*
X13407031Y-11396492D01*
X13387984Y-11406016D01*
X13368936Y-11406016D01*
X13349888Y-11396492D01*
X13340365Y-11386968D01*
X13330841Y-11367921D01*
X13321317Y-11329826D01*
X13321317Y-11282207D01*
X13330841Y-11244111D01*
X13340365Y-11225064D01*
X13349888Y-11215540D01*
X13368936Y-11206016D01*
X13521317Y-11386968D02*
X13530841Y-11396492D01*
X13521317Y-11406016D01*
X13511793Y-11396492D01*
X13521317Y-11386968D01*
X13521317Y-11406016D01*
X13654650Y-11206016D02*
X13673698Y-11206016D01*
X13692746Y-11215540D01*
X13702269Y-11225064D01*
X13711793Y-11244111D01*
X13721317Y-11282207D01*
X13721317Y-11329826D01*
X13711793Y-11367921D01*
X13702269Y-11386968D01*
X13692746Y-11396492D01*
X13673698Y-11406016D01*
X13654650Y-11406016D01*
X13635603Y-11396492D01*
X13626079Y-11386968D01*
X13616555Y-11367921D01*
X13607031Y-11329826D01*
X13607031Y-11282207D01*
X13616555Y-11244111D01*
X13626079Y-11225064D01*
X13635603Y-11215540D01*
X13654650Y-11206016D01*
X13911793Y-11406016D02*
X13797508Y-11406016D01*
X13854650Y-11406016D02*
X13854650Y-11206016D01*
X13835603Y-11234588D01*
X13816555Y-11253635D01*
X13797508Y-11263159D01*
X14092746Y-11206016D02*
X13997508Y-11206016D01*
X13987984Y-11301254D01*
X13997508Y-11291730D01*
X14016555Y-11282207D01*
X14064174Y-11282207D01*
X14083222Y-11291730D01*
X14092746Y-11301254D01*
X14102269Y-11320302D01*
X14102269Y-11367921D01*
X14092746Y-11386968D01*
X14083222Y-11396492D01*
X14064174Y-11406016D01*
X14016555Y-11406016D01*
X13997508Y-11396492D01*
X13987984Y-11386968D01*
X14168936Y-11206016D02*
X14302269Y-11206016D01*
X14216555Y-11406016D01*
X14368936Y-11206016D02*
X14368936Y-11244111D01*
X14445127Y-11206016D02*
X14445127Y-11244111D01*
X14740365Y-11482207D02*
X14730841Y-11472683D01*
X14711793Y-11444111D01*
X14702269Y-11425064D01*
X14692746Y-11396492D01*
X14683222Y-11348873D01*
X14683222Y-11310778D01*
X14692746Y-11263159D01*
X14702269Y-11234588D01*
X14711793Y-11215540D01*
X14730841Y-11186968D01*
X14740365Y-11177445D01*
X14902269Y-11206016D02*
X14864174Y-11206016D01*
X14845127Y-11215540D01*
X14835603Y-11225064D01*
X14816555Y-11253635D01*
X14807031Y-11291730D01*
X14807031Y-11367921D01*
X14816555Y-11386968D01*
X14826079Y-11396492D01*
X14845127Y-11406016D01*
X14883222Y-11406016D01*
X14902269Y-11396492D01*
X14911793Y-11386968D01*
X14921317Y-11367921D01*
X14921317Y-11320302D01*
X14911793Y-11301254D01*
X14902269Y-11291730D01*
X14883222Y-11282207D01*
X14845127Y-11282207D01*
X14826079Y-11291730D01*
X14816555Y-11301254D01*
X14807031Y-11320302D01*
X15159412Y-11406016D02*
X15159412Y-11206016D01*
X15245127Y-11406016D02*
X15245127Y-11301254D01*
X15235603Y-11282207D01*
X15216555Y-11272683D01*
X15187984Y-11272683D01*
X15168936Y-11282207D01*
X15159412Y-11291730D01*
X15368936Y-11406016D02*
X15349888Y-11396492D01*
X15340365Y-11386968D01*
X15330841Y-11367921D01*
X15330841Y-11310778D01*
X15340365Y-11291730D01*
X15349888Y-11282207D01*
X15368936Y-11272683D01*
X15397508Y-11272683D01*
X15416555Y-11282207D01*
X15426079Y-11291730D01*
X15435603Y-11310778D01*
X15435603Y-11367921D01*
X15426079Y-11386968D01*
X15416555Y-11396492D01*
X15397508Y-11406016D01*
X15368936Y-11406016D01*
X15549888Y-11406016D02*
X15530841Y-11396492D01*
X15521317Y-11377445D01*
X15521317Y-11206016D01*
X15702269Y-11396492D02*
X15683222Y-11406016D01*
X15645127Y-11406016D01*
X15626079Y-11396492D01*
X15616555Y-11377445D01*
X15616555Y-11301254D01*
X15626079Y-11282207D01*
X15645127Y-11272683D01*
X15683222Y-11272683D01*
X15702269Y-11282207D01*
X15711793Y-11301254D01*
X15711793Y-11320302D01*
X15616555Y-11339349D01*
X15787984Y-11396492D02*
X15807031Y-11406016D01*
X15845127Y-11406016D01*
X15864174Y-11396492D01*
X15873698Y-11377445D01*
X15873698Y-11367921D01*
X15864174Y-11348873D01*
X15845127Y-11339349D01*
X15816555Y-11339349D01*
X15797508Y-11329826D01*
X15787984Y-11310778D01*
X15787984Y-11301254D01*
X15797508Y-11282207D01*
X15816555Y-11272683D01*
X15845127Y-11272683D01*
X15864174Y-11282207D01*
X15940365Y-11482207D02*
X15949888Y-11472683D01*
X15968936Y-11444111D01*
X15978460Y-11425064D01*
X15987984Y-11396492D01*
X15997508Y-11348873D01*
X15997508Y-11310778D01*
X15987984Y-11263159D01*
X15978460Y-11234588D01*
X15968936Y-11215540D01*
X15949888Y-11186968D01*
X15940365Y-11177445D01*
D13*
X11168460Y-11579540D02*
G75*
G03*
X11168460Y-11579540I-63500J0D01*
G01*
D11*
X11530841Y-11670016D02*
X11416555Y-11670016D01*
X11473698Y-11670016D02*
X11473698Y-11470016D01*
X11454650Y-11498588D01*
X11435603Y-11517635D01*
X11416555Y-11527159D01*
X11616555Y-11650968D02*
X11626079Y-11660492D01*
X11616555Y-11670016D01*
X11607031Y-11660492D01*
X11616555Y-11650968D01*
X11616555Y-11670016D01*
X11702269Y-11489064D02*
X11711793Y-11479540D01*
X11730841Y-11470016D01*
X11778460Y-11470016D01*
X11797508Y-11479540D01*
X11807031Y-11489064D01*
X11816555Y-11508111D01*
X11816555Y-11527159D01*
X11807031Y-11555730D01*
X11692746Y-11670016D01*
X11816555Y-11670016D01*
X11883222Y-11470016D02*
X12016555Y-11470016D01*
X11930841Y-11670016D01*
X12130841Y-11470016D02*
X12149888Y-11470016D01*
X12168936Y-11479540D01*
X12178460Y-11489064D01*
X12187984Y-11508111D01*
X12197508Y-11546207D01*
X12197508Y-11593826D01*
X12187984Y-11631921D01*
X12178460Y-11650968D01*
X12168936Y-11660492D01*
X12149888Y-11670016D01*
X12130841Y-11670016D01*
X12111793Y-11660492D01*
X12102269Y-11650968D01*
X12092746Y-11631921D01*
X12083222Y-11593826D01*
X12083222Y-11546207D01*
X12092746Y-11508111D01*
X12102269Y-11489064D01*
X12111793Y-11479540D01*
X12130841Y-11470016D01*
X12283222Y-11670016D02*
X12283222Y-11536683D01*
X12283222Y-11555730D02*
X12292746Y-11546207D01*
X12311793Y-11536683D01*
X12340365Y-11536683D01*
X12359412Y-11546207D01*
X12368936Y-11565254D01*
X12368936Y-11670016D01*
X12368936Y-11565254D02*
X12378460Y-11546207D01*
X12397508Y-11536683D01*
X12426079Y-11536683D01*
X12445127Y-11546207D01*
X12454650Y-11565254D01*
X12454650Y-11670016D01*
X12549888Y-11670016D02*
X12549888Y-11536683D01*
X12549888Y-11555730D02*
X12559412Y-11546207D01*
X12578460Y-11536683D01*
X12607031Y-11536683D01*
X12626079Y-11546207D01*
X12635603Y-11565254D01*
X12635603Y-11670016D01*
X12635603Y-11565254D02*
X12645127Y-11546207D01*
X12664174Y-11536683D01*
X12692746Y-11536683D01*
X12711793Y-11546207D01*
X12721317Y-11565254D01*
X12721317Y-11670016D01*
X13111793Y-11460492D02*
X12940365Y-11717635D01*
X13368936Y-11470016D02*
X13387984Y-11470016D01*
X13407031Y-11479540D01*
X13416555Y-11489064D01*
X13426079Y-11508111D01*
X13435603Y-11546207D01*
X13435603Y-11593826D01*
X13426079Y-11631921D01*
X13416555Y-11650968D01*
X13407031Y-11660492D01*
X13387984Y-11670016D01*
X13368936Y-11670016D01*
X13349888Y-11660492D01*
X13340365Y-11650968D01*
X13330841Y-11631921D01*
X13321317Y-11593826D01*
X13321317Y-11546207D01*
X13330841Y-11508111D01*
X13340365Y-11489064D01*
X13349888Y-11479540D01*
X13368936Y-11470016D01*
X13521317Y-11650968D02*
X13530841Y-11660492D01*
X13521317Y-11670016D01*
X13511793Y-11660492D01*
X13521317Y-11650968D01*
X13521317Y-11670016D01*
X13654650Y-11470016D02*
X13673698Y-11470016D01*
X13692746Y-11479540D01*
X13702269Y-11489064D01*
X13711793Y-11508111D01*
X13721317Y-11546207D01*
X13721317Y-11593826D01*
X13711793Y-11631921D01*
X13702269Y-11650968D01*
X13692746Y-11660492D01*
X13673698Y-11670016D01*
X13654650Y-11670016D01*
X13635603Y-11660492D01*
X13626079Y-11650968D01*
X13616555Y-11631921D01*
X13607031Y-11593826D01*
X13607031Y-11546207D01*
X13616555Y-11508111D01*
X13626079Y-11489064D01*
X13635603Y-11479540D01*
X13654650Y-11470016D01*
X13902269Y-11470016D02*
X13807031Y-11470016D01*
X13797508Y-11565254D01*
X13807031Y-11555730D01*
X13826079Y-11546207D01*
X13873698Y-11546207D01*
X13892746Y-11555730D01*
X13902269Y-11565254D01*
X13911793Y-11584302D01*
X13911793Y-11631921D01*
X13902269Y-11650968D01*
X13892746Y-11660492D01*
X13873698Y-11670016D01*
X13826079Y-11670016D01*
X13807031Y-11660492D01*
X13797508Y-11650968D01*
X14035603Y-11470016D02*
X14054650Y-11470016D01*
X14073698Y-11479540D01*
X14083222Y-11489064D01*
X14092746Y-11508111D01*
X14102269Y-11546207D01*
X14102269Y-11593826D01*
X14092746Y-11631921D01*
X14083222Y-11650968D01*
X14073698Y-11660492D01*
X14054650Y-11670016D01*
X14035603Y-11670016D01*
X14016555Y-11660492D01*
X14007031Y-11650968D01*
X13997508Y-11631921D01*
X13987984Y-11593826D01*
X13987984Y-11546207D01*
X13997508Y-11508111D01*
X14007031Y-11489064D01*
X14016555Y-11479540D01*
X14035603Y-11470016D01*
X14226079Y-11470016D02*
X14245127Y-11470016D01*
X14264174Y-11479540D01*
X14273698Y-11489064D01*
X14283222Y-11508111D01*
X14292746Y-11546207D01*
X14292746Y-11593826D01*
X14283222Y-11631921D01*
X14273698Y-11650968D01*
X14264174Y-11660492D01*
X14245127Y-11670016D01*
X14226079Y-11670016D01*
X14207031Y-11660492D01*
X14197508Y-11650968D01*
X14187984Y-11631921D01*
X14178460Y-11593826D01*
X14178460Y-11546207D01*
X14187984Y-11508111D01*
X14197508Y-11489064D01*
X14207031Y-11479540D01*
X14226079Y-11470016D01*
X14368936Y-11470016D02*
X14368936Y-11508111D01*
X14445127Y-11470016D02*
X14445127Y-11508111D01*
X14740365Y-11746207D02*
X14730841Y-11736683D01*
X14711793Y-11708111D01*
X14702269Y-11689064D01*
X14692746Y-11660492D01*
X14683222Y-11612873D01*
X14683222Y-11574778D01*
X14692746Y-11527159D01*
X14702269Y-11498588D01*
X14711793Y-11479540D01*
X14730841Y-11450968D01*
X14740365Y-11441445D01*
X14902269Y-11470016D02*
X14864174Y-11470016D01*
X14845127Y-11479540D01*
X14835603Y-11489064D01*
X14816555Y-11517635D01*
X14807031Y-11555730D01*
X14807031Y-11631921D01*
X14816555Y-11650968D01*
X14826079Y-11660492D01*
X14845127Y-11670016D01*
X14883222Y-11670016D01*
X14902269Y-11660492D01*
X14911793Y-11650968D01*
X14921317Y-11631921D01*
X14921317Y-11584302D01*
X14911793Y-11565254D01*
X14902269Y-11555730D01*
X14883222Y-11546207D01*
X14845127Y-11546207D01*
X14826079Y-11555730D01*
X14816555Y-11565254D01*
X14807031Y-11584302D01*
X15159412Y-11670016D02*
X15159412Y-11470016D01*
X15245127Y-11670016D02*
X15245127Y-11565254D01*
X15235603Y-11546207D01*
X15216555Y-11536683D01*
X15187984Y-11536683D01*
X15168936Y-11546207D01*
X15159412Y-11555730D01*
X15368936Y-11670016D02*
X15349888Y-11660492D01*
X15340365Y-11650968D01*
X15330841Y-11631921D01*
X15330841Y-11574778D01*
X15340365Y-11555730D01*
X15349888Y-11546207D01*
X15368936Y-11536683D01*
X15397508Y-11536683D01*
X15416555Y-11546207D01*
X15426079Y-11555730D01*
X15435603Y-11574778D01*
X15435603Y-11631921D01*
X15426079Y-11650968D01*
X15416555Y-11660492D01*
X15397508Y-11670016D01*
X15368936Y-11670016D01*
X15549888Y-11670016D02*
X15530841Y-11660492D01*
X15521317Y-11641445D01*
X15521317Y-11470016D01*
X15702269Y-11660492D02*
X15683222Y-11670016D01*
X15645127Y-11670016D01*
X15626079Y-11660492D01*
X15616555Y-11641445D01*
X15616555Y-11565254D01*
X15626079Y-11546207D01*
X15645127Y-11536683D01*
X15683222Y-11536683D01*
X15702269Y-11546207D01*
X15711793Y-11565254D01*
X15711793Y-11584302D01*
X15616555Y-11603349D01*
X15787984Y-11660492D02*
X15807031Y-11670016D01*
X15845127Y-11670016D01*
X15864174Y-11660492D01*
X15873698Y-11641445D01*
X15873698Y-11631921D01*
X15864174Y-11612873D01*
X15845127Y-11603349D01*
X15816555Y-11603349D01*
X15797508Y-11593826D01*
X15787984Y-11574778D01*
X15787984Y-11565254D01*
X15797508Y-11546207D01*
X15816555Y-11536683D01*
X15845127Y-11536683D01*
X15864174Y-11546207D01*
X15940365Y-11746207D02*
X15949888Y-11736683D01*
X15968936Y-11708111D01*
X15978460Y-11689064D01*
X15987984Y-11660492D01*
X15997508Y-11612873D01*
X15997508Y-11574778D01*
X15987984Y-11527159D01*
X15978460Y-11498588D01*
X15968936Y-11479540D01*
X15949888Y-11450968D01*
X15940365Y-11441445D01*
X11068460Y-11743540D02*
X11068460Y-11943540D01*
X10968460Y-11843540D02*
X11168460Y-11843540D01*
X11416555Y-11753064D02*
X11426079Y-11743540D01*
X11445127Y-11734016D01*
X11492746Y-11734016D01*
X11511793Y-11743540D01*
X11521317Y-11753064D01*
X11530841Y-11772111D01*
X11530841Y-11791159D01*
X11521317Y-11819730D01*
X11407031Y-11934016D01*
X11530841Y-11934016D01*
X11616555Y-11914968D02*
X11626079Y-11924492D01*
X11616555Y-11934016D01*
X11607031Y-11924492D01*
X11616555Y-11914968D01*
X11616555Y-11934016D01*
X11702269Y-11753064D02*
X11711793Y-11743540D01*
X11730841Y-11734016D01*
X11778460Y-11734016D01*
X11797508Y-11743540D01*
X11807031Y-11753064D01*
X11816555Y-11772111D01*
X11816555Y-11791159D01*
X11807031Y-11819730D01*
X11692746Y-11934016D01*
X11816555Y-11934016D01*
X11940365Y-11734016D02*
X11959412Y-11734016D01*
X11978460Y-11743540D01*
X11987984Y-11753064D01*
X11997508Y-11772111D01*
X12007031Y-11810207D01*
X12007031Y-11857826D01*
X11997508Y-11895921D01*
X11987984Y-11914968D01*
X11978460Y-11924492D01*
X11959412Y-11934016D01*
X11940365Y-11934016D01*
X11921317Y-11924492D01*
X11911793Y-11914968D01*
X11902269Y-11895921D01*
X11892746Y-11857826D01*
X11892746Y-11810207D01*
X11902269Y-11772111D01*
X11911793Y-11753064D01*
X11921317Y-11743540D01*
X11940365Y-11734016D01*
X12130841Y-11734016D02*
X12149888Y-11734016D01*
X12168936Y-11743540D01*
X12178460Y-11753064D01*
X12187984Y-11772111D01*
X12197508Y-11810207D01*
X12197508Y-11857826D01*
X12187984Y-11895921D01*
X12178460Y-11914968D01*
X12168936Y-11924492D01*
X12149888Y-11934016D01*
X12130841Y-11934016D01*
X12111793Y-11924492D01*
X12102269Y-11914968D01*
X12092746Y-11895921D01*
X12083222Y-11857826D01*
X12083222Y-11810207D01*
X12092746Y-11772111D01*
X12102269Y-11753064D01*
X12111793Y-11743540D01*
X12130841Y-11734016D01*
X12283222Y-11934016D02*
X12283222Y-11800683D01*
X12283222Y-11819730D02*
X12292746Y-11810207D01*
X12311793Y-11800683D01*
X12340365Y-11800683D01*
X12359412Y-11810207D01*
X12368936Y-11829254D01*
X12368936Y-11934016D01*
X12368936Y-11829254D02*
X12378460Y-11810207D01*
X12397508Y-11800683D01*
X12426079Y-11800683D01*
X12445127Y-11810207D01*
X12454650Y-11829254D01*
X12454650Y-11934016D01*
X12549888Y-11934016D02*
X12549888Y-11800683D01*
X12549888Y-11819730D02*
X12559412Y-11810207D01*
X12578460Y-11800683D01*
X12607031Y-11800683D01*
X12626079Y-11810207D01*
X12635603Y-11829254D01*
X12635603Y-11934016D01*
X12635603Y-11829254D02*
X12645127Y-11810207D01*
X12664174Y-11800683D01*
X12692746Y-11800683D01*
X12711793Y-11810207D01*
X12721317Y-11829254D01*
X12721317Y-11934016D01*
X13111793Y-11724492D02*
X12940365Y-11981635D01*
X13368936Y-11734016D02*
X13387984Y-11734016D01*
X13407031Y-11743540D01*
X13416555Y-11753064D01*
X13426079Y-11772111D01*
X13435603Y-11810207D01*
X13435603Y-11857826D01*
X13426079Y-11895921D01*
X13416555Y-11914968D01*
X13407031Y-11924492D01*
X13387984Y-11934016D01*
X13368936Y-11934016D01*
X13349888Y-11924492D01*
X13340365Y-11914968D01*
X13330841Y-11895921D01*
X13321317Y-11857826D01*
X13321317Y-11810207D01*
X13330841Y-11772111D01*
X13340365Y-11753064D01*
X13349888Y-11743540D01*
X13368936Y-11734016D01*
X13521317Y-11914968D02*
X13530841Y-11924492D01*
X13521317Y-11934016D01*
X13511793Y-11924492D01*
X13521317Y-11914968D01*
X13521317Y-11934016D01*
X13654650Y-11734016D02*
X13673698Y-11734016D01*
X13692746Y-11743540D01*
X13702269Y-11753064D01*
X13711793Y-11772111D01*
X13721317Y-11810207D01*
X13721317Y-11857826D01*
X13711793Y-11895921D01*
X13702269Y-11914968D01*
X13692746Y-11924492D01*
X13673698Y-11934016D01*
X13654650Y-11934016D01*
X13635603Y-11924492D01*
X13626079Y-11914968D01*
X13616555Y-11895921D01*
X13607031Y-11857826D01*
X13607031Y-11810207D01*
X13616555Y-11772111D01*
X13626079Y-11753064D01*
X13635603Y-11743540D01*
X13654650Y-11734016D01*
X13835603Y-11819730D02*
X13816555Y-11810207D01*
X13807031Y-11800683D01*
X13797508Y-11781635D01*
X13797508Y-11772111D01*
X13807031Y-11753064D01*
X13816555Y-11743540D01*
X13835603Y-11734016D01*
X13873698Y-11734016D01*
X13892746Y-11743540D01*
X13902269Y-11753064D01*
X13911793Y-11772111D01*
X13911793Y-11781635D01*
X13902269Y-11800683D01*
X13892746Y-11810207D01*
X13873698Y-11819730D01*
X13835603Y-11819730D01*
X13816555Y-11829254D01*
X13807031Y-11838778D01*
X13797508Y-11857826D01*
X13797508Y-11895921D01*
X13807031Y-11914968D01*
X13816555Y-11924492D01*
X13835603Y-11934016D01*
X13873698Y-11934016D01*
X13892746Y-11924492D01*
X13902269Y-11914968D01*
X13911793Y-11895921D01*
X13911793Y-11857826D01*
X13902269Y-11838778D01*
X13892746Y-11829254D01*
X13873698Y-11819730D01*
X14083222Y-11734016D02*
X14045127Y-11734016D01*
X14026079Y-11743540D01*
X14016555Y-11753064D01*
X13997508Y-11781635D01*
X13987984Y-11819730D01*
X13987984Y-11895921D01*
X13997508Y-11914968D01*
X14007031Y-11924492D01*
X14026079Y-11934016D01*
X14064174Y-11934016D01*
X14083222Y-11924492D01*
X14092746Y-11914968D01*
X14102269Y-11895921D01*
X14102269Y-11848302D01*
X14092746Y-11829254D01*
X14083222Y-11819730D01*
X14064174Y-11810207D01*
X14026079Y-11810207D01*
X14007031Y-11819730D01*
X13997508Y-11829254D01*
X13987984Y-11848302D01*
X14273698Y-11734016D02*
X14235603Y-11734016D01*
X14216555Y-11743540D01*
X14207031Y-11753064D01*
X14187984Y-11781635D01*
X14178460Y-11819730D01*
X14178460Y-11895921D01*
X14187984Y-11914968D01*
X14197508Y-11924492D01*
X14216555Y-11934016D01*
X14254650Y-11934016D01*
X14273698Y-11924492D01*
X14283222Y-11914968D01*
X14292746Y-11895921D01*
X14292746Y-11848302D01*
X14283222Y-11829254D01*
X14273698Y-11819730D01*
X14254650Y-11810207D01*
X14216555Y-11810207D01*
X14197508Y-11819730D01*
X14187984Y-11829254D01*
X14178460Y-11848302D01*
X14368936Y-11734016D02*
X14368936Y-11772111D01*
X14445127Y-11734016D02*
X14445127Y-11772111D01*
X14740365Y-12010207D02*
X14730841Y-12000683D01*
X14711793Y-11972111D01*
X14702269Y-11953064D01*
X14692746Y-11924492D01*
X14683222Y-11876873D01*
X14683222Y-11838778D01*
X14692746Y-11791159D01*
X14702269Y-11762588D01*
X14711793Y-11743540D01*
X14730841Y-11714968D01*
X14740365Y-11705445D01*
X14902269Y-11800683D02*
X14902269Y-11934016D01*
X14854650Y-11724492D02*
X14807031Y-11867349D01*
X14930841Y-11867349D01*
X15159412Y-11934016D02*
X15159412Y-11734016D01*
X15245127Y-11934016D02*
X15245127Y-11829254D01*
X15235603Y-11810207D01*
X15216555Y-11800683D01*
X15187984Y-11800683D01*
X15168936Y-11810207D01*
X15159412Y-11819730D01*
X15368936Y-11934016D02*
X15349888Y-11924492D01*
X15340365Y-11914968D01*
X15330841Y-11895921D01*
X15330841Y-11838778D01*
X15340365Y-11819730D01*
X15349888Y-11810207D01*
X15368936Y-11800683D01*
X15397508Y-11800683D01*
X15416555Y-11810207D01*
X15426079Y-11819730D01*
X15435603Y-11838778D01*
X15435603Y-11895921D01*
X15426079Y-11914968D01*
X15416555Y-11924492D01*
X15397508Y-11934016D01*
X15368936Y-11934016D01*
X15549888Y-11934016D02*
X15530841Y-11924492D01*
X15521317Y-11905445D01*
X15521317Y-11734016D01*
X15702269Y-11924492D02*
X15683222Y-11934016D01*
X15645127Y-11934016D01*
X15626079Y-11924492D01*
X15616555Y-11905445D01*
X15616555Y-11829254D01*
X15626079Y-11810207D01*
X15645127Y-11800683D01*
X15683222Y-11800683D01*
X15702269Y-11810207D01*
X15711793Y-11829254D01*
X15711793Y-11848302D01*
X15616555Y-11867349D01*
X15787984Y-11924492D02*
X15807031Y-11934016D01*
X15845127Y-11934016D01*
X15864174Y-11924492D01*
X15873698Y-11905445D01*
X15873698Y-11895921D01*
X15864174Y-11876873D01*
X15845127Y-11867349D01*
X15816555Y-11867349D01*
X15797508Y-11857826D01*
X15787984Y-11838778D01*
X15787984Y-11829254D01*
X15797508Y-11810207D01*
X15816555Y-11800683D01*
X15845127Y-11800683D01*
X15864174Y-11810207D01*
X15940365Y-12010207D02*
X15949888Y-12000683D01*
X15968936Y-11972111D01*
X15978460Y-11953064D01*
X15987984Y-11924492D01*
X15997508Y-11876873D01*
X15997508Y-11838778D01*
X15987984Y-11791159D01*
X15978460Y-11762588D01*
X15968936Y-11743540D01*
X15949888Y-11714968D01*
X15940365Y-11705445D01*
M02*
